<svg id="Layer_1" data-name="Layer 1" xmlns="http://www.w3.org/2000/svg" width="98.9486" height="98.9486" viewBox="0 0 98.9486 98.9486"><defs><style>.cls-1{fill:#d2d8d5;}.cls-2{fill:#072619;}</style></defs><path class="cls-1" d="M140.6064,198.9951a48.9741,48.9741,0,1,1,48.9747-48.9736A49.03,49.03,0,0,1,140.6064,198.9951Z" transform="translate(-91.1321 -100.5469)"/><path d="M140.6064,101.5469a48.4744,48.4744,0,1,1-48.4743,48.4743,48.5292,48.5292,0,0,1,48.4743-48.4743m0-1a49.4744,49.4744,0,1,0,49.4744,49.4743,49.4743,49.4743,0,0,0-49.4744-49.4743Z" transform="translate(-91.1321 -100.5469)"/><path d="M115.8887,113.9175c.4946,3.5781,1.44,9.8926,1.9961,13.6489l-3.9395,2.916c-3.6352-2.3-8.6069-5.3076-11.7173-7.1133l5.63-4.0175,6.2109,4.37c-.06-.2974-.1484-.6768-.2177-.9087l-4.9937-3.5669.853-.0913,3.9937,2.9414c-.5146-2.0234-1.1113-4.0537-1.6577-5.76Zm1.3452.0679c.4575,3.6811,1.4526,10.3593,1.9873,13.6347-1.0064.6641-2.7163,1.8975-3.9385,2.8765l-.5322.0234c1.2129-.9531,2.7847-2.1177,3.9683-2.9541-.5259-3.3-1.4039-9.1445-2.0259-13.5708Z" transform="translate(-91.1321 -100.5469)"/><path d="M132.688,117.3652l-5.9468,2.7476a1.1862,1.1862,0,0,0,.2124.31,1.354,1.354,0,0,0,.1807.1625,7.1381,7.1381,0,0,0,1.5488-.434,8.935,8.935,0,0,0,2.4522-1.566l.4628,2.2486a12.8134,12.8134,0,0,1-3.4848,1.9971c-3.604,1.3842-6.8545.9912-7.832-1.5582-.8834-2.3.768-5.5913,4.5351-7.0371,3.05-1.1718,5.4585-.5268,6.18,1.354a8.5823,8.5823,0,0,1,.4194,1.462l-6.022,2.7929a1.3084,1.3084,0,0,0,1.2212.7979,1.909,1.909,0,0,1-.4521-.6294l6.022-2.7935a8.177,8.177,0,0,0-.3892-1.3838,3.9537,3.9537,0,0,0-.3682-.7148,3.606,3.606,0,0,0-.4-.4888l.2349-.001a2.6125,2.6125,0,0,1,.9932,1.2417A14.1469,14.1469,0,0,1,132.688,117.3652Zm-6.8076-1.2734a1.7086,1.7086,0,0,0-1.1031,2.207l.6871-.353a1.767,1.767,0,0,1,1.2255-1.7017,2.8049,2.8049,0,0,1,.4434-.1337A1.4047,1.4047,0,0,0,125.88,116.0918Zm6.5385,2.8389.4571,2.2324a13.7819,13.7819,0,0,1-3.47,1.9746,9.5247,9.5247,0,0,1-3.5816.7686l-.2036-.1006a14.7209,14.7209,0,0,0,3.3438-.8374,12.5818,12.5818,0,0,0,3.4155-1.9351l-.437-2.24Zm-5.0444-2.5562a2.7239,2.7239,0,0,0-.3657.0864,1.3817,1.3817,0,0,0-1.0391,1.2725l1.6333-.8232a1.267,1.267,0,0,0-.0742-.2569A1.4867,1.4867,0,0,0,127.3745,116.3745Z" transform="translate(-91.1321 -100.5469)"/><path d="M139.8481,119.5278l-5.0185,1.2681c-.6494-4.1792-1.8447-10.582-2.3316-12.85,1.9219-.4834,4.2388-1.1465,5.5948-1.56C138.48,109.3091,139.4092,116.5635,139.8481,119.5278Zm-.5263-12.5229c.4131,3.373,1.2729,9.7617,1.747,13.0923l-5.0185,1.2675-.4609-.248,4.93-1.2715c-.4458-3.2847-1.3217-9.6362-1.7461-13.0757Z" transform="translate(-91.1321 -100.5469)"/><path d="M154.1865,120.5337l-4.9048.0464.0264-.2315a6.1887,6.1887,0,0,1-2.1382.1763,7.7613,7.7613,0,0,1-3.5058-1.0015l-.1065-.23a11.2124,11.2124,0,0,0,1.3111.501,12.4945,12.4945,0,0,0,2.01.3784,6.6372,6.6372,0,0,0,2.4766-.2378l.0722-.6455a8.4691,8.4691,0,0,1-3.2055.4405,7.7015,7.7015,0,0,1-4.2432-1.5039c.3154-2.7945.4751-5.1719.6563-7.3794.5556-.021,4.5625-.1353,5.5576-.1563l-.8345,6.606a2.9488,2.9488,0,0,0,.6206.17l.79-6.209.4043.3311-.7583,5.9272a6.8136,6.8136,0,0,0,.8828-.0005l.5576-6.3022c1.19.0175,4.4282.0674,5.5991.0664C154.9688,114.3911,154.5215,117.5732,154.1865,120.5337Zm2.27-8.353c-.3291,1.9228-.8858,5.88-1.2657,9.2378l-4.9048.0459-.353-.3912L154.752,121l1.3027-9.1826Z" transform="translate(-91.1321 -100.5469)"/><path d="M178.2725,122.9106c-2.3194,1.5591-5.6329,3.7056-8.2784,5.5928l-3.6679-2.0683.0791-2.7691-2.9307,2.105-3.4619-2.1973-.1865-.54,3.4267,2.2148,3.1983-2.2544.042-1.0044c-1.1241.7618-2.2891,1.6348-3.5635,2.52l-3.4531-2.1714c.1377-2.6953.2011-7.0093.2783-9.8174l5.4541,2.9277c-.3018,1.5664-.5957,3.1582-.7988,4.687a8.1119,8.1119,0,0,0,.7226-.4785l.5693-3.3686.4024.65-.3975,2.4028c.4-.2837.6846-.501.9785-.7324l.0977-2.1177,5.2285,2.7925-.8017,4.6074c.31-.2207.5332-.3779.7373-.5469l.5507-3.1264.4258.5268-.4179,2.1387c.9863-.7866,1.7558-1.4707,2.4873-2.1768Zm.5088,1.1988-8.27,5.6181-3.6328-2.0859-.2314-.5078,3.7441,2.1138,8.2051-5.5982Z" transform="translate(-91.1321 -100.5469)"/><path d="M134.627,175.6035l-8.355,7.02c1.3169.4229,2.7109.8184,3.9131,1.1231l-2.919,3.0527-10.8393-4.3789-.0171-.3271c2.4638-1.9434,6.3091-5.2452,8.1508-6.86l-3.0219-1.1123-.1709-.5918,3.5644,1.3652.481-.4365c-1.1626-.4785-3.0576-1.1709-4.4185-1.6367a38.8651,38.8651,0,0,0,3.0371-2.8047l10.08,4.0879.0171.3281-9.2173,7.7256c.2881.1133.6021.2188.8457.2891l8.7525-7.3682Zm-4.0118,9.3682-2.8589,3.0176-10.83-4.3536-.187-.5136,10.8481,4.3613,2.86-2.9736Z" transform="translate(-91.1321 -100.5469)"/><path d="M138.9043,189.8389c-3.2974-.2168-5.8384-2.8047-5.6436-5.7744s3.0523-5.1846,6.35-4.9659c3.2973.2159,5.8408,2.4746,5.6254,5.752C145.0405,187.82,142.2017,190.0547,138.9043,189.8389Zm.9072.9306a6.0809,6.0809,0,0,1-2.268-.5566l-.1587-.2412a10.2264,10.2264,0,0,0,2.1421.4111c3.76.2471,6.0781-2.3125,6.2544-4.9922a6.0354,6.0354,0,0,0-.3521-2.3076l.2061.11a4.3226,4.3226,0,0,1,.4892,2.5693A5.692,5.692,0,0,1,139.8115,190.77Zm-.9223-8.95a.9428.9428,0,0,0-1.0342.9971,5.4464,5.4464,0,0,0,1.1684,4.0274,6.88,6.88,0,0,1-.6313-3.3526c.0391-.5976.3867-1.1758,1.0615-1.1308a2.0172,2.0172,0,0,1,.2881.039A1.3266,1.3266,0,0,0,138.8892,181.8193Zm1.1347,1.0049a1.3452,1.3452,0,0,0-.42-.0859c-.5981-.0391-.8056.47-.8452,1.0674a7.1768,7.1768,0,0,0,.7524,3.2841l.0772.0049c.81.0528,1.0444-.57,1.0889-1.2441A5.4121,5.4121,0,0,0,140.0239,182.8242Z" transform="translate(-91.1321 -100.5469)"/><path d="M157.4873,185.5752c-2.8008,1.7529-6.375,1.1426-7.9551-1.38s-.5586-5.9883,2.2412-7.7422,6.1846-1.4111,7.9287,1.3721C161.2822,180.3486,160.2881,183.8213,157.4873,185.5752Zm-4.7051-6.4932a.9432.9432,0,0,0-.2549,1.4141,5.4475,5.4475,0,0,0,3.3038,2.581,6.8869,6.8869,0,0,1-2.4737-2.3486,1.0575,1.0575,0,0,1,.1992-1.5381,2.3681,2.3681,0,0,1,.2559-.1377A1.3234,1.3234,0,0,0,152.7822,179.082Zm1.5078.15a1.3524,1.3524,0,0,0-.3906.1768c-.5078.3183-.3779.8515-.0605,1.3594A7.1637,7.1637,0,0,0,156.37,182.99l.0654-.04c.6885-.4316.5137-1.0732.1543-1.6475A5.4056,5.4056,0,0,0,154.29,179.2324Zm4.4776,6.5664a6.1332,6.1332,0,0,1-2.1641.877l-.27-.1035a10.2593,10.2593,0,0,0,1.9775-.9209c3.1934-2,3.5752-5.4307,2.15-7.7061a6.0273,6.0273,0,0,0-1.6358-1.666l.2315-.03a4.3174,4.3174,0,0,1,1.9,1.7949A5.6924,5.6924,0,0,1,158.7676,185.7988Z" transform="translate(-91.1321 -100.5469)"/><path class="cls-2" d="M170.231,143.4669s2.1742-3.7855-.2628-6.7086a15.55,15.55,0,0,0-5.621-4.7227c-1.8372-.9369-5.6607-3.1859-9.37-3.4481a18.0682,18.0682,0,0,0-5.36.187,2.4313,2.4313,0,0,0-2.5493-1.3493,17.5645,17.5645,0,0,0-5.5844,2.3985c-.6368.45-4.01,4.1231-4.722,4.9476a9.2713,9.2713,0,0,1-3.1113,2.2492c-1.4612.7121-3.4866.9743-4.3474,1.5746a43.7136,43.7136,0,0,0-4.61,3.4849,16.7163,16.7163,0,0,1-2.5858,2.0992c-.6373.45-8.77,5.7723-10.1194,8.3586a1.1286,1.1286,0,0,1,.4863.1121c.1876.1123.3381.0373.5251-.075s.6367-.45.6367-.45a3.1109,3.1109,0,0,1-.3205.5547s.5362-.556.8943-.4959c0,0-3.2364,2.0641-3.2168,3.1361a.5285.5285,0,0,0,.3581.04,1.7688,1.7688,0,0,0,1.2106-.457s-1.1518,1.6275-.1781,1.0723l2.1822-1.1917a2.6428,2.6428,0,0,1-.356.5764c-.14.1189-4.3272,3.6515-1.39,2.5a36.4127,36.4127,0,0,1-1.8256,3.6926,25.3731,25.3731,0,0,0-2.0857,3.2552,46.7542,46.7542,0,0,1-3.6519,4.9829s-.9128,1.0314.06.3965l1.3308-1.33-1.2911,2.4219a2.2692,2.2692,0,0,1,.0393.3764s.2193-.1979.3184-.178.1387,0,.2378-.0795.08-.04.2776-.06c.1992-.0195.2183.02.3184-.0195a.7749.7749,0,0,1,.2389-.04,2.668,2.668,0,0,0-.2791.4362c-.1192.2387-.159.2978-.0986.3974s.1187-.3375.2978-.3573.2373.02.3173-.06a.9017.9017,0,0,0,.1388-.1984s.1192.08.0593.1788l-.0593.0993a1.889,1.889,0,0,0,.9722-.9922s-.0785.0193.1981-.159a1.3166,1.3166,0,0,0,.6156-.5954,7.9962,7.9962,0,0,0,.5563-1.1116c.0609-.1395,0,.1386.259-.1986a15.0916,15.0916,0,0,0,1.4681-2.6,13.2492,13.2492,0,0,1,1.7864-2.9974,23.3026,23.3026,0,0,0,1.9649-3.117,3.7666,3.7666,0,0,1,2.0047-1.6665,8.0787,8.0787,0,0,0,1.8055-.5756s-.9117,1.1115-1.31,1.1716c0,0,.1394.2178.4975.0591,0,0,2.9567-1.2505,3.0558-1.35l-.02.2182s.2585-.4364.4366-.4963.1594.4362-.1988.6744c0,0,.7545-.9523,1.2318-1.0919.4752-.1385.7136-.5944.7529-.2978a1.7862,1.7862,0,0,1-.9712,1.37l.8938-.4164-.6957.8733.8731-.9925-.6346,1.2707.7544-1.0524-.02.9533s.1775-1.2111.3974-1.1716a1.9418,1.9418,0,0,0,.1382.7547s-.0206,1.9646.5558,2.441l-.0795-.4167.3185.1785-.04-.3968v-.0795a1.6132,1.6132,0,0,0,2.4021.4371,4.1108,4.1108,0,0,1,2.6.5952s.0191.0993.0594.2972c0,0-1.0119.6953-1.0919.9724a1.12,1.12,0,0,0-.0593.4172,3.9764,3.9764,0,0,0-.2384,1.0124s-.12.7746-.1388.9732.0593,2.0837,1.5284,1.31c0,0-.755-.06-.8937-.5356s.04-.3577.04-.5958.16-.7541.1393-.9329a1.383,1.383,0,0,1,.12-.635c.0785-.1591.0594-.3178.1378-.4169s.179-.2186.2585-.3176a2.3454,2.3454,0,0,1,.2787-.3375l.0795-.0593s.4158.4561.5949.4363c0,0-.4572-.377-.3772-.7346,0,0,.2379.0795.3375-.04a5.125,5.125,0,0,1,.3978-.3774.4229.4229,0,0,0,.3555,0c.2389-.079,1.014.4169,1.33,1.0124a6.3623,6.3623,0,0,1,.6543,1.8264c.16.7343.3777.9727.339,1.4288s-.04.6154.0594.6154-.3375.8932-.8344.4768c0,0,.8344,1.0916,1.549-.3971a6.0467,6.0467,0,0,0,.08-1.1512,10.6706,10.6706,0,0,0-.3984-1.39.71.71,0,0,1-.1181-.4959,1.2288,1.2288,0,0,0-.2183-.7547c-.179-.218-.3379-.4762-.4969-.6945a8.0074,8.0074,0,0,1-.4556-.6749,3.2038,3.2038,0,0,0-.8138-.8141c-.2193-.1184-.179,0-.2792-.04a2.8689,2.8689,0,0,0-.8529-.3769c-.258,0-.4371-.2382-.7544-.2581s-.2983-.2781-.5362-.2977a3.35,3.35,0,0,1-.6548-.1791,4.2746,4.2746,0,0,1-.5361-.2373c-.1192-.06.2977.0191.2781-.4373-.0212-.4559.14.1192.3163-.3568,0,0,.4175.2378.3179.575-.098.3378-.0191.1391-.0191.1391a.8553.8553,0,0,0,.2384-.6945.5316.5316,0,0,0,.2781.6349,2.1245,2.1245,0,0,1-.08-.8736s.4365-.6148.4773-.1382a2.38,2.38,0,0,1-.1589,1.0714s1.6264-.6945,1.31-.9724l3.5729-.119s-.3577.6151-.5367.8933c0,0-.8334.2972-.9727.6349s-.0392.0991-.0392.0991-1.1915,1.112.1785,1.6879c0,0-.6754-1.0723-.0191-1.1915a.3593.3593,0,0,0,.3772.2382c.2771-.04.0981-.02.0981-.02s-.1585,1.7666.4365,2.1041c0,0,1.35.7941,1.7075.1788a.9914.9914,0,0,1-.933-.2779s-.0391-.8137-.2373-.8137c0,0,.1584-.4172-.08-.6554a7.1361,7.1361,0,0,0,.08-1.3695s.4164-.8932.7735-1.0523.0392-.0787.0392-.0787.3576-.1992.854.2969a5.3841,5.3841,0,0,0,.9128.8341c.1187.04.2188.4763.2188.6353s.1584,2.4412.6347,2.7193c0,0-.3576,1.191-1.032.8734,0,0,1.0118,1.0121,1.5681-.7343,0,0,.4567-.6755.2781-.9327s.1383-.5759.02-.8932-.6755-1.886-.8736-2.2034a1.4242,1.4242,0,0,0-.7947-.7745,1.761,1.761,0,0,1-.9324-.8932c-.1584-.3174-.2193-.2188-.3777-.2779s.0195-.099-.258-.1187-2.3226-.02-2.7194-.04-1.9655-.0588-1.9655-.0588-.1791-.08-.098-.3778a6.5519,6.5519,0,0,1,3.3938-2.461c2.2039-.8535,2.3819-.4964,3.673-1.4691,1.2889-.9727,3.6708-2.7588,4.4453-3.553s2.0243-1.5086,2.6993-2.9183a29.51,29.51,0,0,0,1.35-3.6915,9.76,9.76,0,0,1,2.3019-3.394c.7947-.7346,1.8071-1.5687,1.8071-1.5687a6.2326,6.2326,0,0,0,2.48.7541s2.68.4964,3.8711.5566c0,0,8.165,1.157,10.53,2.7657C167.7124,141.3134,170.5256,142.7817,170.231,143.4669Z" transform="translate(-91.1321 -100.5469)"/></svg>