<?xml version="1.0" encoding="utf-8"?>
<!-- Generator: Adobe Illustrator 24.2.3, SVG Export Plug-In . SVG Version: 6.00 Build 0)  -->
<svg version="1.1" id="Layer_1" xmlns="http://www.w3.org/2000/svg" xmlns:xlink="http://www.w3.org/1999/xlink" x="0px" y="0px"
	 viewBox="0 0 507 640" style="enable-background:new 0 0 507 640;" xml:space="preserve">
<g transform="translate(0.000000,640.000000) scale(0.100000,-0.100000)">
	<path d="M3910,6339c-78-14-339-39-354-33c-8,3-33-7-57-23c-29-19-44-24-47-15c-8,25-22,11-22-22c0-44,30-68,73-59
		c58,12,18-16-54-37c-63-19-73-20-87-6c-10,8-35,16-57,18c-37,3-40,1-45-27c-4-25-10-30-35-30c-22,0-29,4-27,17c3,19-2,23-43,32
		c-26,6-33,3-49-24c-10-17-16-33-13-36c2-3,44-9,93-15l89-10l21,27c21,26,48,26,38,1c-8-22,109-39,179-28c32,6,71,8,85,5
		c29-6,73,19,59,32c-4,4-50,8-102,9c-84,0-93,2-79,15c11,11,40,15,113,16c53,0,102,4,108,7c6,4,18,4,27,1c8-3,59,15,113,41
		s130,56,168,66c65,18,100,26,273,60c34,7,62,15,62,18C4340,6348,3960,6348,3910,6339z"/>
	<path d="M3323,6240c-20-8-22-12-12-34c23-51,67-44,61,9C3368,6251,3360,6255,3323,6240z"/>
	<path d="M2927,6224c-16-8-37-24-48-35c-19-19-19-19,9-19c33,0,95,36,90,52C2972,6240,2958,6241,2927,6224z"/>
	<path d="M3137,6233c-15-15-4-23,48-38c41-12,59-14,75-5c28,15,19,25-34,39C3175,6242,3146,6243,3137,6233z"/>
	<path d="M2650,6168c-41-11-92-22-112-25c-46-6-40-23,8-23c21,0,42-8,54-20c11-11,29-20,39-20c11,0,33-8,49-17c28-16,33-16,82,0
		c29,9,75,17,102,17c50,0,88,13,88,30c0,6-7,10-16,10c-10,0-14,6-10,15c8,21-16,19-59-6c-37-22-51-22-119,4c-22,8-34,17-27,21
		c12,8,15,37,4,35C2728,6188,2691,6179,2650,6168z"/>
	<path d="M2364,6062c-6-4-13-14-16-23c-4-9-36-27-71-40l-66-24l19-25c17-23,20-23,70-12c29,7,63,21,77,32c41,32,45,23,13-35
		c-17-31-30-58-30-61s14-10,30-15c17-6,30-17,30-25c0-18,23-18,58,0c52,26,191,35,258,17c24-7,38-4,63,11c36,23,36,22,15,52
		c-10,16-12,26-5,31c6,3,11,24,11,47c0,38-1,40-26,34c-14-4-36-19-49-34c-22-25-24-26-42-10c-10,9-41,20-69,23c-42,6-54,12-68,36
		c-17,28-19,29-104,29C2414,6070,2370,6066,2364,6062z"/>
	<path d="M2987,6043c-4-3-7-15-7-25c0-20-11-23-27-7c-6,6-16,8-22,4c-7-4,0-17,19-36c32-33,43-33,111,2c24,12,38,27,41,44
		c5,24,4,25-52,25C3019,6050,2990,6047,2987,6043z"/>
	<path d="M3146,6020c-13-17-53-49-87-71c-34-23-64-50-67-61c-4-16-11-19-37-14c-43,8-105-18-105-44c0-18-7-20-62-21
		c-94-2-111,1-134,22c-19,18-25,19-68,7c-25-7-46-18-46-25c0-10-25-13-102-12c-82,0-98,3-80,11c43,21,35,26-109,58c-32,7-69,10-83,6
		c-19-5-26-3-26,9s-5,13-27,4c-22-8-30-7-40,7c-8,11-18,14-30,9c-42-17-170-40-193-35c-14,3-41,0-60-7c-48-17-86-16-116,3
		c-16,11-61,19-132,25c-138,10-264,32-287,49c-13,10-155-20-275-58c-52-17-111-33-130-37c-65-12-71-16-65-36c3-10,8-28,11-39
		c4-17,1-20-25-20c-17,0-31,4-31,9s-37,0-82-13c-63-17-83-27-89-44c-7-18-4-23,16-28c14-3,43-4,65-2c31,3,39,0,35-10c-3-8-5-17-5-22
		c0-4-21-10-47-13c-128-13-230-56-266-111c-27-41-22-57,14-49l31,6l-17-27c-16-23-16-26-1-20c20,8,86-4,86-15c0-8-390-161-412-161
		c-7-1-24-7-38-15c-25-14-25-14,10-9c119,19,323,78,394,114c43,22,89,40,101,40c35,0,115,27,136,46c14,13,16,20,8,31
		c-9,10-6,13,15,13c14,0,49,9,78,20c28,11,53,18,55,16s-15-15-37-30c-22-14-40-28-40-30c0-7,128,24,176,42c48,19,51,19,84,2
		c19-10,58-21,87-25c74-10,87-33,80-137l-5-78h34c32,0,33-1,23-27c-7-17-8-55-4-97l6-69l-25,7c-39,10-38-23,2-66c27-28,33-40,24-50
		c-5-7-20-38-32-68s-46-82-75-116c-30-33-57-74-61-90s-18-45-33-64c-30-41-32-68-18-203l11-99l42-29c49-33,51-38,60-139
		c4-41,13-88,21-103c13-26,13-30-3-41c-15-12-15-16-3-33c8-11,28-32,45-46c24-20,30-33,27-51c-4-18,4-36,26-63c17-21,31-43,31-50
		s5-13,10-13c21,0,22,33,3,74c-11,22-23,55-27,73c-4,17-22,70-41,117c-25,64-32,95-28,121c3,19,7,35,9,35c1,0,14-4,27-9
		c20-8,25-18,30-62c5-36,17-69,42-106c21-31,35-65,35-83c0-23,15-48,60-101c49-57,60-76,60-105c0-19-4-43-9-52s-5-26-1-38
		c10-25,100-94,123-94c9,0,20-6,24-14c12-20,150-87,181-88c15,0,44,3,65,7c36,7,40,6,86-42c47-49,58-54,179-86c30-8,44-18,48-34
		c3-12,14-29,25-39c10-9,19-28,19-41c0-31,102-127,138-130c14-1,35-12,48-24c27-26,59-19,51,11c-6,23,26,55,48,46c8-3,18-14,21-23
		c3-10,12-30,20-45c17-32,19-170,2-201c-6-12-19-28-30-35c-10-7-18-22-18-33s-10-24-22-30c-32-14-72-118-59-152c5-14,15-28,20-32
		c7-4,2-18-15-40c-24-31-24-36-13-77c7-24,25-56,40-73c15-16,39-55,54-85s40-73,55-95s48-81,73-132c46-91,47-92,154-168
		c59-43,110-79,111-81c2-1,12-51,23-111c12-74,18-158,19-266c0-116,4-173,17-218c14-52,15-77,6-187c-9-113-8-131,7-162
		c10-19,20-60,23-90c9-79,25-130,43-130c10,0,13,7,8,25c-4,14-2,25,4,25s15-23,21-50c14-64,14-63-3-57c-21,8-42-19-28-36
		c7-8,9-29,5-50c-4-29-2-37,9-37c25,0,41-26,29-48c-8-16,0-34,45-100c31-45,84-107,118-140c59-54,68-60,161-84l98-25l34,19
		c18,11,33,23,33,27s-25,15-54,25c-42,12-65,28-97,64c-52,59-61,82-43,103c8,9,12,23,8,32c-3,9,4,33,17,54c15,24,19,38,11,41
		c-6,2-22,12-36,23c-30,24-37,85-11,95c10,4,15,20,15,44c0,21,7,43,15,50c21,17,19,30-4,30c-20,0-51,35-51,57c0,8,13,12,35,11
		c43-2,68,18,61,48c-10,37,3,54,39,54c64,0,95,12,110,41c22,42,19,96-5,109c-11,6-23,22-26,35c-3,14-13,25-22,25c-12,0-13,3-4,12
		c9,9,16,7,31-6c11-10,38-20,61-23c33-5,45-2,65,17c25,24,75,136,75,170c0,13,7,20,19,20c36,0,66,66,68,150c1,41,2,78,2,81
		c2,14,143,100,190,116c80,25,113,76,136,207c10,56,19,135,20,177c2,73,4,79,47,140c25,35,62,99,81,142l36,78l-17,46
		c-13,35-24,49-48,57c-17,6-58,35-92,65l-61,55l-83,2c-46,2-91,4-100,4c-11,1-18,9-18,23c-1,17-14,28-62,50c-55,25-63,26-78,12
		c-23-21-30-19-30,8c0,14-11,28-30,39c-25,14-29,22-24,42c4,17,0,28-14,38c-11,7-23,31-27,53c-10,52-12,56-63,99c-38,31-51,36-95,36
		c-65,0-152,43-166,80c-5,15-25,33-48,45c-22,11-44,28-49,40c-5,11-21,26-36,33c-30,14-35,27-15,36c6,3-10,3-38,0c-27-3-53-10-56-15
		c-3-6-21-3-42,6c-20,8-52,15-72,15c-42,0-90,22-99,46c-5,14-12,10-41-22c-19-21-34-50-35-63c0-20-2-22-15-11c-11,9-13,16-5,24
		c5,5,10,22,10,38c0,15,7,31,15,35c8,5,11,14,7,20c-6,9-20,4-52-17c-24-16-58-32-75-36c-33-7-54-29-55-56c0-10-13-32-28-50l-29-31
		l-36,29c-29,22-45,28-74,25c-21-1-46-7-57-13c-41-22-106,48-106,113c0,19,7,65,17,103l16,68l-24,19c-19,15-42,19-111,19h-87l26,63
		c14,34,34,87,45,117c12,30,25,60,29,66c6,8-5,13-37,18c-63,8-98-11-116-66c-14-42-16-43-87-62c-84-22-107-15-144,43
		c-44,70-47,106-15,200c15,47,28,101,28,122c0,35,4,39,93,98c76,50,100,61,134,61c23,0,45-4,48-10c11-17,48-11,72,12
		c30,28,150,36,160,11c4-11,15-13,38-9c25,5,36,1,55-19c20-22,23-30,14-53c-12-30-2-81,23-118c40-62,68,5,58,140l-6,91l48,52
		c26,29,80,72,118,97c39,25,87,62,108,83c32,32,37,43,33,71c-3,23-1,32,10,32c8,0,22,15,31,34s21,32,28,30c7-3,26,12,43,33
		c22,29,45,43,85,56c29,9,61,17,69,17c21,0,42,26,29,35c-16,9,29,73,59,84c14,5,63,23,110,40c83,30,84,30,56,7c-39-32-30-59,14-46
		c18,5,37,14,44,19c6,5,32,15,58,21c26,7,54,21,64,31c9,10,25,19,36,19c13,0,18,7,18,25c0,15-6,25-14,25s-23-11-34-25
		c-27-34-85-35-107-2c-14,22-13,27,11,71c22,40,24,50,13,57c-23,15-46,10-117-21l-67-30l35,30c19,17,41,30,49,30s23,8,34,18
		c15,14,45,18,151,23c122,5,135,8,194,37c34,18,62,29,62,24c0-4-34-41-75-82s-75-78-75-82c0-5,29-8,64-8c36,0,68-5,71-11
		c4-6,13-8,21-5c7,3,18-2,23-11c8-15,11-15,35,0c21,14,24,21,16,41c-5,13-6,33-3,45c4,18,1,21-23,21c-36,0-61,42-38,61
		c8,6,11,15,8,20s4,22,15,38c20,27,20,31,5,75c-9,26-25,51-38,57c-11,6-33,23-48,37c-21,19-25,29-17,43c10,20-8,159-22,159
		c-4,0-20-11-36-24c-15-13-47-33-69-44c-41-21-42-21-62-2c-23,21-20,57,6,77c13,11,11,14-11,22c-15,6-40,25-56,43
		c-21,23-33,30-40,22c-7-6-33-8-67-4c-55,6-56,6-80-29c-13-20-24-43-24-51c0-9-18-34-40-55c-33-32-37-41-25-48c18-10,19-27,4-60
		c-12-26-101-83-139-89c-21-3-27-11-39-64s-18-63-51-82l-38-21l-6,23c-3,13-9,31-12,40c-4,12-2,15,9,10c8-3,18-1,22,5c3,6-1,11-9,11
		c-21,0-20,18,4,58l20,32h-33c-17,1-50,9-72,20s-46,19-52,20c-7,0-13,4-13,10c0,17-50,43-81,42c-27-1-29,2-29,39c0,30-4,39-17,39
		c-37,0,55,73,158,125c58,29,111,60,118,69c8,9,22,16,31,16c26,0,110,37,147,66c17,13,35,24,39,24c13,0-59-71-81-80c-16-7-17-9-3-9
		c9-1,18-8,20-16c3-13,9-12,42,6c32,17,44,19,63,10c33-15,63-14,63,3c0,7-20,30-45,50c-50,41-59,62-20,44c19-9,28-9,37,0
		c7,7,21,12,33,12c27,0,85,36,85,53c0,8,9,22,20,32c14,13,17,22,10,29c-21,21-8,26,73,26c66-1,86-4,105-20c28-24,21-40-18-40
		c-30,0-64-25-55-41c10-15,48-10,69,10c31,29,60,31,64,4c3-18-6-27-42-45c-31-15-46-28-46-41c0-18-5-19-59-14c-48,5-63,3-81-11
		c-19-16-20-19-7-30c12-10,23-9,56,4c40,16,43,16,62-2c12-11,27-31,34-45c11-20,30-30,84-46c78-23,88-17,50,31c-26,33-19,33,37,0
		c29-17,44-22,44-13c0,7,9,23,20,35l21,21l-26,31c-29,35-31,45-9,63c14,11,20,9,43-19c28-34,55-42,65-17c3,8,15,15,26,15
		c12,0,30,8,41,19c20,18,20,18-17,50c-23,20-44,31-55,28c-28-7-45,19-25,38c9,9,16,22,16,29c0,18-33,46-54,46c-9,0-19,7-22,15
		c-4,8-17,15-29,15c-14,0-34,13-51,32c-25,31-32,33-108,39c-87,7-153-6-187-37c-16-15-19-15-19-2c0,9,10,23,23,31c21,16,22,16,1,16
		c-37,1-108-29-146-62c-30-27-35-36-27-54c6-17,16-23,40-23s30-3,25-16c-3-9-6-17-6-19c0-7-98-73-118-79c-27-9-31,18-6,32
		c22,12,14,46-13,50c-17,3-22,11-25,50c-6,58,2,69,55,77c23,4,60,18,82,31l40,24h-72C3176,6050,3170,6048,3146,6020z"/>
	<path d="M2338,3729c-16-11-28-29-28-40c0-26,15-24,37,4c30,38,40,39,106,16c76-26,93-41,102-85l6-34l67,6c37,4,76,11,87,17
		c18,9,16,12-20,27c-22,10-51,29-65,44c-28,31-98,53-195,61C2374,3750,2362,3748,2338,3729z"/>
	<path d="M2778,3577c-3-28-7-33-37-37c-54-8-51-30,3-30c25,0,46-4,46-10c0-16,32-11,45,7c8,10,32,18,69,21c31,2,56,8,56,13
		c0,4-16,20-35,35c-25,19-43,25-61,21c-15-3-39-1-55,3C2783,3608,2781,3606,2778,3577z"/>
</g>
</svg>
