<?xml version="1.0" encoding="utf-8"?>
<!-- Generator: Adobe Illustrator 24.2.3, SVG Export Plug-In . SVG Version: 6.00 Build 0)  -->
<svg version="1.1" id="Layer_1" xmlns="http://www.w3.org/2000/svg" xmlns:xlink="http://www.w3.org/1999/xlink" x="0px" y="0px"
	 viewBox="0 0 501 380.5" style="enable-background:new 0 0 501 380.5;" xml:space="preserve">
<g transform="translate(0.000000,972.000000) scale(0.100000,-0.100000)">
	<path d="M4172.8,9716.4c0-3.5-63.8-32.5-101.8-45.8c-23.5-8.2-26.2-8.6-34.8-2.7c-9,5.5-9.8,5.5-14.9-1.2
		c-2.7-3.9-5.1-9.4-5.1-12.1s-1.6-5.1-3.5-5.1c-2,0-3.1,5.9-2.7,12.9l0.4,12.5l-25.8,1.2c-23.5,1.2-28.6-0.4-51.3-12.9
		c-21.9-11.7-29-13.7-51.7-13.7c-23.9,0-26.2-0.8-23.9-6.7c5.9-13.3,6.7-32.5,2-38.4c-3.9-4.7-2.7-8.2,7-19.2
		c6.7-7.4,12.9-17.2,14.5-21.5c1.6-5.9,5.9-8.2,14.1-8.2c13.3,0,14.1-2.3,3.9-13.3c-6.3-7.4-16-29.8-16-37.6c0-1.6,3.9-3.9,8.6-5.1
		c8.2-2.3,8.2-2.7,1.2-10.6c-3.9-4.3-11.7-7.8-17.6-7.8c-12.9,0-23.1,9.8-16.4,16.4c5.1,5.1,0.8,15.3-12.1,29.4
		c-6.3,7-9,7.8-13.3,4.3c-10.6-8.6-16.8-26.2-16.8-46.2c0-30.9-3.9-35.2-30.9-35.2h-22.7l-4.3-20c-2.7-11-4.7-22.7-4.7-26.6
		s-4.3-11-9.8-16s-9.8-11.7-9.8-14.9c0-5.1-1.2-4.7-7.4,0.8c-6.7,6.3-7.4,5.9-13.3-2.3l-6.3-9v9c-0.4,5.1,1.6,12.5,3.5,16.4
		c2.7,5.1,2.7,8.2,0,9.8c-2,1.2-3.9,7.4-3.9,14.1c0,9.8-1.6,11.4-11,11.4c-5.9,0-12.9,2-15.7,4.7c-5.5,5.5-9,2.3-15.7-13.7
		c-3.9-9-3.5-11.4,1.2-12.9c3.1-1.6,5.9-5.5,5.5-9c0-3.9-0.8-4.3-2.3-1.2c-0.8,2.3-5.1,4.7-9.4,4.7c-10.2,0-10.2-19.2,0.4-32.5
		c9.4-11.7,9.8-14.5,2-14.5c-3.5,0-7.8,4.7-10.2,10.2c-3.5,10.2-3.9,10.2-11.4,3.5c-4.3-3.9-8.6-10.2-9.8-14.1
		c-1.6-4.3-5.1-7.4-8.2-7.4c-2.7,0-9.8-9.4-15.7-20.4c-5.5-11.4-14.9-25.4-20.4-31.3l-10.2-11l9-9.4l8.6-9l-16.4-14.5l-16.8-14.1
		l9-9.4c7.4-7.8,8.6-12.9,7.4-32.1l-1.2-23.1l-20-9.8c-43.1-21.1-39.5-20.7-61.5-5.9c-11.4,7.8-25.1,13.7-31.3,13.7
		c-19.2,0-26.2,6.3-26.2,23.5c0,13.7,1.2,15.3,13.7,19.6c7.4,2.3,13.7,6.3,13.7,8.2s3.1,3.5,7,3.5c4.3,0,10.2,3.1,13.7,7
		c5.9,6.3,5.1,7.8-13.3,21.5c-10.6,7.8-23.1,14.5-27,14.5c-4.7,0-10.2,4.7-13.7,11.7c-7,13.7-7.4,13.7-29.4,5.9
		c-9-3.1-20.7-5.9-25.8-5.9c-5.1,0-9.4-1.6-9.4-3.9c0-2-4.3-3.9-9.8-3.9c-12.1,0-12.9-6.3-1.6-9.8c16.4-5.5,30.9-24.7,30.9-41.1
		c0-8.6,2-15.7,4.7-16.4c3.5-1.2,4.7-11.4,3.9-35.6l-1.2-34.1h17.6c16.8,0,17.6-0.4,27.4-20l9.8-20l-8.6-15.3l-8.6-15.3l14.9-12.1
		c12.9-11,14.5-12.9,8.6-16c-3.9-2.3-8.2-2.3-11.7,0.8c-3.9,3.1-7.4,3.1-13.3,0.4c-9.8-5.5-16-5.5-16-0.4c0,2.3,2.7,3.9,5.9,3.9
		c9,0,7,5.1-5.9,17.6c-10.6,10.2-12.5,10.6-21.1,5.9c-5.9-2.7-14.1-3.9-20.7-2.3c-18.8,4.3-22.7,4.3-22.7,0.4c0-2-4.3-14.1-9.4-26.2
		c-6.3-16-12.5-24.7-21.9-29.7c-10.2-6.3-12.9-11-14.9-24.3c-1.2-10.2-6.7-22.3-14.5-32.1c-14.5-18-14.1-19.2,19.2-38.4
		c12.9-7.4,23.9-15.7,23.9-18s3.9-7.4,8.2-11.7c8.6-7.4,21.1-32.1,18-35.2c-0.8-0.8-10.2-2.3-20.7-2.7c-10.6-0.8-21.5-2.3-24.3-4.3
		c-3.9-2.3-31.3,6.7-65.4,21.1c-4.3,2-18.4,4.3-31.3,5.5c-12.9,1.2-27.4,3.1-32.1,4.7c-7.8,2.3-9,1.2-9-9.4c0-6.7-1.6-13.3-3.9-14.5
		c-4.7-3.1-5.1-17.6-0.4-17.6c1.6,0,10.2-4.7,18.4-10.2c21.5-14.5,36.8-19.6,40.7-13.3c7.4,11.7,25.1-7,29.4-31.3
		c2.3-12.5,1.6-14.1-11.4-21.1c-7.4-3.9-15.3-5.9-17.6-4.7c-2.3,1.6-12.1,3.1-21.9,3.9c-15.7,0.8-20.7,3.5-36.8,19.6
		c-18.4,18-19.6,18.4-23.5,11c-3.9-7.4-5.1-7.8-15.3-2.3c-5.9,2.7-12.9,5.5-15.3,5.5c-2.7,0-5.1,4.3-5.1,9.4s-2.7,10.2-5.9,11.7
		c-3.1,1.2-5.9,5.5-5.9,9.8s-1.6,9-3.9,10.2c-2,1.2-3.9,5.5-3.9,9.4c0,3.9-4.7,13.7-10.2,21.9c-7,10.6-8.6,16-5.9,18.8
		c6.3,6.3,5.1,27-1.6,40.7c-9.8,19.2-17.6,24.3-43.1,25.4c-21.9,1.2-23.5,2-22.3,10.2c1.2,7-0.8,8.6-8.6,8.6
		c-6.3,0-10.2,2.3-10.2,5.9c0,3.9-3.9,5.9-11.4,5.9c-15.3,0-26.6,16.4-20.4,30.1c5.5,12.1,5.5,12.1-2.3,14.1c-4.3,1.2-2.7,2,3.5,2.3
		c7.4,0.4,16-4.3,27-14.1c12.9-11.7,17.2-13.7,22.7-10.2c5.1,3.1,9.8,2.3,20-3.1c7.4-3.9,18.4-7,24.3-7.4c5.9,0,11.7-1.6,12.9-3.9
		c1.2-2,11-3.9,21.1-3.9c10.6,0,26.6-2.7,36-5.9c16.4-5.9,17.6-5.9,23.9,2c8.2,10.2,14.9,10.2,14.9,0c0-7,2.7-7.8,30.5-7.8
		c25.4,0,32.1,1.2,37.6,7.4c3.9,4.3,16.4,12.1,28.2,18c15.3,7.4,21.1,12.5,21.1,18.4c0,4.3,3.1,8.6,7.8,9.8c4.3,1.2,7.8,5.1,7.8,9
		c0,3.9,2,7.8,4.7,8.6c7.8,2.7,14.1,43.1,8.2,56.4c-2.7,6.3-4.7,15.3-5.1,20.4c0,4.7-1.6,8.6-3.9,8.6c-2,0-3.9,3.5-3.9,7.8
		c0,5.9-2.3,7.4-8.6,6.7c-7-0.8-9.4,1.6-10.2,10.2c-1.2,9.4-3.1,10.6-14.9,10.6c-8.6,0-13.3,2-13.3,5.5c0,7.4-30.5,14.9-39.9,9.8
		c-5.9-3.1-10.2-1.6-21.1,7.8c-12.9,11.4-17.6,13.7-27.4,12.5c-2.3-0.4-8.2,3.9-13.3,9.4c-6.7,7-13.3,9.8-24.3,9.8
		c-9,0-21.1,3.5-29.7,9c-27.4,17.2-37.6,19.6-50.9,12.9c-16-8.2-74-8.6-85.3-0.8c-5.1,3.5-10.2,4.3-13.3,2.3
		c-3.9-2.3-7.4-0.8-11,4.3c-3.1,4.7-7.8,7-11.4,5.9c-3.5-1.6-11.7,3.5-21.1,13.3c-16.8,17.2-25.1,19.6-29,7.8
		c-1.2-4.3-4.7-7.8-7.8-7.8c-3.1,0-6.7,3.5-7.8,7.8s-5.9,7.8-10.2,7.8c-5.9,0-7.4-2.7-7.4-11.7c0-14.5-9-19.2-19.2-10.2
		c-3.9,3.5-9.8,6.3-13.3,6.3c-5.1,0-5.5,2.3-2.7,12.5c4.3,14.1-0.4,22.7-12.1,22.7c-9.4,0-10.6,20-1.6,27.4s7,24.7-3.9,35.2
		c-7.4,7-12.5,8.6-22.7,6.7c-10.2-1.6-14.1-0.4-17.6,5.5c-2.7,3.9-9,7.4-14.1,7.4c-5.5,0-11,2-12.1,4.3
		c-3.5,5.5-21.1-10.6-26.2-23.9c-3.5-9-3.9-9.4-7.8-2.7c-2.7,5.5-2.3,9,2.7,14.5c8.2,9,6.7,34.8-2.7,40.7c-5.1,3.1-9,2-16.8-5.5
		c-5.5-5.1-9.8-11.7-9.8-14.5s-4.3-7.4-9.8-9.8c-8.2-3.9-9.8-7-9.8-22.3v-18l-5.9,11c-2.7,5.9-5.9,19.6-6.7,30.9
		c-1.6,25.8-9,31.3-26.2,18.8c-9.4-6.3-14.1-7.4-17.2-4.3c-3.1,3.1-6.3,2.3-11.4-2.3c-7.8-7-9.4-20.7-2.3-20.7c3.5,0,3.5-1.2,0-4.7
		c-3.9-3.9-6.7-3.9-12.1-0.4c-5.9,3.9-8.6,3.1-13.7-2.3c-3.5-3.9-6.3-9.8-6.3-13.7c0-3.5-2.7-7.4-5.9-8.6c-4.7-2-5.1-3.5-1.6-8.2
		c3.9-4.3,3.5-7-1.6-12.1c-3.9-3.5-6.7-4.7-6.7-2.7c0,2.3-1.6,6.7-3.9,9.8c-5.5,8.6-19.6-5.9-19.6-20.7c0-8.6-1.2-10.6-4.7-7.4
		c-2.7,2-12.1,3.9-20.7,3.9c-12.9,0-18.4-2.3-32.1-16c-17.6-16.8-21.1-29.4-11-38c3.1-2.7,5.9-6.7,5.9-9c0-2-3.1-1.2-7,2.3
		c-9.4,8.6-18.8,8.6-22.3,0c-2.3-6.7-2.7-6.7-8.2,0.4c-5.1,7.4-5.5,7.4-13.3,0.4c-4.3-3.9-7.8-11.4-7.8-16.4c0-4.7-1.6-9-3.9-9
		c-2,0-3.9-4.3-3.9-9.4c0-12.9-3.9-22.3-8.2-19.6c-2,1.2-3.5,5.5-3.5,9.8c0,3.9-1.6,7.4-3.1,7.4c-6.3,0-16.4-14.1-16.4-22.7
		c0-4.7-1.6-8.6-3.5-8.6c-1.6,0-7.8-3.5-13.7-8.2c-8.2-6.7-9.4-9.4-5.9-13.7c3.9-4.7,2.7-7.4-4.3-14.9c-6.7-7.4-7.8-12.1-5.9-21.5
		c2.3-11.7,2.3-12.1-11.4-12.1c-11,0-14.1,1.6-14.1,7c-0.4,5.5-1.6,5.1-7.8-2.7c-4.3-5.1-7.8-12.1-7.8-15.7c0-4.7-0.8-5.1-3.5-1.2
		c-2.3,3.9-3.9,3.9-8.2-1.2c-2.7-3.1-8.2-5.9-11.7-5.9c-11.4,0-19.6-4.3-19.6-10.2c0-3.1,2-5.5,4.7-5.5c3.5,0,3.5-1.2,0-4.7
		c-3.5-3.5-5.9-3.5-9.4,0c-8.2,8.2-14.9,5.1-14.9-6.7c0-6.3-2.7-13.3-5.9-16c-9.8-8.2-2.7-11.7,11.4-5.9c11.7,5.1,14.1,5.1,18,0
		c4.3-5.1,2.7-5.9-8.6-5.9c-13.3,0-26.6-9.4-26.6-18.8c0-2.7,4.3-4.7,9.8-4.7c7,0,9.8-2,9.8-7.8c0-5.5-2.7-7.8-8.6-7.8
		c-4.7,0-12.1-3.5-16.8-7.8c-7.4-7-10.2-7.4-18.8-3.5c-12.1,5.5-22.3-0.4-22.3-12.9c0-4.3-3.9-11-8.6-14.9c-7-5.5-7.8-8.2-3.9-12.5
		c5.9-7.4,2.3-11-11.7-11c-13.7,0-13.7-2.7-0.4-16.4l10.6-11h-11c-10.6,0-11-0.8-9-13.7c2-11.4,1.2-13.7-4.7-13.7
		c-14.5,0-30.5-26.6-20-33.3c4.7-2.7,1.6-9.8-4.3-9.8c-2,0-3.5,2.7-3.5,5.9c0,3.1-1.6,5.9-3.1,5.9c-6.7,0-12.5-18-11.7-33.3
		c1.2-12.9-0.4-16-7.4-19.6c-6.3-2.3-9-7-9-14.1s-3.1-11.4-9.8-14.5c-10.6-5.1-13.3-16.4-3.9-16.4c3.5,0,5.9-3.5,5.9-8.2
		c0-11.4-12.5-8.2-18.8,5.5c-6.3,12.5-12.5,13.3-22.3,2.7c-3.9-4.3-11-7.8-15.7-7.8c-10.2,0-17.6-7-17.6-17.2
		c-0.4-11.4-15.7-28.2-28.2-31.3c-7-1.6-11-5.1-11-9.8c0-8.2-18.4-22.3-27.8-20.7c-3.1,0.8-9.4-2.7-13.3-7
		c-3.9-4.3-9.4-7.8-12.5-7.8c-2.7,0-6.3-2.7-7.4-5.9c-1.6-3.1-6.7-5.9-11.7-5.9c-10.2,0-11.7-3.9-4.7-11c3.5-3.5,3.5-4.7,0.4-4.7
		c-2.7,0-5.9,2-7,3.9c-2,2.7-4.3,3.1-7.4,0.4c-2.3-2-11.4-4.3-20-5.1c-14.9-1.2-15.7-2-15.3-13.7c0.8-14.1-1.6-15.3-20.4-8.2
		c-11.4,3.9-14.1,3.5-21.1-2.7c-7.4-6.7-7.4-7.4-1.6-14.5c6.3-6.7,5.9-7-7.4-7c-7.4,0-14.9-2.3-15.7-4.7c-1.6-3.9-3.1-3.5-6.3,0.8
		c-3.1,4.7-4.7,4.7-11.4-1.2c-6.7-6.3-8.2-6.3-12.5-0.8c-2.7,3.1-9,5.9-13.7,5.9c-14.1,0-18.8-19.6-7.4-31.7
		c8.2-9,3.9-15.3-10.6-15.3c-9.4,0-11.4-1.6-11.4-9c0-5.1,2.3-11.4,4.7-14.1c4.3-4.3,3.5-4.3-3.5-0.8c-4.7,2.3-9.4,3.1-10.2,1.6
		c-1.2-2-2-16.4-2-32.5c0-21.5,1.6-32.5,7-41.9l7-12.5l-10.2,0.8c-9.8,0.8-10.6-0.4-11.7-18.4c-1.2-16.4,0.4-20.7,9.4-30.1
		c5.9-6.3,14.5-11.4,18.8-11.4c7.4,0,7.4-0.4-0.8-9c-9.4-9.8-11-20.4-4.3-24.7c2.7-1.6,0.8-4.3-5.1-7.4c-5.1-2.3-10.6-3.1-12.9-1.2
		c-7,6.3-16.8,2.7-20.4-7.4c-10.2-28.6-12.9-39.9-10.6-45.8c3.9-9.8,10.6-7.4,20.4,7.4c4.7,7.4,11.4,13.7,14.5,13.7
		c9,0,11.7-11,4.3-19.2c-3.5-3.9-6.3-11-6.3-16s-1.2-7.8-2.7-6.7c-6.3,6.7-12.9-7.4-12.9-28.2c0-19.6,1.6-23.9,10.6-32.5
		c6.3-5.5,14.9-11.4,20-12.9c8.6-2.3,8.6-3.1,3.1-9.4c-9-10.2-7.8-14.5,6.7-20.4c6.7-2.7,14.5-7.4,16.8-10.6
		c3.1-4.3,10.2-5.1,29.4-3.1c57.2,4.7,61.5,6.3,74.8,30.5c6.7,12.1,12.9,17.6,24.7,21.5c9.4,3.1,17.2,8.6,19.6,13.7
		c4.3,10.2,17.6,14.5,17.6,5.9c0-11,10.6-16,23.5-10.6c9,3.5,11.7,7.4,11.7,15.3c0,6.3,3.9,14.5,9.8,20c9.8,9.4,12.9,26.6,5.9,33.7
		c-3.9,3.9,23.1,36.8,30.5,36.8c7,0,2.3-13.7-6.3-17.6c-9-3.9-12.5-25.4-4.3-25.4c2.7,0,10.6-3.9,18-8.2l13.3-8.2l-7.8-8.6
		c-7.4-7.8-8.2-13.7-8.2-52.5c0-26.6,1.6-43.8,3.9-43.8s3.9-4.7,3.9-10.2c0-8.2,1.2-9.4,8.2-7.4c7.8,2.7,8.2,2,5.5-6.3
		c-5.5-16-7-70.1-2-75.9c2.7-3.5,3.1-5.9,0-7.8c-7.8-4.7-4.3-24.7,5.9-32.5c6.7-5.5,9.8-11.7,9.8-20c0-9.4,2-12.5,9.8-14.5
		c9.4-2.3,14.5-17.2,5.9-17.2c-2,0-3.9-2.3-3.9-5.5c0-2.7-2.7-7.4-5.9-10.2c-6.7-5.5-7.8-25.4-2.3-29.4c12.9-7.8,20.7-46.6,11.4-56
		c-12.1-12.1,19.2-19.2,46.2-10.6c4.7,1.6,9.8,0.8,11-1.6c1.6-2.3,7.8-4.3,14.5-4.3c11.4,0,11.4,0,11.4,22.7
		c0,25.4,4.3,32.1,20.7,32.1c9,0,12.1,2.3,15.7,11.7c2.3,6.7,7.4,12.9,11.4,14.1c9.8,3.1,22.7-2,22.7-8.6c0-3.9,5.5-5.5,21.5-5.5
		h21.5v14.1c0,8.2,3.9,19.6,9.8,28.2c5.5,7.8,9.8,18.8,9.8,24.7c0,5.5,4.3,14.1,9.8,19.2c7.8,7.4,9.4,11.7,7.4,20.7
		c-1.6,7.8-0.4,13.3,4.7,18.8c5.1,5.9,5.9,8.6,2.3,12.1c-5.5,5.5-5.9,16-1.2,25.8c16.4,32.5,19.2,46.6,11.7,60.3
		c-3.9,7-3.1,9.4,2.7,13.7c4.3,3.1,7,7.4,6.7,9.4c-0.8,2,1.2,3.5,3.9,3.5c7,0,26.2,20.7,26.2,28.2c0,9.8,5.1,11.4,16.8,5.1
		c9.8-5.1,10.6-4.7,18,7.8c4.3,7.4,12.9,16,19.6,19.2c12.9,6.7,12.9,16,0,20c-10.6,3.5-9.4,8.2,3.5,12.9
		c15.3,5.1,27.4,28.6,21.1,40.7c-2.3,5.1-4.7,12.5-5.5,16.8c-0.8,4.3-3.9,7.8-7.4,7.8c-8.6,0-27,22.7-27,32.9
		c0,10.2-8.6,14.1-18.8,8.6c-9-4.7-20.4,5.1-20.4,18c0,4.3-2.7,13.3-6.3,20.4c-5.9,11.7-5.9,13.3,0,19.6c4.3,4.7,6.3,14.1,6.3,29
		c0,12.1,1.6,22.3,3.1,22.3s3.1,7,3.5,15.7c0.4,8.6,3.9,20.7,7.4,27c9.8,16.8,5.1,31.7-10.6,31.7c-9.4,0-11.7,1.6-10.6,7
		c1.2,4.7,4.7,6.3,12.9,5.5c6.3-0.8,18.4,2.3,27,6.3c9,4.3,21.9,9.8,29,12.5c13.3,5.1,14.9,7.8,8.6,14.1c-2.7,2.7-1.6,6.3,3.9,11.4
		c4.3,3.9,7.8,9.4,7.8,12.5c0,2.7,2.7,5.1,5.9,5.1c3.5,0,7,2.7,8.6,5.9c1.2,3.5,5.1,5.9,8.6,5.5c3.5-0.8,10.6,0.4,15.3,2
		c7.4,2.3,8.6,5.1,7,12.1c-2,7.8-0.4,9.8,14.5,14.5l16.4,5.1l2,24.7c1.6,17.6,3.9,26.2,9,29.7c12.5,9.4,27,34.4,22.7,38.8
		c-5.9,5.9-5.5,52.5,0.4,54.4c2.7,1.2,5.1,6.3,5.1,11.4c0.8,14.1,5.1,19.2,16,19.2c9,0,9.4,1.2,9.4,21.5c0,21.9,2.3,25.4,11,16.8
		c3.9-3.9,6.7-3.1,12.9,3.5c8.2,8.2,18,7.4,39.1-2.7c3.1-1.6,9-1.2,12.9,0.8c8.6,4.7,36.8-3.1,44.2-12.5c2.7-3.1,5.1-17.6,5.1-32.1
		s2-27.4,3.9-28.6c7.4-4.7,3.9-9.8-6.7-9.8c-9.4,0-12.5-3.1-21.1-20.7c-5.9-11-12.5-25.1-14.9-30.9c-2.3-6.3-11.4-18.8-20-28.2
		c-8.6-9.4-15.7-20.7-15.7-25.4c0-4.3-1.6-8.2-3.9-8.2c-2,0-9.8-5.5-17.6-12.1c-11.4-9.8-13.7-14.9-13.7-27c0-11.7-2-15.7-7.8-17.6
		c-4.7-1.6-10.6-0.4-13.7,2c-8.2,6.7-17.6,2-17.6-9c0-5.1-3.5-12.5-7.8-16.4c-5.9-5.1-7.8-12.1-7.8-25.8c0-10.2,2-20,3.9-21.1
		c2.3-1.2,3.9-6.7,3.9-11.7s-1.6-10.6-3.9-11.7c-7.8-4.7-4.3-20.4,5.9-24.7c9.4-4.3,9.8-5.9,9.8-39.1s-0.4-34.8-9.8-39.1
		c-8.2-3.9-9.8-7-9.8-22.7c0-26.6,14.1-44.6,35.2-44.6c8.2,0,16.4-1.6,17.6-3.9c1.2-2,9-3.9,17.2-3.9c12.1,0,15.7-2,19.2-9.8
		c2.7-5.5,4.7-14.1,4.7-19.2c0-15.7,15.3-25.8,39.5-25.8c20,0,21.9,0.8,29,12.5c7,12.1,7.4,12.1,11,3.9c4.7-10.6,7.4-10.6,16.8-0.4
		c10.6,11.7,35.2,23.5,56,26.6c16,2.3,18.4,3.5,20.4,14.1c2,9.4,2.7,10.6,5.1,5.1c4.3-9.4,11.4-9,20,0.8c3.9,4.3,9.4,7.8,12.1,7.8
		c3.1,0,7.4,3.1,9.8,7c3.1,5.1,8.6,6.3,24.7,5.5c14.9-1.2,21.9,0.4,25.4,4.7c3.1,3.9,8.6,5.1,15.7,3.9c6.7-1.6,16,0.4,23.9,4.3
		c15.3,7.8,18,5.9,11.7-9.4c-6.3-15.3-2.7-23.9,9.8-23.9c5.5,0,9.8-1.6,9.8-3.1c0-5.5,27-16.4,29.4-12.5c3.5,5.9,34.1,4.3,42.3-1.6
		c14.1-11,7.4-14.1-30.5-14.1c-27,0-37.2-1.2-37.2-4.7c0-3.5-1.2-3.5-3.5,0.4c-5.9,9.4-16-2.3-16-18.8l-0.4-14.1l-5.9,11
		c-5.9,11-6.3,11-13.7,4.3c-5.5-4.7-7.4-11.7-7.4-25.8v-18.8h-22.3c-15.3,0-24.3,2-29.4,6.7c-6.3,5.5-9.4,5.9-18.8,2.3
		c-7-2.7-12.5-2.7-14.1-0.8c-3.5,6.3-50.9,4.3-56.4-2.3c-3.5-4.3-12.9-5.9-33.7-5.9c-26.2,0-29-0.8-29-7.8c0-5.9-2.7-7.8-11-7.8
		c-14.9,0-24.3-11-24.3-28.6c0-12.9,1.2-14.5,9.8-14.5c6.3,0,9.8-2.3,9.8-5.9c0-3.1-1.6-5.9-3.9-5.9c-2.3,0-3.9-10.2-3.9-22.7
		c0-18.8,1.6-24.3,9-31.3c11.7-11,14.5-11,24.7,2.3c7,8.2,9.8,9.4,13.7,5.9c3.9-3.9,3.9-7,0.4-14.9c-2.7-5.5-4.7-15.3-4.7-21.5
		c0-7.8-2-11.7-5.9-11.7c-4.7,0-5.9-7-5.9-38.4c0-36-0.8-39.1-9.8-47.8l-9.8-9.4l-13.7,13.3c-8.6,8.6-13.7,16.8-13.7,23.5
		c0,10.6-17.6,31.3-26.6,31.3c-2.7,0-6.7,4.3-8.6,9.8c-5.1,12.9-18,12.9-43.1-0.4c-21.9-11.4-27.4-18.8-27.4-36.8
		c0-6.7-4.7-20-10.2-29.4c-13.7-23.5-20.4-66.2-16.8-105.7c6.7-71.6,7.8-76.3,16.8-76.3c4.7,0,9.8-3.5,12.1-8.6
		c2.3-4.7,8.2-9.8,13.7-11.4c9-2.3,8.6-2.7-2.7-3.1c-9-0.4-14.5,2-17.6,7.4c-3.1,5.1-9.4,7.8-16.8,7.8c-16.8,0-23.1-5.1-20.4-16.4
		c3.1-12.1-5.5-25.1-14.5-21.5c-3.9,1.6-6.3,7-6.3,14.5c0,6.3-0.8,11.7-2,11.7c-5.9,0-34.1-20.7-36-26.6c-1.6-3.5-6.3-9.8-11-13.3
		l-7.8-7l9-2.3c10.6-3.1,11.4-13.3,0.8-16c-5.5-1.6-7.8-5.5-7.8-13.3c0-9.4-1.6-11.4-9.4-11.4c-5.1,0-10.2,2-11,4.7
		c-1.2,3.5-5.9,3.5-19.6-0.4c-21.9-6.3-26.6-3.9-26.6,12.1c0,7-2,18.4-4.7,25.4c-4.3,11.4-6.3,12.9-19.6,12.9
		c-8.2,0-18.4-2.3-22.7-4.7c-5.5-3.5-10.6-3.9-18.4-0.8c-11.7,4.3-17.6,2.3-38.8-12.9c-9.4-6.7-13.3-7.8-16.8-3.9
		c-3.9,3.5-6.7,2.3-12.9-6.3c-4.3-6.3-17.6-15.7-29-20.7c-11.7-5.5-21.1-11.4-21.1-13.3c0-2.3-8.2-3.9-18.4-3.9
		c-23.5-0.4-32.9-5.5-46.2-25.4c-9-12.5-9.8-16.4-5.9-22.7c3.5-6.3,3.5-7-2.7-5.9c-3.9,0.8-8.6,6.7-11,14.1
		c-3.1,11-5.5,12.5-16.4,12.5c-12.1,0-12.5,0.4-13.7,18.8c-1.2,17.6-1.6,18.4-13.7,19.6c-9.4,0.8-13.7,4.3-18.8,14.9
		c-6.7,14.5-13.7,16.8-21.5,7.4c-2.7-3.1-10.2-5.9-16.4-5.9s-18.4-3.5-27-8.2c-13.3-6.7-16.8-7-21.9-2.7c-5.1,3.9-6.7,3.9-7.8,0.4
		c-2.7-7.8-40.3-6.7-40.3,0.8c0,3.1,2,5.9,3.9,5.9c2.3,0,3.9,5.5,3.9,12.1c0,11.7-0.4,11.7-16,11c-11.7-1.2-16.8,0.4-19.6,5.5
		c-2.3,3.5-7.4,6.7-11.4,6.7c-4.3,0-7.8,2-7.8,3.9c0,2.3-4.3,3.9-9.8,3.9c-11,0-11.7,1.2-5.1,11.4c3.9,6.3,2.7,9-7,17.6
		c-9,7.8-9.8,9.8-4.3,10.2c8.6,0,9,12.9,0.4,20c-5.5,4.7-5.5,5.5,0.4,9.8c3.5,2.7,5.9,7,5.5,10.2c-2.7,21.1,2,28.2,25.1,36.8
		c3.5,1.2,6.7,4.7,6.7,7.4c0,3.1,3.5,6.7,7.8,7.8c11,3.5,21.5,24.3,15.7,31.3c-3.1,3.9-3.1,5.9,0.4,8.2c2.7,1.6,5.9,0.8,6.7-1.6
		c2-6.3,13.7-5.9,19.6,0c6.3,6.3,6.3,27.4,0,33.7c-2.7,2.7-8.2,4.7-12.9,4.7c-4.3,0-10.2,3.5-12.9,8.2c-4.7,7-4.3,8.2,2.7,10.2
		c9.8,2.3,9.8,1.2,2,16c-6.7,13.7-21.9,17.2-27.8,7c-1.6-3.1-10.2-6.3-18.8-7c-13.3-1.2-15.7-2.3-15.3-9.8c0.4-10.6-2-11.4-8.2-2.3
		c-5.9,7.8-17.6,4.3-20.4-6.7c-1.2-4.3-2.7-7.8-3.5-7.8c-3.9,0-19.6,10.2-22.3,14.9c-11,16.8-22.3-11.4-22.3-55.2
		c0-25.8-1.6-37.2-5.9-41.9c-5.1-5.5-4.3-7.4,7.8-19.2l13.7-12.9v-38.4c0-21.5,1.6-39.9,3.9-41.1c7.8-5.1,3.5-13.3-9.8-18
		c-13.3-5.1-17.6-12.5-9.8-17.2c2.3-1.2,3.9-5.9,3.9-10.2c0-3.9,3.1-9.4,7.4-11.7c11.7-7.4,5.9-19.2-9.8-19.2
		c-12.9,0-12.9,0-14.1-20.4c-1.2-23.1-9.8-30.5-11.7-10.2c-0.8,7.8-3.1,12.5-5.9,11.7c-2.7-0.4-5.1,1.6-5.1,4.3
		c0,8.6-18,14.5-44.6,14.5c-20.4,0-25.4-1.2-27.4-6.7c-1.2-3.9-4.3-10.2-7-14.1c-4.3-5.9-3.9-7.8,2.3-12.5
		c7.4-5.9,5.5-13.7-3.9-13.7c-3.9,0-5.5,4.7-5.5,17.6c0,16.8-0.4,17.6-11,17.6c-6.3,0-14.5-3.5-18.4-7.8
		c-9.4-10.2-17.6-9.8-17.6,0.8c0,7.8-0.4,7.8-7,2c-3.9-3.9-12.9-6.7-19.6-6.7c-7,0-16.8-3.9-23.9-10.2
		c-11.4-9.4-12.1-11.7-12.1-38.4c0-22.7-1.6-29.7-7-34.8c-7.4-7-24.3-9-24.3-3.5s11.7,27.8,16,30.1c4.3,2.7,4.7,17.6,0.4,24.7
		c-2,2.7-9,6.3-15.7,8.6c-12.1,3.1-12.9,2.7-18.4-10.6c-3.1-7.4-5.9-18-5.9-23.5c0-5.1-4.3-13.7-9.8-19.2
		c-5.5-5.5-9.8-12.1-9.8-15.3c0-3.1-5.1-5.9-12.9-6.7c-12.1-1.2-12.5-2-12.1-18c0.4-17.2-3.9-21.9-7.4-8.2
		c-4.3,16-12.5,5.5-13.7-17.2c-0.8-17.6,0-22.3,4.7-22.3c4.7,0,4.7-1.6,1.2-9.8c-6.3-13.3-32.1-14.5-35.2-1.6
		c-1.2,4.3-5.9,9-10.2,10.2c-4.7,1.2-8.2,3.5-8.2,5.1c0,2-7.8,3.1-17.6,3.1c-11.4-0.4-17.6-2.3-17.6-5.5c0-7-9.8-9.4-42.7-9.4
		c-33.7,0-43.5-5.5-43.5-24.7c0-5.5-1.6-11.4-3.9-12.5c-2-1.2-3.9-10.2-3.9-20c0-13.3-1.6-17.2-6.3-17.2c-3.5,0-11-2.3-16.4-5.5
		c-28.6-14.5-43.8-19.6-65.4-21.5c-29.4-2.7-32.9-11-9.4-20.7c9-3.9,14.9-8.6,13.3-11c-1.6-2.7-4.7-2.7-9.8,0
		c-3.9,2-15.3,3.9-25.1,3.9s-18,2-18,3.9c0,2.3-3.9,3.9-9,3.9c-4.7,0-17.2,4.3-27.4,10.2c-12.5,6.3-21.5,9-27.4,7
		c-7-2-7.8-1.6-3.9,2.7c3.9,3.9,3.5,6.3-1.6,12.1c-5.9,6.7-5.9,7.4,0.8,14.9c5.5,6.3,5.9,7.8,1.6,9c-3.1,0.8-11.7,3.5-19.6,6.3
		c-18.8,5.9-18,6.3-25.4-9.4c-4.3-9.4-5.5-18.8-3.9-30.1c3.1-22.7,3.1-27,0-39.5c-2-7.8-0.4-12.9,4.3-18.4c6.7-7.4,6.7-7.8-1.2-7.8
		c-11.4,0-28.6,8.2-25.8,12.1c1.2,2-7.4,3.5-18.8,3.5c-11.7,0-23.5,2.3-26.2,5.1c-4.3,3.9-5.5,3.9-7,0c-3.9-11-12.9-5.1-12.9,8.6
		c0,11.4-1.6,13.7-8.2,13.7c-7,0-7.8,1.6-5.5,10.6c2,9,1.6,9.8-3.5,5.5c-4.3-3.9-7.8-3.9-14.5,0c-7.8,3.9-10.2,3.1-18.8-6.7
		c-5.9-7-10.2-9.4-11.4-6.3c-0.8,2.3-7.8,4.7-15.7,4.7c-7.4,0-17.2,2.7-21.1,6.7c-6.3,5.9-7.8,5.9-13.7,0
		c-3.9-3.1-13.3-6.7-20.7-7.4c-16.8-1.6-18-8.6-2-10.2c6.7-0.8,13.3-3.1,15.3-5.1c5.1-4.7-10.6-19.2-20.4-19.2
		c-7,0-16.4-7-16.4-12.5c0-1.6,3.5-3.1,7.8-3.1c5.1,0,10.2-4.7,14.1-12.9c5.1-11,8.2-12.9,19.6-12.9c9,0,16.8-3.1,24.3-10.6
		c5.9-5.9,12.5-10.6,14.1-10.6c5.9,0,14.1-11.4,14.1-19.2c0-7,2.3-8.2,16-8.2c8.6,0,14.9-1.6,13.7-3.5c-1.2-2,1.2-4.3,5.9-5.5
		c6.7-2,7.4-4.3,5.1-16.4c-2-10.2-1.2-13.7,2.3-12.9c2.7,0.8,8.2-4.7,12.5-12.1c7.4-12.9,7.4-13.3-0.4-21.5
		c-10.2-11-10.6-21.9-0.4-34.8c4.3-5.5,7.8-12.5,7.8-15.7c0-3.1,2.7-7.8,5.9-10.6c3.1-2.7,5.9-7.4,5.9-10.2
		c0-5.9,21.1-18.4,25.1-14.5c1.2,1.6,2.3,0.4,2.3-2s-2-5.5-3.9-6.7c-2-1.2-3.9-11.7-3.9-23.1c0-13.7-2-22.7-5.9-25.8
		c-7.4-6.3-7.4-15.3,0-18c3.1-1.6,5.9-6.7,5.9-11.4c0-5.1,2-10.6,3.9-11.7c2.3-1.2,3.5-9,3.5-16.8c-0.4-10.6-1.2-12.1-2.3-4.7
		c-1.2,5.5-3.5,11.4-5.5,13.7c-2,2-3.5,6.3-3.5,9.8c-0.4,3.1-3.9,10.2-7.8,15.3c-11.7,13.7-19.6,5.1-19.6-21.5
		c0-11.4-1.6-21.9-3.9-23.1c-2-1.2-3.9-5.9-3.9-9.8s-2.3-7.8-4.7-9c-3.5-1.2-3.1-3.9,2.3-10.2c7.4-8.2,7.4-8.2-2-8.2
		c-11.7,0-19.2-6.7-19.2-17.6c0-4.3-3.5-12.1-7.8-17.6c-4.3-5.5-7.8-12.1-7.8-15.3c0-2.7-4.3-8.6-9.8-12.9s-9.8-9.8-9.8-12.5
		c0-7-24.7-29.8-32.1-29.8c-3.5,0-7.8,2-9,3.9c-1.2,2-7,3.9-12.9,3.9c-5.9,0-17.6,4.3-26.2,9.8c-10.6,6.3-21.5,9.4-34.1,9.8
		c-16.4,0-18.8,1.2-26.2,13.7c-5.5,9.4-11,13.7-17.2,13.7c-5.1,0-12.5,2.7-16.8,5.9c-3.9,3.1-15.7,5.9-25.8,5.9s-19.6,1.6-20.7,3.9
		c-1.2,2-7.4,3.9-13.3,3.9c-6.3,0-14.5,3.9-20,9.8c-5.1,5.5-12.1,9.8-15.3,9.8c-11.4,0-41.5,12.1-44.6,18c-1.6,3.1-7,5.5-11.7,5.5
		s-12.1,2.7-16,5.9c-4.3,3.1-14.1,5.9-21.9,5.9c-9,0-16,2.7-20.7,7.8c-4.7,5.5-9.4,7.4-15.7,5.9c-6.7-2-11,0.4-18,9.8
		c-4.7,6.7-7.8,14.9-6.7,18c3.1,7.8-7,11-17.2,5.5c-7-3.9-11-3.5-18.8,0.4c-7.8,4.3-10.2,4.3-11.4,0.8c-1.2-2.7-8.2-5.1-15.7-5.1
		c-12.1,0-13.3-0.8-9-5.9c8.2-9.8-1.6-17.2-11-8.6c-3.9,3.5-11.7,6.7-16.8,6.7c-5.5,0-11.7,2-14.1,4.3c-3.1,3.1-5.5,2.3-8.6-3.5
		c-2.7-4.7-7-7-11.4-6.3c-9.4,2.7-27-16-21.5-22.7c7-9,8.6-21.9,2.7-24.3c-7-2.7-7-14.1,0-14.1c3.1,0,7,1.6,8.2,3.9
		c1.2,2,5.1,3.9,8.6,3.9c5.9,0,5.5-0.8,0-7c-3.9-3.9-6.7-9.8-6.7-12.9c0-3.1-2-7.8-4.7-10.6c-3.5-3.5-3.5-4.7,0-4.7
		c2.7,0,4.7-1.6,4.7-3.9c0-2-2.7-2.7-5.9-1.2c-3.5,1.2-9.8-1.2-14.1-5.1c-6.7-5.9-7.4-10.2-5.1-27.4c1.6-12.9,0.8-21.1-2-22.7
		c-2.3-1.6-4.3-10.2-4.3-19.6c0-12.5-2.3-18.8-9.8-25.8c-5.5-5.1-9.8-13.3-9.8-18.8c0-5.5-4.3-12.5-9.8-17.2
		c-5.5-4.3-9.8-11.7-9.8-16.4c0-11-16.4-41.1-27.4-51.3c-4.3-3.9-7.8-8.6-7.8-10.6c0-2-4.7-10.2-10.2-18.8
		c-8.6-13.3-12.5-15.3-26.2-16.4l-16.4-1.2l-1.2-18c-0.8-13.3-3.9-20.7-10.6-27c-11.7-11.4-13.7-31.3-2.7-31.3
		c3.9,0,11.7-2.3,17.6-5.1c13.3-5.9,14.5-26.2,2.7-38c-4.3-4.3-7.8-10.2-7.8-13.3c0-3.1-2-7-4.3-8.6c-2.3-1.2-3.1-5.9-2-10.6
		c3.5-14.1-2-30.5-11.7-34.4c-5.5-2-9.4-6.7-9.4-10.6c0-4.3-4.3-14.1-9.8-21.9c-14.9-22.3-13.3-27.4,8.2-24.7
		c15.7,1.6,18.4,0.8,20-5.5c1.2-4.7,5.5-7.4,11.4-7.4c4.7,0,17.2-5.5,27.8-12.5c19.6-13.3,29.7-14.5,55.2-6.3
		c12.5,3.9,14.1,3.1,28.6-11c8.2-8.2,15.3-16.8,15.3-19.6s6.3-8.2,13.7-12.9c13.3-7.8,17.6-17.2,9.8-21.9c-6.7-3.9-4.3-9.8,3.5-9.8
		c6.7,0,7-1.2,3.1-11.7c-3.1-8.6-7-11.7-14.1-11.7c-8.6,0-9-0.4-3.1-6.7c3.1-3.9,6.7-12.1,7.4-18.8c0.8-8.6,3.5-12.1,11-13.7
		c5.5-1.2,14.1-8.6,19.2-16.8c7.4-11.4,10.6-13.3,14.9-10.2c2.7,2.3,5.1,6.7,5.1,9.8c0,7,12.5,13.3,25.8,13.3c5.9,0,14.1,3.1,18,6.7
		c6.7,5.9,8.2,5.9,21.1,0c18-8.6,20.4-8.6,25.8,3.1c5.5,12.1,19.6,12.9,37.6,2c7-4.3,16-7.8,20.4-7.8c4.7,0,9.8-3.9,12.5-9.8
		c3.9-9,6.3-9.8,33.3-9.8c18,0,33.3-2.3,39.9-5.9c10.2-5.1,11.7-5.1,16,0c7,8.6,16.4,7,28.2-3.9c14.5-13.7,21.9-12.1,29.4,4.7
		c7,17.6,22.3,32.5,32.1,32.5c3.9,0,9.4,2.7,12.1,5.9c5.9,7,26.2,7.4,38.8,0.4c8.2-4.7,11-3.9,24.3,4.7c9.4,6.3,15.7,13.7,17.2,20.7
		c1.6,6.7,6.7,13.3,12.5,16c5.9,2.7,12.1,8.6,14.5,12.9c6.3,11.7,10.6,13.7,28.2,13.7c12.1,0,18,2.3,26.2,11
		c11.4,12.1,12.5,16.4,6.7,28.2c-2,4.3-5.5,11.4-7.8,15.7c-2,4.3-3.9,18-3.9,30.9c0,21.5,1.2,23.9,12.1,32.5
		c6.3,5.1,18.4,14.9,26.6,21.9c8.2,6.7,17.6,12.5,20.7,12.5c2.7,0,14.1,8.6,24.3,19.2c10.6,11,24.3,21.5,30.1,24.3
		c6.3,2.3,10.2,5.9,9,7.8c-1.2,2-0.4,3.5,1.2,3.5c2,0,5.1,3.9,7,8.6c3.5,8.6,6.7,9,56.8,11.4c56.8,2.7,71.6,5.1,78.7,13.7
		c2.3,3.1,11.4,5.5,19.6,5.5c8.2,0,16,1.6,17.2,3.9c1.2,2,5.5,3.9,9.4,3.9c8.6,0,23.9,15.7,23.9,24.7c0,3.5,2,7.4,4.3,8.6
		c2.3,1.6,3.5,13.3,3.1,27c-0.4,13.7,0.4,26.2,1.6,28.6c1.6,2.3,0,6.3-2.7,8.6c-4.7,4.3-4.7,7,1.6,20.4c7.8,18.4,21.9,27,42.7,27
		c10.6,0,17.2,2.7,23.9,9.8c11.4,12.1,16,12.1,27.4,0c6.3-6.7,13.3-9.8,22.3-9.8c10.2,0,12.9-1.6,12.9-7.8c0-9.8,0.4-9.8,17.6,0
		c17.2,9.8,17.6,9.8,17.6,0c0-5.9,3.5-8.6,11.7-10.6c8.2-1.6,11.4-4.3,11-8.6c-0.8-4.3,1.2-5.9,7-5.1c8.2,1.2,15.7-5.1,23.1-20.4
		c3.5-7,8.2-8.2,30.9-9.4c29.4-1.2,37.6,2.7,37.6,17.2c0,8.2,2,9.4,13.7,9.4c7.4,0,13.7,2,13.7,3.9c0,2.3,2.7,3.9,5.9,3.9
		c3.1,0,5.9-1.6,5.9-3.9c0-7,6.7-3.9,24.7,11.7c9.8,8.6,21.5,15.7,27,15.7c12.1,0,34.4,14.1,34.4,21.5c0,9.4,18,25.4,29,25.4
		c5.1,0,14.9-4.3,21.1-9.8c7-5.9,14.5-9,18-7.4c3.1,1.2,12.1-1.6,20-6.3l13.7-8.6l3.9,10.2c2,5.5,5.5,10.2,7.4,10.2
		c2.3,0,3.1-2.3,2-5.5s-0.4-9.4,2-13.7c3.1-5.1,3.1-8.6,0.4-10.2c-2.7-1.6,0-7.4,6.7-14.9c7.8-9,13.7-23.5,20.4-49.7
		c5.1-20.4,11.4-39.9,14.5-43.1c2.7-3.5,9-16,13.7-28.6c6.3-16,10.6-22.3,15.7-22.3c4.3,0,12.1-6.7,18.4-16
		c15.3-23.5,110.4-121,120.2-123.3c4.3-1.2,9.8-5.9,11.7-10.6c2.3-5.1,8.2-9,14.5-9.8c6.7-0.8,11.7-4.3,12.9-9.4
		c2-5.1,5.1-7,9.8-5.9c4.7,1.2,14.5-5.1,29.4-19.2c12.1-11.7,24.3-21.1,27-21.1c2.7,0,9-4.3,14.1-9.8c5.1-5.5,12.1-9.8,16-9.8
		c8.2,0,11.4-7.8,11.4-27.4c0-17.6,10.2-27.4,29.4-27.4c15.7,0,37.2-13.3,37.2-23.5c0-4.3,1.6-7.8,3.5-7.8
		c5.9,0,24.7-61.1,23.1-75.2c-1.2-11.4-2.7-12.9-13.7-14.1c-12.9-1.2-12.9-1.6-12.9-21.9c0-15.3-2-22.3-7-27
		c-9.8-8.6-12.5-8.2-12.5,1.6c0,6.3-1.6,7.4-6.7,5.1c-3.9-1.6-13.7-3.5-21.9-4.7c-7.8-0.8-15.7-3.1-16.8-5.1c-0.8-2-5.5-1.2-9.4,1.6
		c-6.3,3.5-9.4,3.5-15.7-0.4c-4.3-2.3-12.5-4.7-18-4.7c-5.5,0-18.8-3.1-29-6.7c-20.7-7.4-30.5-5.1-57.9,13.7
		c-11.4,7.4-17.6,9-32.5,7.8c-14.5-1.6-18.8-0.4-22.3,5.1c-3.9,5.9-6.3,6.3-16.4,2.3c-9-3.5-11.7-7-11.7-14.9
		c0-5.9-2.7-12.5-5.9-15.3c-10.2-8.6-6.7-18.8,9.8-29.4c8.6-5.5,17.2-9.8,19.2-9.8c1.6,0,13.3-4.3,25.4-9.8
		c15.7-7,24.7-13.7,30.1-23.5c6.3-10.6,11-13.7,19.2-13.7c6.3,0,12.5-2,13.7-3.9c1.2-2.3,7.4-3.9,13.7-3.9
		c15.3,0,23.5-3.5,23.5-10.6c0-19.2,23.1-39.1,36.8-31.7c4.7,2.7,10.2,2.7,16,0c10.6-4.7,13.7-2.7,13.7,9c0,5.5,3.9,10.2,10.2,13.3
		c9.4,3.9,10.2,6.3,7.8,19.2c-1.2,7.8-3.9,14.9-6.3,15.7c-5.9,2-4.7,14.9,2,20.4c3.5,2.7,5.9,11.4,5.9,20.4c0,12.1,1.6,16,7.4,17.6
		c3.9,1.2,9,5.5,11,10.2l3.9,8.6l4.7-9c3.5-7,7.8-8.6,21.5-8.6c10.6,0,18.8,2.3,21.9,5.9c2.7,3.1,7.4,5.9,10.2,5.9
		c3.1,0,5.5,2.3,5.5,5.1c0,3.1,4.3,7.4,9.8,9.8c7.8,3.9,9.8,7.4,9.8,20c0,12.5,2.3,17.2,13.7,27.4c9.8,8.6,18,12.1,27.4,12.1h13.7
		v34.4c0,41.5-5.9,53.6-22.3,47.4c-7.8-2.7-11-2.3-13.7,1.2c-4.7,7.8-3.5,33.7,2,37.2c6.3,3.9,14.5,19.2,14.5,26.6
		c0,7,20.4,12.9,22.7,6.3c2.3-7.4,23.1-16,38.8-16c14.1,0,15.7-1.2,20.4-14.9c16.4-46.2,51.3-42.7,51.3,5.5
		c0,25.4-1.6,29.4-14.5,36.4c-5.1,2.3-11.7,9.8-14.9,16c-7,13.3-24.3,23.5-40.3,23.5c-6.7,0-14.5,3.5-20,9.4
		c-4.7,4.7-15.3,11-23.1,13.3c-8.2,2.7-19.2,9-24.3,14.5c-6.3,6.7-13.3,9.8-22.7,9.8c-7.4,0-19.6,3.9-27,8.2l-13.3,8.2l9,4.7
		c6.3,3.1,9.4,8.6,10.2,17.2c1.2,10.6-0.4,13.3-9.8,16.8c-5.9,2.7-28.2,5.9-49.7,7.4c-31.3,2-39.1,3.9-42.3,9.4
		c-2.3,3.9-12.1,16.4-22.3,27.8c-25.1,29-43.5,55.2-43.5,62.6c0,3.1,2,9,4.3,12.9c3.5,5.5,2.7,10.6-3.9,23.5
		c-4.3,9-8.2,18.8-8.2,21.5c0,3.1-2.7,7.8-5.9,10.6c-3.1,2.7-5.9,9-5.9,14.5c0,5.5-2.7,10.2-7,11.4c-3.5,1.6-15.3,6.7-26.2,11.7
		c-10.6,5.1-24.3,10.2-30.1,11.4c-7.4,1.6-11,4.7-11,9.8c0,4.3-1.2,7.8-3.1,7.8c-5.5,0-13.3,32.1-9,36.4c2.3,2.3,4.3,8.6,4.3,14.1
		c0,5.5,4.7,14.5,10.6,20.7c8.6,9,9.4,11.7,5.1,16.8c-2.7,3.1-7.4,5.9-10.2,5.9c-3.1,0-5.5,1.6-5.5,3.5c0,2-1.2,6.3-2.3,9.8
		c-1.6,4.3-0.4,6.3,3.9,6.3c3.9,0,6.3,3.5,6.3,9.8c0,9.4,1.2,9.8,21.5,9.8c14.1,0,25.8,2.7,35.6,8.2l14.1,7.8l5.9-7.8
		c7.4-11,16-10.6,17.6,0.8c0.8,6.3,4.3,9,12.1,9.8c9,1.2,10.6,0,10.6-9c0-6.7-2.7-11-9-13.3c-11.7-4.7-20-14.5-14.5-18
		c2-1.2,3.9-9,3.9-17.2c0-8.6,2.3-17.2,5.9-20c3.1-2.7,5.9-7.8,5.9-11.7c0-8.2,8.6-16,13.7-12.5c5.5,3.9,18.8,23.5,27,39.5l7,12.9
		l11.7-11c15.7-15.3,23.1-29.7,18.4-37.2c-2-3.1-3.5-13.7-3.5-23.9c0-15.7,1.2-18.8,7.4-18.8c3.9,0,8.2-2.7,9.8-5.9
		c1.2-3.1,4.7-5.9,7.4-5.9c3.1,0,7.8-2.7,10.6-5.9c4.3-5.1,3.1-5.9-5.5-5.9c-5.5,0-10.2-1.2-10.2-2.3s6.3-9.4,13.7-18.4
		c7.4-8.6,13.7-17.2,13.7-19.2c0-1.6,2.3-3.1,5.1-3.1c6.3,0,22.3-16.4,22.3-22.7c0-2.3,4.7-7,10.6-10.2c9.4-4.7,12.1-4.7,23.5,0.8
		l12.9,6.3l18-17.6c9.8-9.4,20.4-21.9,23.5-27.8c3.5-7,9-11,14.5-11c5.5,0,11.4-4.3,15.7-11.4c3.5-6.3,13.3-14.1,21.9-17.2
		c8.2-3.5,16-9,17.2-12.1c1.6-3.5,5.1-6.3,7.8-6.3c3.1,0,7.8-2.7,10.6-5.9c2.7-3.5,11.4-5.9,20.4-5.9c11,0,15.7-2,17.6-6.7
		c1.2-3.9,6.7-11.7,11.7-17.6c5.5-5.5,9.4-11.7,9-13.3c-1.2-4.7,20-16.4,29.4-16.8c4.7-0.4,10.2-2.3,12.9-5.1
		c5.9-5.9,6.3-18.8,0.8-18.8c-2.3,0-3.9-14.1-3.9-34.8c0-24.3-1.6-36-5.5-39.1c-5.1-4.3-5.5-19.6-0.4-27.4c1.2-2.3,0.4-7.8-2-12.1
		c-3.5-6.3-3.1-8.6,1.6-10.2c5.1-2,5.1-3.1,0.8-7.8c-8.6-8.2-5.1-19.2,6.7-20.4c5.5-0.8,12.1-3.9,14.5-7c2.7-3.1,8.2-5.5,11.7-5.5
		c4.7,0,9.4-5.9,14.1-18c9.4-24.3,20-36.8,31.3-36.8c8.2,0,9.4-2,9.4-13.3c0-15.3,9.4-25.8,16.4-18.8c7,7,30.5,5.9,30.5-1.2
		c0-3.9-3.9-5.9-12.5-5.9c-15.7,0-27.4-10.2-22.7-19.2c2-3.5,4.3-11,5.9-16.8c1.6-7.8,4.3-11,11-11c4.7,0,11-1.6,14.1-3.5
		c3.1-2,9.4-1.2,15.7,2c8.6,4.7,11,4.7,14.1,0c3.1-3.9,6.7-4.3,13.7-1.2c17.2,6.7,47.8,3.1,58.3-6.3c6.7-5.9,9.8-7,11-3.5
		c3.1,7.8,12.5,5.5,28.6-7.8l14.9-12.5l-10.2-5.1c-10.6-5.9-11.7-5.5-18,7.4c-3.9,8.2-7.8,9-36.4,10.2c-19.2,0.8-32.9-0.4-34.4-3.1
		c-1.2-2-11.7-3.9-23.1-3.9c-21.5,0-29.7-4.7-29.7-16.4c0-11,11-30.5,17.2-30.5c14.5,0,24.7-34.8,13.3-46.2c-3.5-3.5-3.5-5.9,0-9.4
		c2.7-2.7,4.7-9,4.7-13.7c0-17.2,11-32.5,23.1-32.5c15.3,0,23.1,9.8,16.4,20.4c-3.5,5.5-3.9,9-0.8,12.1c5.9,5.9,9,1.2,10.2-16
		c1.2-18.8,4.3-24.3,13.3-24.3c3.9,0,9-4.3,11.4-9.8c7-14.9,16.4-12.5,16.4,3.9c0,9.4,2,13.7,5.9,13.7c3.1,0,5.9-3.5,5.9-7.8
		c0-7,2.7-7.8,27.4-7.8c22.3,0,27.4,1.2,27.4,6.3c0,3.5-3.5,7-7.8,8.2c-9,2.3-19.6,21.5-19.6,35.2c0,5.1-2.3,9-5.5,9
		c-5.5,0-25.8,27.8-25.8,35.2c0,8.6,8.6,3.1,12.1-7.8c6.3-16.8,16.8-18.4,43.1-5.5c20.4,9.4,23.1,12.1,23.1,22.3
		c0,10.2-1.2,11-8.6,8.6c-21.9-6.7-25.4-6.7-28.2,0.4c-2,5.1,1.6,11,11.4,20.7l14.1,14.1l8.6-10.2c7.8-9.4,22.3-19.2,27.8-19.2
		c1.2,0,2.3,14.1,2.3,31.3c0,29.4-0.4,31.3-8.2,31.3c-4.7,0-14.1,6.3-20.7,13.7c-7,7.4-13.7,13.7-15.3,13.7s-11.7,4.3-23.1,9.8
		c-11,5.5-25.1,9.8-31.3,9.8c-12.9,0-13.3,2.3-3.1,15.7c9,11.7,10.2,19.6,2.3,19.6c-6.3,0-12.1,13.3-8.2,19.6
		c3.5,5.5,27.8,4.7,32.5-0.8c2-2.7,4.7-9.4,5.5-14.5c2-14.1,9.8-14.5,16.4-0.8c7.4,14.5,7.8,16,0.8,16c-2.7,0-12.5,8.2-21.5,18.4
		c-23.9,27.4-26.2,29.7-37.2,37.6c-8.6,5.9-10.2,10.2-10.2,25.4c0,10.6-2,20.7-4.3,23.1c-2.7,2.7-0.8,6.7,7.4,12.5
		c14.9,10.2,16.4,10.2,16.4-0.4c0-4.7,3.1-11.7,6.7-16c3.9-3.9,10.6-14.5,14.9-23.5c5.9-11.7,14.1-19.6,27.8-27
		c23.1-12.9,25.1-13.3,25.1-2.7c0,8.6,3.1,8.6,20.7,1.6c5.1-2.3,6.7-0.8,6.7,7c0,7.4,2.3,10.2,11.4,11.7c6.3,1.2,16.4,6.7,22.3,12.1
		c10.6,9,11,9.8,3.5,12.1c-30.5,10.2-60.7,28.6-60.7,37.6c0,2,10.6,3.5,23.5,3.5h23.5v11.7c0,13.7,3.9,14.9,13.7,3.9
		c10.2-11.4,33.7-9.4,39.1,3.1c3.1,7.8,5.9,8.6,15.7,6.7c6.7-1.2,19.6-3.5,29.4-4.7c9.8-1.2,23.1-6.3,30.1-11.7
		c10.2-7.8,16.4-9.4,30.5-8.2c9.8,0.8,17.6,0.8,17.6,0c0-0.4-6.3-6.7-14.1-13.3c-11.7-10.2-12.9-12.9-8.2-17.6
		c4.3-4.7,8.2-3.9,24.7,3.5c28.2,13.7,52.5,29.7,52.5,35.6c0,2.7,7.4,10.6,16.8,17.6c9,6.7,21.5,16.4,27.4,21.1
		c9,7.4,16.8,9.4,43.1,10.6c17.6,0.4,34.4,3.1,37.2,5.1c6.7,5.5,6.3,26.6-0.8,26.6c-8.2,0-39.9,14.9-45.4,21.5
		c-2.7,3.1-9,5.9-14.1,5.9c-7.4,0-9.4,2-9.4,9.4c0,5.1-2.7,11.4-5.9,14.1s-5.9,11-5.9,18.4c0,10.6-2,14.1-8.2,15.7
		c-4.3,1.2-9.8,6.7-11.7,11.7c-3.1,8.2-5.9,9.4-15.3,8.2c-10.2-1.6-11.7-0.8-11.7,7.8c0,5.9,2.7,10.2,7.8,11.4
		c9.8,2.7,21.1,24.7,15.7,30.1c-5.1,5.1-5.1,18,0,18c2.3,0,3.9,7.8,3.9,17.6v17.6h17.2c25.4,0,27.8,5.1,29.4,56.8
		c0.4,4.3-0.8,15.7-2,25.4c-2,14.9-0.8,19.2,5.9,25.1c10.2,9.4,10.6,14.1,0.4,14.1c-9.4,0-9.4,1.2-2.3,21.5
		c6.3,17.6,11.4,19.2,13.3,3.9c2.3-17.2,12.1-16.4,28.6,1.6c14.5,15.7,15.3,17.6,15.3,42.3c0,23.1-0.8,25.4-5.5,18.8
		c-5.1-7-5.5-7-9.8,1.2c-2.3,4.3-4.3,12.5-4.3,18c0,5.5-1.6,10.2-3.9,10.2c-4.3,0-5.5,12.9-1.2,16.8c1.2,1.6,4.7,0.8,7.8-2
		c3.9-3.1,6.7-3.1,9.8,0c2.7,2.7,9.4,4.7,15.3,4.7s12.1,2,13.3,3.9c1.2,2.3,6.7,3.9,12.1,3.9c9,0,9.8,1.2,8.6,14.1
		c-1.2,14.5-3.1,16.4-24.3,24.7c-10.6,4.3-11,4.7-3.9,10.2c6.7,4.7,8.6,4.3,15.7-2.3c13.3-12.5,21.1-9.8,21.1,7.4
		c0,8.2,2.3,18.4,5.5,22.7c5.1,6.3,7,6.7,14.1,2.3c9.4-5.9,18.8-2,36.8,14.5c7.4,7,11.7,8.6,12.9,5.5c1.2-2.7,5.1-5.1,9.4-5.1
		c6.3,0,7.4,2.7,7.4,16c0,14.1,0.8,15.7,5.9,11.4c3.1-2.7,5.9-8.6,5.9-13.3s2-10.6,4.7-13.3c3.5-3.5,2.7-4.7-3.9-4.7
		c-7.4,0-8.6-2-8.6-16.8c0-16.4,0.4-17.2,19.6-26.2l20-9.4l22.3,11c12.1,6.3,27,12.5,32.9,14.5c9.4,2.7,11.4,1.6,13.3-6.7
		c2.7-10.2,9-12.1,16.4-4.7c3.5,3.5,4.7,2.7,4.7-3.9c0-5.9-4.7-11.7-13.7-16.8c-7.4-4.7-13.7-9.8-13.7-11.7s-3.9-3.5-8.6-3.5
		c-10.2,0-38.4-27.8-38.4-37.2c0-6.7,4.3-7.8,9.8-2.3c7.8,7.4,24.3,5.5,45.8-5.1c23.1-11.4,29.7-19.6,22.3-28.2
		c-2.7-3.5-2.7-7.4,0.4-13.3c3.5-6.3,3.5-9.8,0.4-12.9c-2.3-2.3-4.3-7.4-4.3-11.4c0-5.5,3.1-7,13.7-7c7.4,0,16.8-2,20.7-4.3
		c4.3-2.7,11.4-3.1,20-0.8c11.4,2.7,14.5,6.3,19.2,20c2.7,9,10.6,20.7,17.2,26.2l12.1,10.2l8.6-8.2c7.4-7,9.4-7.4,13.3-2.3
		c2.7,3.1,5.9,12.1,7,20.7c1.2,8.2,5.1,18,8.2,21.9c6.3,7,24.3,9.4,24.3,2.7c0-6.3,44.2-4.7,54,2.3c9.4,6.3,11.4,16.8,4.3,23.9
		c-3.1,3.1-3.1,5.1,0,6.7c2.3,1.6,4.3,6.3,4.3,10.6c0,12.5-30.1,10.2-50.1-3.9c-8.6-6.3-16.8-13.3-18.4-15.7
		c-5.1-8.6-26.6-4.7-35.6,6.3c-7.4,9.8-9.4,10.2-18.8,5.9c-9.4-4.3-10.6-3.9-14.1,5.1c-2.3,5.9-6.7,9.8-11.7,9.8
		c-5.1,0-7.8,2.7-7.8,7c0,3.9-5.1,12.1-11.7,18.4l-11.4,11l-4.7-10.6c-2.7-5.9-6.7-9.4-9-8.2s-7,3.1-10.6,4.3
		c-7,2.3-17.6,20-14.5,23.5c1.2,1.2,6.3-0.4,11-3.1c7-3.9,9.4-3.9,10.6,0c2.3,5.5,36.4,6.7,36.4,0.8c0-6.3,11-4.7,19.6,2.7
		c4.3,3.9,7.8,9.4,7.8,12.9c0,3.5,3.1,10.2,6.7,15.3l6.3,9.4l3.1-8.2c4.7-12.9,15.7-10.6,32.9,7c8.2,8.6,17.2,15.7,19.2,15.7
		c2.3,0,9.4,5.5,16.4,12.1c11.7,11.7,13.3,12.1,26.6,7.4c11.4-3.5,15.7-3.5,20.4,0c3.9,3.5,4.3,6.3,1.2,10.2c-3.1,3.5-2,5.9,3.5,9
		c4.3,2.3,11.4,10.2,16,18c4.3,7.4,10.6,13.7,13.3,13.7c3.1,0,7.8,2.7,10.6,5.9c2.7,3.1,9,5.9,14.1,5.9c6.7,0,11,3.1,13.3,9.8
		c4.3,11,13.7,12.9,17.2,3.9c3.5-9.8,14.9-6.7,30.1,8.2c16,15.7,27,15.7,27,0c0-7.4-3.9-11.4-17.2-17.6c-9.4-4.7-20-11.7-23.9-16
		c-7-7.8-7-8.2,1.6-17.2c8.2-9,8.2-9.4,1.2-11c-4.3-1.2-10.2-0.8-12.9,1.2c-12.5,7.8-42.7-1.2-42.7-12.5c0-9.4,7.8-14.5,25.4-16
		c11.7-0.8,16.4-3.5,19.6-9.8c2-5.1,5.9-9,8.6-9c2.3,0,5.9-2,7.4-4.3c1.6-3.1-0.4-3.5-6.3-1.6c-8.6,2.7-9,2-6.7-13.3
		c2.3-18-0.4-20-11-8.2c-9,9.8-17.6,3.9-17.6-11.4c0-5.9-2.3-12.9-4.7-15.3c-3.9-3.9-3.9-6.7,0-12.5c7.4-12.1,5.9-19.6-4.7-19.6
		c-7,0-10.6-3.5-15.7-17.6c-3.9-9.4-5.5-19.6-4.3-21.9c4.3-6.7,37.6-20,52.8-20.7c16.8-1.2,23.5-4.7,23.5-12.9
		c0-4.7,3.1-5.9,15.7-3.9c8.6,1.2,16.8,0.4,18-1.6s6.3-3.5,11.7-3.5c5.1,0,9.4-1.6,9.4-3.9c0-4.7,20.7-15.7,30.5-15.7
		c3.9,0,10.6-3.5,14.5-7.8c3.9-4.3,12.1-7.8,18-7.8c8.2,0,13.7-4.3,24.7-18.8c12.5-17.2,16-19.6,36.4-23.9
		c12.5-2.7,25.8-6.7,29.4-8.6c9.4-4.7,17.2-4.3,27,1.6c6.7,3.9,9,3.5,10.2,0c1.2-2.7,6.7-5.1,12.9-5.1c8.6,0,11.4-2,12.5-9
		c0.8-6.7,4.3-9,16.4-10.6c13.7-1.6,16-3.5,18.8-14.1c1.6-7,12.9-22.7,24.7-35.2c11.7-12.9,19.6-23.9,17.6-24.3
		c-6.3-2.3-15.7-22.7-15.7-34.1c0-7,2-9.8,7.8-9.8c4.3,0,7.8,2,7.8,3.9c0,2.3,11,3.9,25.4,3.9c14.1,0,29,2,33.3,3.9
		c4.3,2.3,11.4,5.5,15.3,7.4c10.2,5.5,31.7-3.1,31.7-12.1c0-5.1,3.1-7,12.1-7c34.4,0,57.2-19.2,46.6-39.1
		c-5.5-10.6-2.7-22.7,8.2-36.4c7-9.4,10.6-10.6,32.5-10.6c13.3,0,26.2,2,28.6,4.3c3.1,3.1,5.5,2,8.6-3.9c3.5-6.3,8.2-8.2,20.4-8.2
		c12.1,0,18-2.3,26.2-11.4c5.9-5.9,21.9-18.4,35.6-27.4l25.1-16.4l31.7,1.6c17.6,1.2,39.5,3.5,49.3,5.5c16.4,2.7,18,4.3,21.5,19.2
		c2.7,10.2,9,20.4,18.4,28.6c7.8,6.7,19.6,23.9,26.2,37.6c9.8,21.5,13.3,25.4,21.5,25.4c5.9,0,10.2,1.6,10.2,3.1c0,2,2.3,6.7,5.5,11
		c5.5,7,6.3,7,19.6-5.9c14.1-13.7,18-25.8,9.8-28.6c-2.7-0.8-0.4-7.4,5.9-16.4c5.5-8.2,10.2-16.8,10.2-18.4
		c0-4.7-13.7-11.4-23.5-11.4c-12.1,0-6.3-6.7,14.9-15.7c14.9-6.7,20-7.4,27-3.5c6.3,3.5,12.9,3.5,26.2,0c24.3-5.9,24.7-5.9,24.7,7.4
		c0,7.8-2.3,12.5-7.4,14.1c-10.6,3.1-20.7,20-15.7,26.2c2,2.3,4.7,9,5.9,14.5c1.6,9,1.6,9,2.3-1.6c0.4-11,0.8-11.4,6.3-3.9
		c7,9,7.8,45,1.2,51.7c-3.1,3.1-4.3,14.5-3.9,31.7c0.8,16.8-0.8,30.1-3.5,34.8c-4.3,7-3.1,10.2,9.8,25.8c10.2,12.5,17.6,18,24.3,18
		c6.7,0,9.4,2.3,9.4,7.8c0,11.4-11.7,16-23.5,9.4c-5.5-2.7-16.8-5.1-25.8-5.5c-13.3,0-16.8,1.6-20.4,9.8c-3.1,6.7-7.8,9.8-14.1,9.8
		c-6.3,0-12.5,3.9-16.8,10.2c-3.9,5.9-14.5,18.8-23.9,29c-14.1,16-20,19.6-40.3,23.9c-24.3,5.5-40.7,13.7-80.2,40.3
		c-39.5,27-44.6,32.9-44.6,53.2c0,14.1-2,20.4-9.4,27c-5.5,5.1-10.2,14.9-11.4,24.3c-2.3,17.6-10.2,26.6-41.1,45.4
		c-20.4,12.5-32.1,13.3-32.1,2.7c0-4.3-3.1-3.5-12.5,3.1c-7,5.1-13.3,9.4-14.1,9.4c-0.8,0.4,5.1,20,12.9,43.1
		c9,27,12.9,43.1,10.2,43.8c-5.9,2-5.5,22.3,0.4,39.5c6.3,18,5.9,18,12.1,12.5c4.3-3.5,10.2,0.8,28.6,20
		c12.5,13.3,25.4,24.3,28.2,24.7c3.1,0,8.6,5.9,12.1,13.3c6.7,12.1,6.7,14.5,1.2,28.6c-5.5,13.3-7,14.9-20.4,14.9
		c-7.8,0-17.6,2.3-21.5,5.5c-6.3,4.7-6.7,6.3-2.3,11.7c2.7,3.5,7.4,6.3,10.2,6.3s5.9,3.5,7,7.8c1.6,5.9-1.6,10.6-10.2,16.8
		c-7,5.1-23.1,16.8-36,25.8c-12.9,9.4-27.4,21.5-32.1,27c-7.4,9-9.8,9.4-17.6,5.5c-5.1-2.3-12.5-4.7-16.8-5.5
		c-4.3-0.8-9.4-5.1-11.7-9.8c-3.5-6.7-5.9-7.4-11.7-4.3c-12.1,6.3-17.6,15.3-17.6,29.4c0,15.7-10.2,21.9-31.7,20l-15.3-1.6v18
		c0,12.5,2.7,21.9,9.8,32.5c10.6,15.3,10.2,22.3-1.2,22.3c-11,0-25.8,11.7-20.7,16.8c7,7,5.1,33.7-3.5,44.6
		c-9.8,12.5-9.8,17.2,0.4,26.2c7,5.9,8.2,10.2,6.7,25.8c-2.3,24.3,0.8,30.1,12.1,22.7c4.7-2.7,9.4-8.2,10.6-11.7
		c1.2-3.9,10.2-12.1,20-18.8l18-12.1l9,8.6c13.7,12.9,15.3,27.8,5.1,53.6c-5.1,12.1-10.6,24.7-12.5,27.4c-2.7,3.5-1.2,4.7,6.3,4.7
		c11.7,0,14.5,5.9,14.5,33.7c0,18,1.2,21.1,7.4,21.1c10.2,0,50.1,47.8,55.6,66.9l4.7,15.7l10.2-9.8c10.2-9.8,10.6-9.8,22.3-2.7
		c6.7,3.9,15.3,14.1,18.8,22.3c12.1,25.8,29.4,32.5,43.5,17.2c9.8-11,12.5-9.8,17.6,5.9c3.5,11.4,6.3,13.7,14.9,13.7
		c5.9,0,17.6-4.7,26.2-9.8c9-5.9,21.5-9.8,30.1-9.8c7.8,0,15.7-1.6,16.8-3.9c1.2-2,10.2-3.9,19.6-3.9s18.4-1.6,19.6-3.9
		c6.3-9.8,10.6-2.7,9,13.7c-1.2,9.8-1.2,17.6,0.4,17.6c4.3,0,61.1-14.5,67.3-17.2c4.7-2,7.4,0.4,11,10.2c2.7,7,7.4,18,10.6,23.9
		c3.1,6.3,5.5,13.7,5.5,16.8c0,3.5,4.3,5.5,13.7,5.5c12.5,0,13.7,0.8,11.7,9c-3.1,12.5,6.3,20.4,17.2,14.9
		c4.3-2.3,12.9-4.3,19.6-4.3c9.4,0,12.1,1.6,12.1,7.4c0,3.9,3.5,8.2,7.8,9.4c6.3,1.6,7.8,4.7,7,14.9c-1.2,10.6,1.2,14.1,12.5,21.9
		l13.7,9.4l10.2-11.7c11.4-13.7,20.4-14.9,60.3-7.4c25.1,4.7,25.4,5.1,25.4,17.2c0,14.5,4.3,18.8,26.6,25.4
		c11.4,3.1,22.7,11.4,36.4,25.8c19.2,20.4,20,21.9,18,39.1c-1.2,12.9-5.1,21.1-14.9,30.9c-7,7.4-14.5,13.3-16,13.3
		c-2,0-10.2-4.3-18-9.8c-12.1-8.2-18.8-9.8-42.7-9.8c-34.4,0-51.3,5.1-44.2,13.7c2.7,3.1,7,5.9,10.2,5.9c6.3,0,29,33.3,29,42.7
		c0,3.9-2.7,12.5-6.3,19.6c-5.5,10.6-7,11.7-12.5,7.4c-5.1-4.3-5.9-4.3-3.9,0.8c1.2,3.1,6.3,18.8,11.4,34.4
		c5.1,15.7,11.4,28.2,14.1,28.2c3.1,0,5.1,4.7,5.1,11.7c0,6.7-1.6,11.7-3.9,11.7c-2,0-3.9-2.3-3.9-5.5c0-11.7-13.7-29.7-22.7-29.7
		c-5.1,0-14.1-2.7-20.4-5.9c-10.2-5.1-11.7-8.2-11.7-21.5c0-10.6,1.6-15.7,5.1-15.7c3.1,0,9-3.9,13.7-9l8.6-9l-11-32.9l-11-32.5
		l-5.1,12.1c-7.4,17.6-21.9,16.8-39.5-1.2c-20.7-21.1-34.4-18-54.4,12.9c-7.8,12.1-12.1,24.3-12.1,32.9c0,9-2.3,14.9-5.9,16.4
		c-3.1,1.2-7.8,7-10.6,12.9c-2.3,5.9-7.8,14.9-12.1,19.6c-6.3,7-7.4,12.9-5.9,35.2c1.2,14.5,3.1,29.8,4.7,33.3
		c2.3,5.1-0.4,9-11,15.3c-13.7,7.8-14.1,9-14.1,31.7c0,20-1.2,23.1-6.7,21.9c-3.9-0.8-9.4-9-13.3-19.6
		c-3.5-10.6-11.7-27.8-18.4-39.1c-11-20-12.1-20.7-48.1-33.3l-36.8-12.9l-12.9,14.5c-9.8,11.7-12.5,18-11.7,28.6
		c1.2,12.1,2.7,13.7,19.6,19.2c18.4,5.5,19.2,5.5,29-3.9l10.2-9.4l7.4,9.4c4.3,5.5,7.4,15.3,7.4,24.7c0,8.2,3.5,21.9,7.8,30.5
		c10.6,21.1,10.2,25.1-7.4,43.1c-14.9,15.3-25.1,19.6-29.7,11.7c-1.2-2-9.4-3.9-17.6-3.9s-16.4-2-17.6-3.9
		c-3.9-6.3-39.9-23.5-48.9-23.5c-5.1,0-9.8,4.3-13.7,14.1c-3.1,7.4-11,21.9-17.6,31.3l-11.7,17.6l9.8,3.5c7.4,2.7,9.8,6.7,9.8,15.7
		c0,14.9-12.1,47.4-23.1,60.7c-7.4,9.8-7.4,11.4-2.3,21.5c3.1,5.9,10.2,12.1,15.7,13.3c11,2.7,12.1,7.8,3.9,21.9
		c-3.1,5.5-5.5,20.4-5.9,34.4c0,23.1-0.4,24.3-9.8,24.3c-7.4,0-9.8,2-9.8,9c0,16.8-39.1,69.3-51.7,69.3c-3.9,0-7,2.3-7,5.1
		s-5.9,17.2-13.3,32.5c-7,15.3-14.5,33.7-16,41.1c-4.7,21.1-12.9,34.1-27.4,43.8c-11.4,7-13.7,11-13.7,22.7c0,10.6-3.1,16.8-13.7,27
		c-7.8,7.8-13.7,17.2-13.7,22.3c0,11.7-12.1,36-23.1,45.8c-4.7,4.3-8.2,9.4-8.2,11.7s-2,11-4.3,19.2c-3.1,11-7.4,16.4-17.6,21.1
		c-7.4,3.5-13.3,9-13.3,11.7s-5.1,7.4-11.4,11c-11.4,5.5-16.4,15.7-21.9,44.2c-1.6,7-5.1,14.1-8.2,15.3c-3.1,1.2-5.5,6.7-5.5,12.5
		c0,5.9-3.5,14.5-7.8,19.2c-4.3,4.7-7.8,13.3-7.8,19.6s-2.7,13.7-5.9,16.4c-3.1,2.3-6.7,8.6-8.2,12.9c-4.7,14.9-17.6,30.1-25.4,30.1
		c-3.9,0-7.4,2.7-7.4,5.9c0,3.1,3.1,5.9,7,5.9c16,0,20.4,11.7,20.4,53.6c0,29,1.2,39.9,5.1,41.5c6.7,2.3,14.5,29,14.5,49.3
		c0,8.6-3.5,25.1-7.8,36.4c-10.6,28.2-9.8,35.2,5.9,54c14.5,17.2,20.4,31.7,15.7,39.1c-1.6,2.3-4.3,16-5.9,30.1
		c-2.3,19.2-5.9,28.2-13.3,36c-6.7,7-9.4,12.9-7.8,18.8c2,6.3-0.4,9.4-10.6,14.5c-17.2,8.6-21.1,7.8-26.6-4.3l-4.7-10.2l-7.4,11.7
		c-3.9,6.7-12.1,14.5-18.4,17.6c-8.2,3.9-11.4,8.2-12.1,18c-1.2,11.7-2.3,12.5-16.8,12.5c-8.2,0-18.8-2-22.7-4.7
		c-3.9-2.3-10.2-3.1-13.7-2c-12.9,5.1-5.5,12.9,21.1,23.5c20.4,7.8,34.4,10.6,55.6,10.6c17.2,0.4,32.5,2.3,38.4,5.9
		c14.9,8.6,26.2,7,39.5-5.9c12.9-12.1,25.8-18,30.1-14.1c1.2,1.6,0.4,8.2-2.3,14.9c-3.1,9-3.5,13.7-0.4,17.6
		c5.1,5.9-2,16.8-10.6,16.8c-3.1,0-7.8,4.3-10.2,9.8C4179.4,9719.5,4172.8,9723.4,4172.8,9716.4z M2596,9333.6
		c-5.9-12.1-6.7-12.9-7.8-5.5c-1.6,8.6,5.1,20,11.4,20C2601.5,9348,2600,9341.8,2596,9333.6z M2261.4,9069.3c-1.2-2.7-2-0.8-2,4.7
		s0.8,7.4,2,5.1C2262.1,9076.4,2262.1,9071.7,2261.4,9069.3z M3421.2,8825.5c7-8.2,5.1-9-19.6-5.9c-20,2.3-20.7,5.1-2,9
		C3413.8,8831.7,3416.1,8831.3,3421.2,8825.5z M2726.4,6290.9c1.2-2,0.4-3.9-1.6-3.9c-2.3,0-4.3,2-4.3,3.9c0,2.3,0.8,3.9,1.6,3.9
		C2723.3,6294.8,2725.2,6293.2,2726.4,6290.9z M2695.1,6279.1c3.9-4.3,5.5-7.8,3.1-7.8c-2,0-7,3.5-11,7.8c-3.9,4.3-5.5,7.8-3.1,7.8
		C2686.1,6287,2691.2,6283.5,2695.1,6279.1z"/>
	<path d="M700.3,9411.9c5.9-8.6,7-14.9,4.7-29.7c-2.7-21.1-9-25.4-12.5-8.2c-1.2,6.3-3.9,11-6.7,10.6c-3.1-0.8-4.7,4.7-4.7,14.9
		c0,14.1-0.8,15.7-5.9,11.4c-4.7-3.9-7-3.9-11.7,0c-5.1,4.3-5.9,2.7-5.9-9.4c0-12.9-0.8-14.1-7.4-10.2c-13.7,7-17.6,4.3-8.2-6.3
		c8.2-8.2,8.6-10.6,3.9-13.3c-9-5.9-11.7-4.7-11.7,5.1c0,4.7-3.5,11-7.8,13.7c-6.7,4.3-7.8,3.9-7.8-3.1c0-4.7-2-6.7-5.1-5.5
		c-7,2.7-16-8.6-12.9-16c1.2-3.1,6.3-5.9,11.4-5.9s10.6-1.6,12.9-3.5c2-2,9.4-4.3,16.8-5.1c10.6-0.8,14.9-3.9,19.6-13.7
		c4.3-8.6,9-12.9,15.3-12.9c5.1,0,8.6-2.3,8.6-6.3c0-4.3-2-5.5-6.7-3.5c-3.9,1.6-14.9,3.9-24.7,4.7l-17.6,2l15.3-15.7
		c13.3-13.7,14.5-16.4,8.6-18.8c-4.3-1.6-9.8,0.4-15.7,5.9c-4.7,4.3-11.4,8.2-14.1,8.2c-3.1,0-14.9,4.7-26.2,11
		c-19.6,9.8-21.5,10.2-31.3,4.7c-18-10.2-14.1-17.2,10.6-19.6c17.6-1.6,22.3-3.5,25.4-10.6c2-5.1,5.1-9,6.7-9
		c4.7,0,3.5-14.9-1.2-17.6c-2.3-1.6-3.5-9.4-3.1-17.2c1.6-20-2-23.9-21.9-23.9c-9.4,0-18.4-2-19.6-3.9c-1.6-2.3-5.9-3.1-10.2-2
		c-10.2,3.5-18.8-14.5-11.4-23.5c2.7-3.1,7.8-5.9,11.4-5.9c3.9,0,12.5-6.3,20-13.7c7.4-7.8,17.2-13.7,22.3-13.7c8.2,0,9-2,9-18
		c0-22.3,18-48.5,33.7-48.5c6.7,0,9.4-2.3,9.4-7.4c0-4.3,5.9-11.4,14.9-16.4c20-12.9,20.4-12.9,20.4-5.5c0,4.7,2.3,5.9,7.8,3.9
		c3.9-1.2,12.9,0.4,20,3.9c10.2,5.5,14.1,5.9,21.5,2c4.7-2.7,11.7-3.9,15.3-2.3c3.5,1.2,13.7-1.2,22.3-5.5l16.4-7.8l13.3,8.2
		c11.4,6.3,15.7,7,25.4,3.5c8.2-2.7,13.3-2.7,16.8,0.4c6.3,5.1,13.3,1.6,13.3-6.7c0-3.1,0.4-5.5,1.2-5.5c5.5,0,42.7,20.7,44.2,25.1
		c1.2,3.5,7.8,4.3,23.1,3.1c20.7-1.6,20.7-1.6,22.3,9.4c0.8,7,4.3,12.9,10.2,15.3c5.1,2.3,8.6,7,8.6,12.9c0,4.7,2.3,12.1,4.7,16.4
		c3.9,6.3,3.9,9.4,0,15.7c-2.3,4.3-4.7,12.1-4.7,17.6c0,7.8-2,9.8-9.8,9.8c-5.5,0-9.8,1.6-9.8,3.1c0,6.7,5.1,8.2,12.1,4.3
		c6.3-3.1,7.4-2.3,7.4,3.9c0,4.3-1.6,9-3.9,10.2c-7.4,4.7-3.9,20.4,5.9,27c5.5,3.5,9.8,9,9.8,12.1c0,6.7-6.3,7.8-9.8,2
		c-4.3-7-17.6-4.3-17.6,3.5c0,4.3,2,9,3.9,10.2c2.3,1.2,3.9,7.8,3.9,14.1c0,6.7-1.6,11-3.9,9.4c-2-1.2-7.4-0.4-11.7,2
		c-5.9,3.1-7.8,3.1-7.8-1.2c0-7.8-22.3-27.4-27.4-24.3c-2.3,1.6-5.5,5.9-7,9.8c-2.7,7-3.9,6.7-22.3-2c-10.6-4.7-20-8.6-20.4-8.2
		c-0.8,0.4,0.8,6.7,2.7,14.1c2.7,9,2.3,14.9-0.4,18.4c-5.5,6.3-11.4,6.7-11.4,0.4c0-9.4-13.7-38.4-17.6-37.2
		c-6.7,2.3-6.7,16.8,0,22.3c8.2,6.7,7.4,24.7-1.2,32.5c-5.5,5.1-8.2,5.5-11.7,2c-3.5-3.5-5.9-3.5-9.4,0c-3.1,3.1-5.9,1.2-11-8.2
		c-3.9-7-9.8-12.9-13.3-13.7c-5.1-1.2-6.3,2-6.3,16c0,11-2.3,19.2-5.9,22.3c-7,5.9-6.7,6.3-18.8-14.9c-5.5-9.8-11-15.3-12.1-12.9
		c-5.5,8.2-24.3,4.7-29.7-5.5c-2.7-5.5-7.4-9.8-10.6-9.8c-5.9,0-6.7,6.3-1.2,9.8c2.3,1.2,3.9,11,3.9,21.9c0,17.6,0.8,19.2,9,19.2
		c11.4,0,21.9,18.8,13.7,23.9c-3.9,2.7-3.9,4.3,0,8.2c2.3,2.3,4.7,12.9,4.7,22.7c0,22.3-11.4,35.2-30.5,35.2h-12.9L700.3,9411.9z"/>
	<path d="M3481.1,9403.2c-7.8-24.3-6.7-33.7,4.7-38.8c5.5-2.3,9.8-6.3,9.8-8.6c0-5.1,38.8-24.7,44.6-22.3c5.9,2.3,7.4,52.5,2,66.2
		c-3.1,7.8-7.8,10.6-18.4,12.1c-7.8,1.2-19.6,3.5-26.2,4.7C3486.6,9418.9,3485.4,9418.1,3481.1,9403.2z"/>
	<path d="M2309.5,9211c-3.1-2-9-4.3-12.9-5.5c-3.9-1.2-6.7-5.5-6.3-9c0.8-3.9-0.8-11-3.5-15.3c-3.5-7-3.5-9.4,1.2-13.3
		c3.1-2.7,4.7-6.3,3.5-8.2s0.8-3.5,4.3-3.5s7.4,3.5,8.6,7.8c1.2,5.1,5.5,7.8,11,7.8c6.7,0,10.6,3.9,14.9,14.9
		c5.5,12.9,5.1,15.3-0.4,21.5C2323.2,9215.7,2318.5,9216.1,2309.5,9211z"/>
	<path d="M1319.9,8481.8c-2.3-5.9-5.9-15.3-7-20.4c-1.6-6.3-5.1-9.8-9.8-9.8c-8.2,0-10.2-11.4-3.1-18.4c3.1-3.1,2.3-7-2.3-14.5
		c-7.4-11.4-6.7-12.1,7.8-5.5c15.3,6.7,22.3,25.4,20.7,54.4C1325,8491.2,1324.6,8492,1319.9,8481.8z"/>
	<path d="M1181,8374.5c-2-2.7-6.7-5.1-11-5.1c-10.2,0-9.4-4.7,2.3-15.7c12.1-11.4,14.5-9,12.9,10.2
		C1184.5,8373.8,1182.9,8377.3,1181,8374.5z"/>
	<path d="M988.4,8361.6c-1.2-2-8.2-3.9-15.7-3.9c-8.6,0-14.9-2.3-17.2-6.7c-3.9-6.7-3.9-6.7-4.3,0c0,11-6.7,4.3-15.7-15.7
		c-8.2-18.4-10.6-40.3-4.3-40.3c2,0,5.5,5.5,8.2,11.7c5.1,12.5,15.7,16,15.7,5.5c0-9.4,9-4.3,15.3,7.8c2.7,6.3,8.2,11.7,11.7,12.9
		c6.3,1.6,16,18,16,27.4C998.2,8366.3,991.9,8367.1,988.4,8361.6z"/>
	<path d="M1064.7,8327.6c-3.1-8.2-5.1-17.2-4.3-20c0.4-3.9-2.3-3.5-11.7,1.2c-6.7,3.5-11,4.3-9.4,2s0-7.4-3.5-11
		c-3.9-4.7-4.7-8.6-2.3-12.5c7.4-11.4,4.3-17.6-3.9-8.6c-16.4,17.6-36.8,7.4-39.9-20c-1.2-11.7,0-16,5.5-18.8
		c10.2-5.5,8.6-11.4-2.7-11.4c-7.4,0-9.8-2-9.8-9c0-5.5-3.5-10.2-8.6-12.5c-5.5-2.3-9.4-8.2-10.2-14.9
		c-1.6-13.7-13.3-20.4-23.9-13.7c-4.3,2.7-9.4,3.5-11,2c-1.6-2-0.4-4.7,2.7-6.7c4.3-2.7,4.7-4.3,0-9.8c-4.3-5.1-3.9-7,2-11.4
		c6.3-4.3,8.2-4.3,12.9,0c6.7,7,10.6,7,16,0c3.5-3.9,2.7-6.3-2-10.2c-15.3-13.3-22.7-43.8-11.4-48.5c4.3-1.6,9,2.3,14.5,11.7
		c4.3,7.4,10.2,12.9,12.5,12.1c7.4-2.3,4.7-12.5-4.7-16.4c-11.4-5.1-9.4-15.3,3.1-16.8c13.3-2,19.6-7.8,16.8-15.7
		c-3.1-9.4-25.1-32.1-30.9-32.1c-2.3,0-5.5-3.5-6.7-7.8c-1.2-4.3-5.1-9-9.4-10.6c-12.1-4.7-16.4-14.1-16.8-35.2
		c0-18,0.8-20.7,7.8-20.7c5.9,0,7.8,2.7,7.8,9.8c0,13.3,5.5,12.1,12.1-2.7c7-16,14.5-18.4,16-4.7c1.6,12.9,11,17.6,11,5.9
		c0-9.4,1.6-9.8,12.1-4.3c5.1,2.7,7.4,2.7,7.4,0c0-2,3.5-3.9,7.8-3.9c4.7,0,7.8,2.7,7.8,6.3c0,5.5,1.2,5.5,5.9,1.6
		c7.4-6.3,7.4-11.7,0-11.7c-3.1,0-10.2-4.3-15.7-9.8c-12.1-12.1-13.7-41.9-3.1-53.6c5.9-6.7,5.9-7.4-0.8-14.9
		c-7.8-8.6-5.5-10.2,5.5-3.1c5.9,3.5,10.2,3.5,18.8-0.4c7.4-3.9,9-5.9,5.1-7c-15.7-4.7-23.5-11-23.5-19.2c0-5.5-3.1-9.8-7.4-11.4
		c-10.6-3.1-14.9-17.6-6.7-22.3c3.5-2,6.3-8.2,6.3-14.1c0-7-1.2-9-3.1-5.5c-2,2.7-6.3,3.9-9.8,2.3c-4.7-1.6-6.7-0.4-6.7,3.9
		c0,3.5-2.7,6.3-5.9,6.3s-9,2-12.9,4.3c-11.7,7.4-90.8-18.4-90.8-29.7c0-5.9,34.1-7,37.6-1.2c1.2,1.6,3.9,3.1,6.3,3.1
		c2.3,0,1.6-3.1-2-7c-3.9-3.9-6.7-11-6.7-15.7s-2-8.6-4.3-8.6c-3.1,0-3.1-2,0.4-5.9c3.9-4.7,3.1-6.3-4.3-9.4
		c-5.1-2-12.9-7-16.8-11.7c-5.9-6.3-8.6-7-12.9-3.5c-3.9,3.1-6.7,3.1-9.8,0c-5.9-5.9-31.7-5.9-37.6,0c-5.5,5.5-16.4-2.3-16.4-12.9
		c0-3.9-1.6-8.2-3.9-9.4c-7-4.3-3.9-9.8,5.5-9.8c6.7,0,9-2,8.6-6.7c-0.4-8.2,19.6-12.1,26.2-5.5c2.3,2.3,7.4,4.3,11.4,4.3
		c5.5,0,7-3.1,7-13.7c0-12.5,0.8-13.7,12.1-13.7c6.3,0,11-1.6,9.4-3.5c-1.2-2.3,2.7-8.2,8.6-13.7c8.2-7.4,15.3-10.2,27-10.2
		c16,0,16.4,0,12.1-9.8c-4.3-8.6-7-9.8-26.6-9.8c-16,0-23.9,2-30.1,7.8c-5.5,5.1-13.7,7.8-24.3,7.8c-14.9,0-16-0.8-13.7-8.6
		c2.3-7.4,2-8.2-2.3-3.9c-9,8.2-17.2,5.5-21.1-7.8c-3.5-10.6-6.7-12.9-23.9-17.2c-11.4-2.7-27-9.4-34.8-14.9
		c-8.6-5.9-20.4-10.2-27.8-10.2s-13.3-1.6-13.3-3.9c0-2,3.5-3.9,7.8-3.9c5.9,0,7.8-2.7,7.8-9.8c0-9.4,1.2-10.2,16.8-9.4
		c10.6,0.8,20.4,4.3,27.8,10.2c7,5.9,13.7,8.2,17.6,6.7c3.5-1.2,11.7-4.7,18-7c6.7-2.3,14.9-8.2,18.8-12.9
		c14.5-18,41.9-6.7,41.9,16.8c0,7.4,1.6,7.8,22.7,6.3c25.8-2,38.8-8.6,42.3-22.3c2.7-11,13.7-12.9,21.1-3.9c7,8.6,14.9,7,31.7-6.3
		c10.6-8.2,18.4-11.4,25.8-10.6c13.3,1.6,14.9,12.5,2.3,14.1c-9.4,1.6-11.7,6.3-4.7,10.6c2,1.6,7,0,11-3.5
		c3.9-3.5,10.6-6.3,14.9-6.3c4.7,0,9-2.7,10.6-5.9c1.6-4.3,8.2-5.9,25.8-5.9c12.9,0,27-1.6,31.3-3.9c4.3-2,11.4-5.5,15.7-7.8
		c3.9-2,12.9-2.7,19.6-1.6c7,1.6,14.1,0.4,17.6-2.3c5.1-4.3,7.8-3.5,16.8,5.1c6.3,5.9,13.7,10.6,16.8,10.6c9,0,24.7,18,21.5,25.4
		c-3.1,8.6-13.7,11.7-22.3,6.7c-7.8-5.1-25.1,1.6-36.8,14.9c-6.3,7-6.7,7.8-0.4,7.8c3.5,0,9.8-2,13.7-4.7
		c10.2-6.3,21.1,2.7,18.8,15.3c-1.6,8.2-0.4,9,13.3,9c8.6,0,15.3,2,15.3,3.9c0,2.3,3.1,3.9,6.7,3.9c7.8,0,28.6,18.8,28.6,26.2
		c0,3.1,2.7,9.4,6.3,14.9c3.5,5.5,5.5,15.7,4.7,25.8c-1.2,14.1-3.1,18.4-14.5,25.8c-7.4,5.1-18,9-23.5,9c-5.9,0-12.5,2-14.9,4.3
		c-3.1,3.1-6.7,3.1-12.5,0c-20.4-10.6-23.1-11.4-25.4-9.4c-5.5,5.9-1.2,15.7,11.4,24.7c11.7,8.6,13.3,12.1,13.7,26.2
		c0,9.4-3.5,22.7-7.8,30.1c-4.3,8.2-5.9,14.9-3.9,16c5.1,3.1,5.1,75.2,0,78.3c-2,1.2-3.9,5.9-3.9,10.2s-2.7,7.4-6.7,7.4
		c-13.7,0.4-20.7,9.8-20.7,28.2c0,9.4,2.3,19.6,4.7,21.9c3.9,3.9,3.9,6.7,0,12.5c-5.9,9.8-5.9,24.3-0.4,36.8c3.5,7,3.1,11,0,14.9
		c-2.3,2.7-12.9,16.4-23.1,30.5c-18,25.1-18.8,25.4-39.9,27.8c-11.7,1.2-18.4,2.3-14.5,2.7c3.5,0.4,10.6,2.7,15.7,5.5
		c4.7,2.3,11.4,5.5,14.5,7c10.2,4.7,8.6,13.7-2.7,18.4l-11,4.3l9.8,0.4c5.9,0.4,12.1-1.6,14.9-4.3c3.5-3.5,5.9-3.5,9.4,0
		c2.7,2.7,9.8,4.7,15.7,4.7c7,0,11,2,11,5.9c0,3.5,3.9,7.4,9,9.4c4.7,2,12.1,7,16.4,11.7c6.3,7.4,6.7,9.8,2.7,16.4
		c-5.1,7.8-3.5,15.3,3.5,15.3c2,0,9,4.7,15.7,10.6c15.7,14.1,14.9,29.7-2,31.7c-6.3,0.8-14.5,5.1-18,9.8c-5.9,7-11.7,8.6-45.8,9.8
		c-25.1,1.2-42.3,0-47.8-2.7c-4.7-2.7-8.2-3.1-8.2-0.8c0,2,2.3,4.7,5.1,5.5c3.5,1.6,3.5,3.1-0.8,5.9c-3.9,3.1-2,5.1,8.6,9
		c7.8,2.7,14.9,8.2,15.7,12.1c1.6,4.7,5.5,7,13.3,7c7.4,0,14.9,3.5,20.7,9.8c5.1,5.5,13.3,9.8,18,9.8c5.9,0,11,3.9,14.9,12.1
		c7.4,15.3,6.3,16.8-15.7,26.6c-14.5,6.7-19.2,7-27.4,3.5c-8.6-3.9-11-3.5-15.7,2.7c-4.7,6.3-17.2,12.5-40.7,20
		C1072.2,8342,1068.6,8337.7,1064.7,8327.6z M961,7633.5c-6.7-7.4-17.6-10.6-17.6-5.5c0,4.3,13.3,12.9,19.2,13.3
		C966.9,7641.4,966.5,7639.4,961,7633.5z"/>
	<path d="M946.1,8277.1c-8.6-4.7-11-8.2-9.8-16.4c0.8-7.4,3.1-10.2,7.8-9.4c4.7,0.8,6.3-0.8,4.7-4.7c-1.2-3.1-0.4-6.7,2-8.2
		c2.3-1.2,4.3-5.9,4.3-10.2c0-3.9,1.6-7.4,3.9-7.4c5.1,0,15.7,21.1,15.7,32.5c0,4.7,2,11,4.3,13.3c2.7,2.7,3.5,7.8,2,11.4
		c-2.3,6.3-3.1,6.3-9,0.4c-5.5-5.5-7-5.5-10.6-0.8C957.9,8282.2,955.5,8282.2,946.1,8277.1z"/>
	<path d="M2556.1,8183.5c-2.7-3.1-7.4-5.9-10.2-5.9c-3.1,0-5.5-2.7-5.5-5.9c0-3.5,3.5-5.9,9.8-5.9c7.8,0,9.8-2,9.8-10.6v-10.6
		l11.7,11.4c14.9,14.1,14.9,19.6,0.4,27C2562,8188.6,2560.4,8188.6,2556.1,8183.5z"/>
	<path d="M2537.3,8137.7c-2.7-2.7-4.7-8.6-4.7-13.7c0-5.9-3.5-10.6-9.8-13.7c-13.3-5.9-12.1-11,2.3-11c8.6,0,12.5-2,14.1-7.8
		c1.2-4.3,3.5-7.8,5.5-7.8s5.5,3.5,8.2,7.8c3.5,5.1,9.4,7.8,17.6,7.8s12.9,2,12.9,5.1c0,3.1,4.3,9.4,9.8,14.5
		c12.5,11.7,12.1,13.7-2,19.6c-10.2,4.3-12.9,3.5-23.9-3.9c-9.8-7.4-12.9-7.8-15.7-3.5c-2,3.1-3.5,6.7-3.5,8.6
		C2548.3,8144,2542.8,8143.2,2537.3,8137.7z"/>
	<path d="M752.3,8085.3c-4.7-3.1-10.2-5.1-12.1-3.5c-2.3,1.2-9.8-2.7-16.8-9s-17.6-12.9-23.5-14.9c-14.9-4.7-14.9-9.8,0-20
		c12.1-7.8,12.5-8.6,3.9-9.8c-6.3-0.8-9.4-4.3-10.2-11.7c-0.8-5.5-4.3-11.4-7.8-12.9c-7-2.7-32.1,9.4-32.1,15.3
		c0,2.3-4.7,9-10.6,14.9c-13.7,14.5-31.3,14.9-36.4,1.2c-2-5.5-6.7-9.8-10.6-9.8c-5.1,0-5.5-1.2-2-4.7c7.4-7.4,5.5-24.7-4.3-33.7
		c-5.1-4.7-11-8.6-13.3-8.6s-5.9-2.3-8.2-5.1c-5.5-6.3,2-34.1,9.8-36.8c2.7-1.2,5.1-5.5,5.1-9.4c0-7.8,5.9-10.2,9.8-3.5
		c3.1,4.7,25.4,5.1,25.4,0.4c0-5.5-9-10.6-28.2-16c-10.2-2.7-22.3-9-27-14.1c-5.5-5.9-13.3-9.4-20-9.4c-6.3,0-10.6-1.6-9.4-3.5
		c5.9-9-2.7-16-19.2-16c-23.9,0-40.3-17.6-21.1-22.3c7.4-2,7.4-2.7-4.3-14.9c-11.7-12.1-11.7-12.5-4.3-19.2
		c4.7-4.3,8.2-5.5,10.2-2.7c1.2,2.3,4.3,4.3,6.7,4.3c2.7,0,2.7-1.6,0-4.7c-4.7-6.3-5.5-38.4-0.8-38.4c2,0,7.8,1.6,13.3,3.9
		c9,3.1,10.2,2.7,10.2-4.3c0-6.3,1.6-7.4,7-5.5c14.1,5.9,20.7,6.7,25.4,2.7c2.3-2,19.2-3.9,37.2-3.9c25.1,0,32.1,1.2,32.1,5.5
		c0,3.9,4.7,5.5,15.3,5.5c8.6,0,16.8,2,18,3.9c3.5,5.5,61.8,5.1,67.3-0.4c7.8-7.8,24.7,0,46.6,21.5c17.6,17.6,21.1,23.1,21.1,34.8
		c0,7.8,2,15.3,3.9,16.4c2.3,1.2,3.9,7.4,3.9,13.7c0,6.3,2,12.5,3.9,13.7c2.3,1.2,3.9,8.6,3.9,16c0,18,30.1,55.2,46.2,57.2
		c8.2,0.8,11,3.9,12.9,12.9c2,9,2.7,9.8,3.1,3.1c0.8-14.9,12.1-11,12.1,3.9c0,16.4-6.3,23.5-16.4,18c-4.7-2.7-7-2.3-7,0.8
		c0,2.3,3.5,5.1,7.8,6.3c9.4,2.3,10.6,19.6,2,30.9c-3.1,3.9-5.9,12.1-5.9,18.4c0,9-1.6,10.6-12.1,10.6c-12.5,0-23.1,7.4-23.1,16.8
		c0,2.7-4.7,9.4-10.2,14.9c-9.4,8.6-10.2,9-14.9,2.7c-6.3-8.6-21.1-9-31.3-1.2C763.7,8093.1,763.3,8093.1,752.3,8085.3z
		 M591.1,7868.4c0-2-3.5-3.9-7.8-3.9s-7.8,2-7.8,3.9c0,2.3,3.5,3.9,7.8,3.9S591.1,7870.7,591.1,7868.4z"/>
	<path d="M1877,8071.9c-1.2-2-7.4-3.9-13.7-3.9s-12.5-1.6-13.7-3.9c-1.2-2-5.5-3.9-9.4-3.9c-8.2,0-26.6-18.8-28.6-29.4
		c-1.2-7-4.7-7.8-32.5-9c-32.5-1.2-41.1-4.7-41.1-17.2c0-8.2,11-26.6,16-26.6c1.6,0,3.5,5.9,4.3,12.9l1.2,12.5l25.4,1.2
		c14.1,0.8,27,2.7,29.4,5.1c6.7,6.7,31.7,3.9,39.1-4.3c8.2-9,13.7-10.2,13.7-2.7c0,3.1,4.3,9.4,9.8,14.5c11.7,11,13.7,31.3,3.1,31.3
		c-5.1,0-4.3,2.3,3.9,11c5.9,5.9,10.6,12.1,10.6,13.7C1894.6,8077.4,1879.7,8076.3,1877,8071.9z"/>
	<path d="M928.5,7929.9c-15.7-16.4-7-28.6,14.1-20c12.9,5.9,16.4,15.7,7.8,24.3C943.4,7941.2,937.9,7940,928.5,7929.9z"/>
	<path d="M1926.7,7895c-6.7-6.7-5.9-9.8,3.5-12.1c10.6-2.7,5.9-10.6-6.7-10.6c-6.7,0-9.4-2-9.4-7.8c0-4.3-2.7-7.8-5.9-7.8
		c-6.7,0-7.8,6.3-2,9.8c2.3,1.2,3.9,5.1,3.9,8.2c0,8.6-14.5,6.7-16.8-2.3c-1.2-4.3-5.5-7.8-9.8-7.8c-11.7,0-15.7-7.8-15.3-31.3
		c0-26.2,3.5-31.3,21.9-31.3c9,0,12.1-1.2,9-3.5c-7-4.3,2-11.4,19.2-14.9c12.1-2.3,12.9-2,8.2,3.9c-5.9,7-3.1,14.5,5.1,14.5
		c7.4,0,14.9,14.1,11.7,23.5c-1.6,4.7,1.6,11.7,9.8,21.1c10.6,11.7,11.7,14.9,7.8,22.3c-3.5,5.9-3.5,9.4-0.4,12.5
		c2.3,2.3,4.3,7.4,4.3,11.4c0,5.9-3.1,7-16.8,7C1938.8,7899.7,1929.4,7897.8,1926.7,7895z"/>
	<path d="M1812.4,7846.9c0-3.1-1.6-5.9-3.9-5.9c-2,0-3.9-7-3.9-15.7c0-14.1,1.2-15.7,9.8-15.7c5.5,0,9.8-1.6,9.8-3.9
		c0-2,7.8-3.9,17.6-3.9h17.6v19.6c0,12.5-1.6,19.6-4.7,19.6c-2.3,0-7.8,2.7-11.7,6.3c-5.5,5.1-8.2,5.5-12.5,2
		c-3.9-3.1-6.3-3.5-8.2-0.4C1818.6,7854.7,1812.4,7853.5,1812.4,7846.9z"/>
	<path d="M891.7,7843c-1.2-1.2-1.2-6.7,0-11.7c1.2-7.4,4.3-9.8,12.5-9.8c14.1,0,22.3,9.4,15.7,17.6
		C915.2,7844.5,896,7847.3,891.7,7843z"/>
	<path d="M1857,7774.1c-1.2-2.3,2.3-9.4,8.6-15.7c12.9-13.3,32.9-16,32.9-4.3C1898.5,7769.8,1864.8,7786.2,1857,7774.1z"/>
	<path d="M1906.3,7767.4c0-6.3,2.7-13.7,5.9-16.4c5.1-4.3,7-3.9,11.7,2.3c7.4,10.2,7.4,15.7-0.8,18.8c-3.9,1.2-9.4,3.5-11.7,4.7
		C1907.9,7778.4,1906.3,7775.2,1906.3,7767.4z"/>
	<path d="M1550.9,6585.3c-4.7-1.6-14.9-7.8-22.3-13.7l-14.1-11.4l1.6-34.4c0.8-19.2,3.1-37.2,5.5-39.9c2.3-2.7,5.1-9.4,6.3-14.9
		c1.6-5.5,7.8-12.9,14.5-16.4c11-6.3,11.7-6.3,11.7,0.4c0,3.9,1.2,8.2,2.7,9.8c4.7,4.3,12.9,31.3,12.9,41.9c0,5.5,4.3,14.1,9.8,19.2
		c8.2,7.8,9.8,12.9,9.8,31.3c0,12.1-2,23.9-4.7,26.6C1579.5,6588.8,1565.8,6589.2,1550.9,6585.3z"/>
	<path d="M1536.4,6435.7c-6.3-3.9-14.5-7.4-18-7.4c-3.5-0.4-8.6-3.1-11.4-6.3c-2.7-3.5-11.4-5.9-20-5.9c-8.2,0-16-2-17.2-3.9
		c-2-3.1-4.3-2.7-8.2,0.4c-3.1,2.3-6.3,3.9-6.7,3.1c-8.2-12.5-11-24.7-9-37.6c1.6-8.2,3.9-23.1,4.7-33.3c2-16.8,3.1-18.8,12.5-18.8
		c9.4,0,9.4-0.4,3.5-7c-3.9-3.9-6.7-12.1-6.7-18c0-7.4-2.3-11.4-7.8-12.9c-9-2.3-9.8-5.5-3.5-11.7c3.1-3.1,2.7-6.7-1.2-12.5
		c-3.9-6.7-3.9-9.8,0-16c2.3-4.3,4.7-11.4,4.7-15.3c0-9.8,5.1-12.9,26.2-16c16.4-2.7,16.8-2.3,16.8,7.8c0,5.9,0.8,11.4,2,12.5
		c2.3,2.3,27.4-5.5,31.7-9.8c5.5-5.5,16.8-2.7,21.1,4.7c2,4.3,3.9,19.2,3.9,33.3s2,26.6,3.9,27.8c2.3,1.2,3.9,12.5,3.9,25.4
		c0,16.4,1.6,23.1,5.9,25.1c9.4,3.5,16.4,21.5,10.2,25.4c-3.9,2.7-3.9,5.1-0.8,11.4c5.9,11,5.5,16.4-1.6,16.4
		c-3.5,0-5.9,3.5-5.9,9.4c0,5.1-3.5,13.7-7.8,19.2c-4.3,5.5-7.8,11.7-7.8,14.1C1554,6445.1,1550.1,6444.3,1536.4,6435.7z"/>
	<path d="M1018.5,6388c-2.7-2.7-4.7-7-4.7-9.8c0-3.5-6.3-5.1-19.6-5.1c-14.9,0-19.6-1.6-19.6-5.9c0-3.9,3.9-5.9,12.9-5.9
		c10.2,0,15.7-3.1,24.7-13.7c12.5-15.3,28.6-18.4,31.7-6.7c0.8,3.9,5.5,8.6,9.8,10.6c13.7,6.3,13.3,13.7-0.4,13.7
		c-8.2,0-12.9,2.3-14.5,7C1033,6390.7,1026.4,6395.8,1018.5,6388z"/>
	<path d="M1098,6388.8c-3.9-6.3,5.5-19.6,13.7-19.6c3.9,0,8.6-1.6,9.8-3.9c1.2-2,5.9-3.9,10.2-3.9c5.5,0,7.4,2.7,7.4,11.7
		c0,9.8-1.6,11.7-9.4,11.7c-5.5,0-11,2-12.1,3.9C1114.4,6393.8,1101.1,6393.8,1098,6388.8z"/>
	<path d="M872.9,6332c0-3.5-3.5-5.9-9.8-5.9c-8.2,0-9.8-2-9.8-11.7c0-6.3,0.4-11.7,1.2-11.7c11.4,0.8,31.7,12.9,36.4,21.5
		c7,14.1,7.4,13.7-6.3,13.7C876.8,6337.9,872.9,6335.9,872.9,6332z"/>
	<path d="M2664.5,6171.1c-15.3-8.2-11.4-14.9,9.4-16.4c9.4-0.8,20.7-4.3,25.1-8.2c4.3-3.9,17.6-13.3,30.1-21.1
		c20.7-13.3,34.8-27.4,44.6-43.8c2.3-4.7,6.3-6.3,10.6-4.7c10.2,3.9,8.2,23.1-2.7,33.7c-5.5,5.1-10.2,12.9-11,17.6
		c-0.8,4.3-4.3,8.6-8.2,9.4c-4.3,0.8-13.7,5.9-21.1,11c-7.8,5.1-18.4,9.4-23.5,9.4c-5.5,0-14.9,4.3-21.5,9.8
		C2682.9,6178.9,2679.4,6179.3,2664.5,6171.1z"/>
</g>
</svg>
