<?xml version="1.0" encoding="utf-8"?>
<!-- Generator: Adobe Illustrator 24.1.1, SVG Export Plug-In . SVG Version: 6.00 Build 0)  -->
<svg version="1.1" id="Layer_1" xmlns="http://www.w3.org/2000/svg" xmlns:xlink="http://www.w3.org/1999/xlink" x="0px" y="0px"
	 viewBox="0 0 200 800" style="enable-background:new 0 0 200 800;" xml:space="preserve">
<style type="text/css">
	.st0{fill:#315106;stroke:#315106;stroke-width:2;stroke-miterlimit:10;}
	.st1{fill:#537222;stroke:#537222;stroke-width:2;stroke-miterlimit:10;}
	.st2{fill:#799B38;}
	.st3{fill:#206048;}
</style>
<g>
	<g>
		<path class="st0" d="M110.37,229.84H58.86c0,0,6.97-62.31,6.94-83.16c-0.03-20.09-6.94-80.04-6.94-80.04h51.52
			c0,0-6.89,59.41-6.94,79.32C103.38,167,110.37,229.84,110.37,229.84z"/>
		<path class="st0" d="M110.37,401.3H58.86c0,0,6.97-62.31,6.94-83.16c-0.03-20.09-6.94-80.04-6.94-80.04h51.52
			c0,0-6.89,59.41-6.94,79.32C103.38,338.46,110.37,401.3,110.37,401.3z"/>
		<path class="st0" d="M110.37,572.77H58.86c0,0,6.97-62.31,6.94-83.16c-0.03-20.09-6.94-80.04-6.94-80.04h51.52
			c0,0-6.89,59.41-6.94,79.32C103.38,509.93,110.37,572.77,110.37,572.77z"/>
		<path class="st0" d="M110.37,744.23H58.86c0,0,6.97-62.31,6.94-83.16c-0.03-20.09-6.94-80.04-6.94-80.04h51.52
			c0,0-6.89,59.41-6.94,79.32C103.38,681.39,110.37,744.23,110.37,744.23z"/>
		<path class="st1" d="M109.84,238.11H59.39c-2.23,0-4.04-1.81-4.04-4.04v-0.19c0-2.23,1.81-4.04,4.04-4.04h50.45
			c2.23,0,4.04,1.81,4.04,4.04v0.19C113.87,236.3,112.07,238.11,109.84,238.11z"/>
		<path class="st1" d="M109.84,409.57H59.39c-2.23,0-4.04-1.81-4.04-4.04v-0.19c0-2.23,1.81-4.04,4.04-4.04h50.45
			c2.23,0,4.04,1.81,4.04,4.04v0.19C113.87,407.76,112.07,409.57,109.84,409.57z"/>
		<path class="st1" d="M109.84,581.04H59.39c-2.23,0-4.04-1.81-4.04-4.04v-0.19c0-2.23,1.81-4.04,4.04-4.04h50.45
			c2.23,0,4.04,1.81,4.04,4.04V577C113.87,579.23,112.07,581.04,109.84,581.04z"/>
		<path class="st1" d="M109.84,752.5H59.39c-2.23,0-4.04-1.81-4.04-4.04v-0.19c0-2.23,1.81-4.04,4.04-4.04h50.45
			c2.23,0,4.04,1.81,4.04,4.04v0.19C113.87,750.69,112.07,752.5,109.84,752.5z"/>
	</g>
	<g>
		<path class="st2" d="M123.65,121.98c28.96-10.02,66.35,0.6,66.35,0.6s-7.66,25.5-36.62,35.52s-68.25,0.76-68.25,0.76
			S94.69,132,123.65,121.98z"/>
		<path class="st2" d="M127.6,162.57c-3.25-1.3-6.42-2.06-9.44-2.46h-10.7c-8.26,1.07-13.78,4.2-13.78,4.2s15.09,20.82,33.22,28.05
			c18.13,7.23,32.44-1.87,32.44-1.87S145.73,169.8,127.6,162.57z"/>
	</g>
	<g>
		<path class="st2" d="M117.64,198.7c28.96-10.02,66.35,0.6,66.35,0.6s-7.66,25.5-36.62,35.52s-68.25,0.76-68.25,0.76
			S88.68,208.72,117.64,198.7z"/>
		<path class="st2" d="M121.59,239.29c-3.25-1.3-6.42-2.06-9.44-2.46h-10.7c-8.26,1.07-13.78,4.2-13.78,4.2s15.09,20.82,33.22,28.05
			c18.13,7.23,32.44-1.87,32.44-1.87S139.72,246.52,121.59,239.29z"/>
	</g>
</g>
<g>
	<path class="st3" d="M98.15,195.3c0,0,2.47-3.02,3.53-3.91c1.06-0.9,1.82-1.61,3.18-2.26c1.37-0.65,1.52-1.43,2.88-2.3
		c1.36-0.86,2.86-1.56,3.42-4.6s0.88-3.97,0.88-3.97s3.4-0.66,1.69-4.56c1.34-4.5,2.05-8.33,0.28-9.8
		c-1.77-1.47-5.19-1.24-10.05,1.42c-1.89-0.77-3.42,0.01-4.13,2.46c-3.47,1.27-3.2,1.61-4.06,1.85c-0.86,0.24-1.7,1.13-2.36,2.32
		c-0.66,1.19-1.6,3.21-1.6,3.21s-2.86,1.56-4.04,5.49s-1.52,6.03-2.72,6.32c-1.21,0.29-2.6,1.46-4.77-0.3
		c-2.18-1.76-4.49-2.29-4.49-2.29s-1.71-6.67-1.51-7.11c0.2-0.44,3.07-1.56,3.07-1.56s1.89-0.4,0.58-0.8
		c-1.31-0.4-3.35-0.59-1.73-1.34c1.63-0.74,1.9-1.79,1.31-2.59c-0.59-0.81-0.71-0.54-1.73,0.27c-1.01,0.81-1.46,1.99-1.46,1.99
		s-1.49-1.87-2.65-1.66c-1.16,0.21-2.1,0.63-2.1,0.63s-2.36-2.27-3.39-1.89c-1.03,0.38-2.12,0.19-1.7,1.13
		c0.42,0.94,1.08,1.36,1.61,1.6c0.53,0.25,1.95,1.33,1.95,1.33l0.19,0.73c0,0-3.53-0.68-4.06,0.25c-0.54,0.93-0.94,1.8-0.94,1.8
		s-0.84,0.89,0.97,0.45c1.81-0.44,3.14-1,3.74-0.93c0.61,0.07,2.6-0.08,1.96,1.98c-0.63,2.05-3.75,8.08-1.2,11.08
		c2.56,3,6.12,1.99,8,4.14c1.88,2.16,0.08,4.42-0.49,8.64c-0.57,4.22-2.31,5.65-3.24,7.89c-0.93,2.24-7.53,19.67,2.79,33.54
		c1.64,2.68,3.83,6.48,3.28,7.18c-0.54,0.71-7.18,7.88-7.4,13.86c-0.22,1.39,3.57,6.57,3.57,6.57s1.01,2.18,0.61,3.06
		c-2.01-1.89-3.02-2.47-3.79-2.19c-0.77,0.28-1.04,1.33-0.78,1.45s0.85,1.14,2.75,2.13C75.9,277,75.9,277,75.9,277
		s-2.87,0.91-4.1,0.55c-1.23-0.35-3.45,0.75-3.45,0.75s0.84-0.89,0.31,0.25c-0.53,1.14-0.77,1.67-0.77,1.67s1.94-0.27,2.98-0.43
		c1.04-0.16,3.9,0.1,4.78,0.51c0.88,0.41,0.9,1.27-0.01,2.56c-0.92,1.28-2.87,4.11-2.68,4.63c0.19,0.51,0.3,1.42,0.3,1.42
		l-0.37,0.79c0,0,1.27-0.9,2.25-1.41c0.98-0.5,1.29-0.47,2.34-2.97c1.05-2.5,2.25-4.61,4-4.01c1.75,0.6,0.52,3.02,0.52,3.02
		s0.74,1.84,1.18,2.05c0.44,0.2,0.44,0.2,0.44,0.2s-0.7,2.67,0.1,2.08c0.8-0.59,1.23-2.2,1.23-2.2s-0.18-1.9-0.53-3.45
		c-0.35-1.55-0.42-3.93-0.3-5.8c0.12-1.86-0.33-3.89-1.47-5.8c-1.14-1.92-3.52-5.05-2.64-6.03c0.88-0.98,5.99-4.16,6.53-6.25
		c2.02,2.33,4.01,5.17,4.14,6.72c0.13,1.56,0.28,2.16,1.25,4.21c0.97,2.05,4.49,7.1,4.19,20.63c-0.3,13.52-3.61,36.97,6.41,49.42
		c0,0,9.78,11.59,23.27,12.19c4.82,0.42,6.03,0.35,9.83,1.14c1.6,0,2.81-0.08,1.71-0.7c-1.1-0.62-2.42-1.23-2.77-1.39
		c-0.35-0.16-5.33-1.62-7.61-2.47c-2.28-0.84-13.33-2.34-19.63-12.21c-6.31-9.87-6.15-17.8-3.19-32.44
		c2.95-14.64,4.34-30.97-1.55-46.09c-1.85-4.06-4-9.33-4-9.33s0.91-0.12,2.04-2.79c1.14-2.67,2.25-4.4,2.25-4.4s3.78,4.74,7.04,5.3
		c0.02,2.04-0.13,2.82-0.58,3.79c-0.45,0.97,0.2,0.95,0.83,1.88c0.63,0.93,0.99,1.31,1.04,1.66c0.05,0.34,1.01,0.58,1,0.15
		c-0.01-0.43,0.26-1.48,0.22-2.78c-0.04-1.3-0.99-2.7-0.83-3.27c0.15-0.57,0.4-2.48,1.82-3c1.41-0.52,2.77,0.01,3.3,0.25
		c0.53,0.25,2.6,1.53,3.81,1.45c1.21-0.08,2.07-0.32,2.38-0.28c0.3,0.03,1.5-0.47,0.58-0.8c-0.92-0.32-1.7-0.47-1.7-0.47
		s-1.05-1.88-2.3-1.71c-1.25,0.17-4.97-1.03-4.99-1.89c-0.03-0.86,0.23-1.18,1.42-1.69c1.2-0.51,2.1-0.84,2.54-2.02
		c0.44-1.18,0.91-3.1,0.91-3.1s-0.89,0.55-1.25,0.38c-0.35-0.16-2.22-0.5-2.92,0.99c-0.69,1.49-1.83,2.56-2.3,2.88
		c-0.47,0.32-0.88-1.79-0.55-2.5c0.33-0.7,0.24-2.35,0.18-2.91c-0.06-0.56-1.04-1.44-1.23-0.79c-0.2,0.65-1.56,1.52-0.92,2.45
		c0.63,0.93,0.77,2.71-0.37,2.18c-1.14-0.53-2.87-3.25-3.45-4.06c-0.59-0.81-3.32-3.89-5.78-2.04c-2.46,1.84-5.58,4.67-6.78,6.56
		c-1.06-2.09-1.67-3.76-1.2-5.47c0.47-1.7,0.8-5.39-0.46-11.42c-0.53-1.85,0.1-8.49,0.8-11.16c0.09-2.73,1.64-6.07,1.64-6.07
		s1.28,2.09,2.77,4.38c1.5,2.29,2.59,1.09,3.34,0.16c0.75-0.93,3.91-2.45,5.03-1.19c1.12,1.27,2.72,1.26,2.85,1
		c0.12-0.26-0.07-1-0.07-1l0.78-0.06c0,0-1.27-0.48-1.97-0.81c-0.7-0.32-3.03-1.51-3.47-1.72c-0.44-0.2-0.49-1.93,1.4-2.34
		c1.89-0.4,2.46-1.63,2.63-1.98c0.16-0.35,1.39-1.38,1.39-1.38s-1.64,0.31-2.33,0.2c-0.7-0.11-2.85,0.39-3.08,1.35
		c-0.23,0.96-1.56,1.52-1.56,1.52s-1.65-0.12-1.63-1.08c0.01-0.95-0.67-3.4-1.33-4.03C98.87,196.49,98.15,195.3,98.15,195.3z"/>
</g>
<g>
</g>
<g>
</g>
<g>
</g>
<g>
</g>
<g>
</g>
<g>
</g>
<g>
</g>
<g>
</g>
<g>
</g>
<g>
</g>
<g>
</g>
<g>
</g>
<g>
</g>
<g>
</g>
<g>
</g>
</svg>
