<?xml version="1.0" encoding="utf-8"?>
<!-- Generator: Adobe Illustrator 24.2.3, SVG Export Plug-In . SVG Version: 6.00 Build 0)  -->
<svg version="1.1" xmlns="http://www.w3.org/2000/svg" xmlns:xlink="http://www.w3.org/1999/xlink" x="0px" y="0px"
	 viewBox="0 0 841.9 595.3" style="enable-background:new 0 0 841.9 595.3;" xml:space="preserve">
<style type="text/css">
	.st0{fill:#85C441;}
	.st1{fill:#CBDF7D;}
	.st2{fill:#8AD6F6;}
	.st3{fill:#B58643;}
	.st4{fill:#F9B75E;}
	.st5{fill:#F8B75E;}
	.st6{fill:#010101;}
	.st7{fill:#FFFFFF;}
</style>
<g id="Layer_3">
	<g>
		<path class="st0" d="M687.6,78.4c-29.1-19.6-65.4-46.7-100.2-42.5c-26.1,3.1-51.7,16.9-76.9,24.3c-32.3,9.5-60.3,12.8-92.6,3.2
			c-10.7-3.2-21.7-6.8-32.7-5.4c-14.7,1.8-26.9,11.8-40.6,17.3c-28.4,11.4-60.3,2.8-90.3-2.7c-19.8-3.6-41.7-5.5-58.8,5.2
			c-9,5.7-15.7,14.3-23.5,21.5c-10.4,9.5-22.9,16.7-31.8,27.7c-11.9,14.5-15.8,33.8-19.3,52.2c-2.2,11.2-4.3,22.7-1.9,33.8
			c2,9.4,7,17.7,10.5,26.6c6.6,16.6,7.8,35.4,3.3,52.7c-7.3,28.6-28.5,51.1-43.6,76.5s-23.5,59.8-5.2,82.9c15,19.1,42,23,66.3,23.9
			s50.6,1,69.9,15.8c15.4,11.8,23.9,31.4,40.7,41c10.1,5.8,22.1,7.3,33.6,8.6c16.4,1.9,33.2,3.8,49.2-0.1
			c14-3.4,26.6-11.1,40.5-14.9c52.1-14.4,103.7,27.1,157.8,27.2c15.4,0,30.6-3.3,45.8-5.4c27.2-3.7,55-3.2,81.7-9.2
			s53.6-19.7,66.6-43.9c20.9-38.9-0.8-86.3,1.3-130.4c2.2-44.7,29.3-85.2,32.1-129.9c1.9-30.8-8.5-62.1-28.3-85.7
			C720.8,124.9,687.6,109.9,687.6,78.4"/>
		<g>
			<path d="M688.2,77.3c-14.4-9.7-28.6-19.8-43.8-28c-14.2-7.7-29.7-14.1-45.9-15c-17.8-1-35.5,5.4-51.9,11.6
				c-18.3,6.9-36.4,13.9-55.5,18.1c-18.9,4.1-38.2,5.4-57.3,1.9c-18.3-3.3-36.5-13.2-55.4-7.8c-8,2.3-15.2,6.5-22.4,10.4
				c-8.1,4.4-16.3,7.9-25.4,9.7c-19.1,3.7-38.8,0.4-57.6-3.2c-16.8-3.2-33.9-7.4-51.2-6.2c-7.9,0.6-15.8,2.3-22.9,5.9
				c-7.6,3.8-13.7,9.8-19.5,15.8c-6.4,6.5-13,12.4-20.2,18c-6.7,5.2-13.5,10.4-19,16.8c-10.7,12.6-15.3,28.9-18.6,44.7
				c-1.9,9-3.9,18.2-4.6,27.4c-0.7,9.6,0.9,18.4,4.6,27.2c3.4,8.2,7.6,16,9.9,24.6c2.5,9.3,3.4,19.1,2.6,28.7
				c-2.8,36.5-30.3,62.7-47.4,93c-14.1,25-22.8,60.9-1.2,84.4c21.4,23.5,57.1,20.6,85.9,22.6c16.5,1.1,33.8,3.9,47.4,14
				c12.9,9.5,20.6,24.2,32.4,34.9c12.6,11.4,28.4,13.8,44.7,15.7c19.5,2.2,38.8,3.6,57.6-3.2c8.9-3.2,17.4-7.5,26.4-10.5
				c7.8-2.6,15.9-4.1,24.2-4.4c16.6-0.6,32.9,3.3,48.6,8.1c31.8,9.7,63.3,24,97.3,21.8c9.8-0.6,19.4-2.3,29.1-3.8
				c10.3-1.6,20.6-2.7,30.9-3.6c19.2-1.6,38.5-2.5,57.4-6.4c29.8-6.2,60.4-21.8,72.9-51.1c13.6-32.2,2.3-68.5-0.7-101.6
				c-1.7-18.3-0.3-36,4.3-53.8c4.5-17.2,11-33.8,16.5-50.7c5.4-16.5,10-33.4,10.7-50.8c0.7-17-2.2-34.2-8.5-50
				c-5.8-14.8-14.4-28.5-25.4-39.9c-10-10.3-21.6-18.8-31.5-29.1c-9.4-9.7-16.4-21.1-16.6-34.9c0-1.6-2.5-1.6-2.5,0
				c0.4,28.2,26.6,44.3,44.8,61.8c24.2,23.2,38,56.2,37.2,89.8c-0.8,35.3-17.6,67.4-26.6,100.9c-4.5,16.5-6.6,33.2-5.5,50.3
				c1.1,17.5,4.5,34.7,6.4,52.1c1.8,16.9,2.4,34.5-3.3,50.9c-5.3,15.3-16.1,27.8-29.5,36.7c-30.4,20.1-67.6,20.7-102.7,23.7
				c-9.7,0.8-19.4,2-29,3.5c-9.9,1.5-19.8,3.3-29.8,3.8c-16.9,0.9-33.4-2.3-49.6-7c-30.4-8.8-60.6-23.5-92.9-23.1
				c-7.5,0.1-15,1.1-22.2,3.1c-8.7,2.4-17,6.3-25.3,9.7c-9.3,3.8-18.8,6.5-28.9,7.2c-9.6,0.6-19.1-0.2-28.6-1.2
				c-17.8-1.9-35.6-3.7-49.2-16.6c-11-10.4-18.6-24.1-30.7-33.4c-25.8-19.9-60.6-13.6-90.7-17.8c-15-2.1-30.5-6.6-41.6-17.5
				c-11.2-11.1-15-26.7-13.7-42.1c3.1-34.4,27.3-59.8,44.4-87.9c8.6-14.2,15.3-29.5,16.8-46.1c0.8-8.6,0.3-17.4-1.5-25.8
				c-1.8-8.9-5.4-17-9.2-25.3c-4.1-9.1-6.9-17.9-6.5-28c0.4-9.5,2.5-19,4.4-28.3c3.5-17,8.3-34.4,20.5-47.3
				c5.8-6.1,12.6-11.1,19.2-16.2c6.8-5.3,12.9-11.2,19-17.3c6.3-6.4,13-12.5,21.5-15.8C211.5,72,220,71,228.3,71
				c18.1,0.1,35.9,5,53.6,8.1c16.9,2.9,34.5,4.7,51.4,1c8.4-1.9,16.1-5.4,23.7-9.4c7.7-4.1,15.4-8.7,24-10.7
				c9.8-2.3,19.6-0.3,29.1,2.4c9.2,2.6,18.3,5.3,27.9,6.7c17.9,2.5,36,1.1,53.6-2.7c18.6-4,36.1-10.7,53.8-17.4
				c16.6-6.3,34.5-13,52.5-12.2c17.2,0.8,33.5,8.1,48.2,16.3c14.1,7.9,27.4,17.3,40.8,26.4C688.3,80.4,689.5,78.2,688.2,77.3
				L688.2,77.3z"/>
		</g>
	</g>
	<g>
		<path class="st1" d="M303.4,101.4c-16.3,5.5-32.2-10.9-49.3-11.1c-6.8-0.1-13.3,2.4-19.6,4.8c-7.6,2.9-15.3,5.9-22.3,10.2
			c-7.7,4.8-14.4,11-21.1,17.2c-7.7,7.2-15.4,14.5-20.7,23.6c-9.9,17.2-9.6,38.3-6.9,58c2.7,19.7,7.5,39.4,5.4,59.1
			c-1.6,15.2-7.3,30-16.4,42.4c-5.9,8-13.1,14.9-18.3,23.3c-4.7,7.5-7.6,16-11.9,23.8c-4.2,7.6-9.5,14.5-13.6,22.1
			c-5.6,10.7-8.5,23.1-6.2,35c2.3,11.8,10.4,22.8,21.7,26.9c6.1,2.2,12.6,2.4,18.9,3.8c8.8,1.9,17.1,6.1,26,6.9
			c12.6,1.1,25.2-4.9,33.5-14.4c8.3-9.5,12.4-22.2,12.8-34.8c0.5-13.1-2.2-27.8,6.1-37.9c7.6-9.1,21.1-10.2,31.3-16.3
			c15.3-9.1,21.2-27.9,28.6-44.1c7.2-15.8,17.1-32.3,13.2-49.2c-2.6-11.5-11.3-20.6-16.6-31.1c-5.6-11.1-7.4-24.2-4-36.1
			c4.1-14.1,14.7-25.1,23.5-36.9c8.7-11.8,16.1-26.6,11.9-40.7C308.7,103.5,305,99.4,303.4,101.4"/>
	</g>
	<g>
		<path class="st2" d="M221.3,280c-5.1,0.8-9.1,8.1-15.2,9.2s-12.4,1.1-18,3.5c-7.5,3.2-12.8,10.4-15.1,18.2
			c-2.3,7.8-1.8,16.2-0.2,24.1c1.4,6.8,5,14.6,11.9,15.6c7.6,1.1,13.7-6.7,21.3-7.9c4.7-0.7,9.4,1.1,14.1,0.6
			c9-1,14.9-10.1,17.4-18.8c2.5-8.7,3-18.3,7.7-26c2.3-3.8,5.6-7.1,7.3-11.2c1.7-4.1,1.2-9.8-2.7-11.9c-2.3-1.3-5.1-1-7.7-0.7
			C234.9,275.4,228.6,278,221.3,280"/>
		<g>
			<path class="st2" d="M220.6,277.6c-3.6,0.6-6.3,3.4-8.9,5.6c-1.3,1.1-2.6,2.1-4.1,2.9c-1.7,0.8-3.9,1-5.9,1.2
				c-5,0.6-10.1,1.2-14.8,3.2c-3.9,1.7-7.3,4.4-10,7.7c-6.1,7.6-8.3,17.3-7.8,26.9c0.4,8.2,2,18.3,8.2,24.2c3,2.9,6.9,4.2,11,3.7
				c4.1-0.6,7.6-2.8,11.1-4.8c1.6-0.9,3.3-1.9,5-2.5c2.1-0.7,4.2-0.8,6.4-0.6c4.8,0.4,9.4,1.5,14-0.3c7.7-3,12.5-10.7,14.9-18.3
				c2.8-8.8,2.9-18.7,7.9-26.8c2.5-4.1,5.9-7.5,7.6-12c1.4-3.6,1.4-8.1-0.6-11.4c-2.6-4.2-7.3-4.8-11.8-4.3
				c-5.1,0.5-10,1.8-14.9,3.3C225.5,276.2,223.1,276.9,220.6,277.6c-3.1,0.9-1.8,5.7,1.3,4.8c4.5-1.3,8.9-2.8,13.5-4
				c2.2-0.6,4.5-1,6.7-1.3c1.9-0.2,4.2-0.6,6.1,0.1c2.7,1,3.2,4.3,2.8,6.9c-0.7,4-3.6,7.2-5.9,10.3c-2.6,3.6-4.5,7.6-5.8,11.9
				c-1.3,4.2-2,8.6-3,12.9c-1.5,6.9-4,14.7-10.1,19.1c-3.1,2.3-6.6,2.8-10.4,2.4c-4.5-0.5-8.9-1.3-13.3,0.3
				c-3.6,1.3-6.7,3.5-10.1,5.3c-2.8,1.5-6,2.6-9.1,1.4c-2.8-1.1-4.7-3.9-6-6.6c-1.6-3.4-2.4-7.3-2.9-11.1
				c-1.2-8.6-0.6-17.8,3.9-25.3c1.9-3.2,4.4-6,7.5-8c3.7-2.4,7.9-3.3,12.1-3.9c4.1-0.6,8.7-0.5,12.4-2.6c2.9-1.6,5.3-4.2,7.9-6.1
				c1.2-0.9,2.2-1.5,3.6-1.7c1.3-0.2,2.1-1.9,1.7-3.1C223.3,277.9,222,277.4,220.6,277.6L220.6,277.6z"/>
		</g>
	</g>
</g>
<g id="Layer_2">
	<g>
		<path class="st1" d="M624.2,177.4c4.9,16.8-7.3,34.5-19.5,47.1c-12.2,12.5-27.4,22.1-38.2,35.8c-6.3,7.9-11.1,18.2-8.4,28
			c1.5,5.3,5,9.8,7.9,14.5c5.9,9.1,9.9,19.4,11.8,30.1c1.3,7.3,1.6,14.7,3.7,21.8s6.1,14,12.8,17.2c7.9,3.8,17.3,1.5,25.8-0.8
			c10.1-2.8,20.4-5.7,29.4-11.3c23-14.4,32.1-42.8,39.5-68.9c1.6-5.5,3.1-11.1,3-16.8c-0.1-6.7-2.6-13.1-4.5-19.5
			c-4.7-16-6.1-32.8-5.7-49.4c0.3-10.8,1.4-21.6,0.2-32.4c-1.2-10.7-4.8-21.6-12.6-29.1s-20.2-10.8-29.8-5.8
			C626.4,144.6,624.3,162.4,624.2,177.4"/>
	</g>
	<g>
		<path class="st1" d="M596.5,116.4c-6.2,7.3-3.7,20.9-6.9,29.9c-0.9,2.6-2.4,5-3.3,7.6c-3.7,10.1,0.5,21.4-1.6,32
			c-2.2,10.7-12.7,19.9-23.4,17.8c-4.2-0.8-8-3.3-11.9-5c-4.7-2.1-10-3.5-14-6.8c-7.8-6.5-8.9-19.2-17.5-24.5
			c-8.5-5.2-20.9-1.1-28.4-7.6c-3.4-2.9-5-7.4-5.3-11.8c-0.6-8.3,3-16.5,7.8-23.3c4.8-6.9,10.8-12.8,16-19.3
			c7.4-9.4,13.4-20.5,23.5-27.1c5.9-3.8,12.7-5.9,19.4-7.8c2.7-0.8,5.6-1.6,8.4-0.8c3,0.9,5.1,3.5,8,4.7c3.4,1.5,7.6,0.9,10.5,3.2
			c3.8,3,3.1,8.9,2.1,13.6c-0.9,4.8-1.2,10.8,3,13.3c1.4,0.8,3.1,1,4.7,1.5C592,107.3,595.7,111.6,596.5,116.4"/>
	</g>
	<g>
		<path class="st1" d="M634.1,382.9c-10.7,9.7-27,9.2-41.2,7.1c-16.3-2.4-34.5-7.7-41.8-22.4c-0.9-1.8-1.8-3.9-3.7-4.7
			c-1.3-0.5-2.8-0.3-4.2,0.1c-13.3,4.1-18,20.6-28.7,29.4c-8.1,6.6-19.1,8.3-29.5,9c-10.4,0.7-21.2,0.8-30.8,4.8
			c-9.6,4-18,13.4-17.1,23.8c1.3,14.6,19.4,23.4,20.9,38c0.5,4.5-0.5,9.9,2.9,12.9c2.4,2.1,6,2,9.2,1.4c9.7-1.9,18.6-7.3,24.7-15.1
			c5-6.4,8.3-14.4,14.8-19.2c10.6-7.7,25.2-4.4,37.8-0.7c4.6,1.3,9.3,2.7,13.2,5.6c5.8,4.2,9,11.1,14.5,15.7
			c11.8,9.9,30.8,5.7,41.9-5.1c11.1-10.7,16.2-26,20.9-40.7c2.3-7.1,4.6-14.4,4.2-21.8S640.9,385.9,634.1,382.9"/>
	</g>
	<g>
		<path class="st1" d="M460.4,196.8c-2.5,7.1-10.9,12.6-18.4,12.9c-12.7,0.6-23.4-11.3-36.1-11.2c-11.2,0.1-20.2,9.3-31.1,12
			c-10.5,2.6-22.2-1-32.2,3c-8.9,3.6-14.8,13.5-13.8,23.1c0.6,5.1,2.9,9.9,3.2,15c0.7,11-7.7,20.1-13.8,29.3
			c-8.6,12.9-13.4,28-18,42.8c-0.6,2.1-1.3,4.3-0.6,6.3c0.8,2.5,3.4,4,6,4.3s5.2-0.3,7.7-1c6.9-1.8,14-3.7,19.2-8.6
			c2.8-2.6,4.9-5.9,8-8c9.5-6.4,23.5,0.5,33.3-5.3c6.2-3.7,8.7-11.2,12.9-17c4.1-5.8,10.2-10.1,17-12.1c11.3-3.4,24.3-0.6,34.7-6.3
			c8.4-4.7,13.3-14.9,11.6-24.3c-1-5.5-3.9-11.1-2.3-16.4c2-6.2,9.1-8.9,15-11.6c7.5-3.5,15.1-10.2,14-18.4
			C476,198.2,466.9,193.4,460.4,196.8"/>
	</g>
	<g>
		<path class="st1" d="M294.1,508.5c0.3-9.3-17.2-8.7-21.6-16.9c-3.3-6.1-2.2-13.5-3.8-20.2c-2.7-10.9-12.3-18.3-19.9-26.5
			c-7.6-8.2-13.9-20.3-8.6-30.2c3.2-6,9.7-9.2,15.6-12.5c8.6-4.8,16.8-10.5,26-14c9.2-3.5,19.9-4.7,28.8-0.3
			c8.9,4.4,14.7,15.4,11,24.5c-1.2,2.8-3.1,5.2-4.4,7.9c-5.9,12.1,2,27.4,13.8,33.6c11.8,6.3,26.2,5.6,39.3,3
			c6.8-1.3,13.7-3.1,20.7-2.5s14.1,4.4,16.5,11c2.2,6-0.2,13-4.6,17.6c-4.4,4.6-10.5,7.3-16.6,9.3c-24.5,7.8-51.7,5.6-75.6,15
			C305.2,509.4,298.7,511.9,294.1,508.5"/>
	</g>
	<rect x="317.7" y="344.6" class="st3" width="37.6" height="17.9"/>
	<polygon class="st3" points="370.4,344.6 370.4,373.9 396.5,373.9 396.5,334.6 370.4,334.6 	"/>
	<polygon class="st3" points="336.5,396.8 358.6,439.4 408.2,439.4 408.2,396.8 372.4,396.8 372.4,384.9 336.5,384.9 	"/>
	<g>
		<path class="st1" d="M453.9,101.4c-10.9,1.6-22.2,0.2-32.4-4c-9.1-3.8-18.8-9.9-28.1-6.6c-5.8,2-9.8,7.3-15,10.7
			c-5.2,3.3-11.4,4.6-17.1,7c-14,5.7-24.7,17.6-32.2,30.7c-3.5,6.1-6.6,12.8-7,19.9s2,14.7,7.7,18.9c9.3,6.9,22.5,2.6,32.7-2.7
			c10.3-5.3,21.6-11.7,32.7-8.3c8.4,2.6,14.6,10.5,23.2,12c6,1,12.2-1.3,16.7-5.3c4.5-4,7.4-9.6,9.2-15.4c1.4-4.5,2.1-9.4,4.8-13.2
			c3-4.2,7.8-6.6,11.9-9.7c5.9-4.6,10.5-11.7,9.9-19.1C470.4,108.6,461.2,99.8,453.9,101.4"/>
	</g>
	<polygon class="st3" points="624.7,476.4 624.7,510.2 698.4,510.2 698.4,482.7 731.3,482.7 731.3,434.1 718,434.1 718,384.9 
		659.3,384.9 659.3,476.4 	"/>
	<polygon class="st3" points="477.1,498.1 523.3,468.8 557.4,468.8 582.9,498.1 582.9,529.2 477.1,529.2 	"/>
	<polygon class="st3" points="413.6,301.7 470.1,283 470.1,235 498.2,220.5 539.5,220.5 539.5,338.6 485.5,338.6 485.5,370.1 
		413.6,370.1 	"/>
	<rect x="313.7" y="340.6" class="st4" width="37.6" height="17.9"/>
	<polygon class="st4" points="366.4,340.6 366.4,369.9 392.5,369.9 392.5,330.6 366.4,330.6 	"/>
	<polygon class="st5" points="332.5,392.8 354.6,435.4 404.2,435.4 404.2,392.8 368.4,392.8 368.4,380.9 332.5,380.9 	"/>
	<polygon class="st5" points="620.7,472.4 620.7,506.2 694.4,506.2 694.4,478.7 727.3,478.7 727.3,430.1 714,430.1 714,380.9 
		655.3,380.9 655.3,472.4 	"/>
	<polygon class="st5" points="473.1,494.1 519.3,464.8 553.4,464.8 578.9,494.1 578.9,525.2 473.1,525.2 	"/>
	<polygon class="st4" points="409.6,297.7 466.1,279 466.1,231 494.2,216.5 535.5,216.5 535.5,334.6 481.5,334.6 481.5,366.1 
		409.6,366.1 	"/>
	<rect x="720.6" y="189.6" class="st3" width="37.6" height="17.9"/>
	<rect x="718.5" y="186.7" class="st4" width="37.6" height="17.9"/>
</g>
<g id="animals">
	<polygon class="st6" points="439.4,242.6 439.2,242.7 439.2,241.1 438.9,233 438.3,226 434.8,221.5 430.6,217.9 427.1,216.1 
		427.1,216.1 425.1,215 419.3,215.2 411.3,216.1 408.5,216 403,214 402.8,213.8 402.6,212.9 400.4,210.2 398.7,209.1 397.8,210.1 
		397,210.7 395.3,211.1 388.6,212.7 387.5,213.6 386.5,214.5 386.2,215.5 385.5,216.5 384.9,218.3 384.6,221.5 383.5,224.8 
		382.8,227.8 382.8,227.8 382.4,229.7 380.5,230.2 377.7,230.6 376.8,230.3 376.8,230.8 376.8,230.8 377.5,231.3 380.1,231.5 
		382.3,231.1 381.8,235.1 382.6,238.9 385.1,241.9 388.4,241.2 389.6,239 389.4,236.6 388.1,234.8 386.5,235 385.3,235 385.4,236.4 
		386.4,238 386.8,237.8 386.6,237.3 387.2,236.3 387.8,236.6 387.3,238.6 386.2,238.7 385.1,237.1 385.1,234.2 385.4,231.5 
		385.8,230.2 386.5,229.9 387.5,229.3 387.5,229.3 388,229.4 389,229.2 390.9,227.6 391.8,227.2 392.8,230.4 393.6,234.8 
		394.1,237.4 393.8,241 393.2,246.8 392.7,251.6 391.5,254 391.6,255.5 393.9,255.8 394.1,255.8 394,256 394.2,257.8 396.6,258.1 
		402.3,257.6 402.2,255.1 401.4,253 401.1,246.9 401.6,242.6 401.6,240.6 402.2,238.3 408.9,240.9 414.6,242.2 420.9,241.5 
		420.5,246.6 420,251.6 419.4,253.6 418.9,254.7 419.3,255.8 419.4,255.9 419.4,255.9 419.6,255.9 421.4,256.2 426.9,256 427,255.2 
		426.1,252.1 426.1,250 427.1,246.4 427.9,245.3 429.6,250.2 429.9,254 429.2,255.6 428,256.8 428.3,257.9 429.3,258 430.4,258 
		430.4,258 430.8,258 430.8,258 432,257.9 433.4,257.9 433.4,257.9 434.2,257.9 436.4,257.3 436.6,256.3 435.7,254.6 435,250.3 
		434.8,247.2 435.5,246 436.3,243.8 435.8,238.5 436,235.6 437.4,230.7 437.6,230.1 438.3,239.1 438.7,242.7 438.4,242.7 
		438.1,245.2 438.6,247.3 438.4,248.6 437.9,249.1 439.1,248.3 439.8,246.7 440,244.1 	"/>
	<path class="st6" d="M605,445.1l-1.6,0.2l-0.8,0.6l-1.5,0.6l-0.3-1.1l0.4-0.3l-0.6-1.4c0,0-1.6-6.8-1.6-7c0-0.2,0.3-0.9,0.3-0.9
		l-0.7-1.7l-1.1-3.5l-2.8-6.2l0.3-0.5l-2-1.9l0.1-0.5l-1.1-1.2l-0.9-1.2l-0.9-2.5l-0.4-1.3l-1.5-2.7l0.7,0.1l2.8,0.5l1.7-0.7
		l-0.2-0.5c0,0-1.4-0.1-1.6-0.1c-0.2,0-2.1-0.3-2.3-0.3c-0.2,0-2.2-0.5-2.2-0.5l-0.8,0.2l0,0l0.6-0.3l1.5-0.1l1.9,0.1l2.4-0.8
		l2.1-1.1l0.7-1.3l0,0l0,0l-0.4-0.2l-0.8,0.8l-1.7,0.6l-1.7-0.1h-2.3l-1.3,0.1l0.7-0.5l2.2-1.1l2.8-1.1l1.6-1.7l0.1-1.6h-0.1h-0.4
		l-0.7,1.1l-1.4,0.6l-2.5,0.9l-2,0.4l1.4-2.3l0.9-2.3l0.3-2.8l-0.5-0.8l0,0l-0.1-0.1l-0.7-0.2l0.1,1.2l-0.7,2.9l-1.5,2.4l-1.3,1.7
		l-0.6,0.7l0,0l1.1-2.3c0,0,0.5-1.8,0.5-2c0.1-0.2,0.3-2,0.3-2l0.1-2.5l-0.4-1.3l-0.5-0.4l0.1,0.7l0.2,2.1l-0.5,3.5l-1,2.5l-1.2,1.3
		l-0.5,0.6l-0.1,0l-1.2,1.5l-0.3,0.2l0.3-0.7l1.1-1.3l1-1.4l0.8-2.1l0.3-2.1l-0.1-2.3l-0.3-2.7l-0.6-1.3l-0.2,0l0,0l-0.6,0.2
		l0.3,0.6l0.2,2.1l-0.1,2.1l-0.7,3l-0.8,1.5l-1.2,1.6l-0.2-0.5l-0.1,0.1l0.5-0.8l0.9-2.2l0.3-3.2l-0.7-2.2l-1.5-1.9l-0.7-0.1
		l0.1,0.9l0.9,1.3l0.5,1.3l-0.1,0.9l-0.1-0.5l-1.4,5.1l-1.1,2.3l-1.9,2.6L576,411l0.4,2.1l0.2,0.2l-1.4,1.3l-1.1,2.3l-0.1,2.4
		l0.7,1.5l0.5,0.6l0.3-0.2l0,0l0.1-0.1l-0.5-1l0.3-1.3l0.4,1l0.9,0.7l0.8,0.1l-0.1,0.5l0.3,1.6l-1.8,3l0.5,6.8l2.9,6.7l1.4,1.4
		l0.5,2.4l0.2,0.3l0,0.5l0.2,1.5l0.5,0.5l0.1,0.3l0.6,1.2l0.6,0.9l0.1,0.2l0,0l-1,0.1l-0.7,0.1l-0.8,0.4l-1,0.5l-1.1,0.7l-0.8,0.8
		l1.4,0.1l-1.9-0.1l-2.1,0l0.2,2.4l0.7,0.3h1.9l0.1,0.6l0.9,0.5l0.1-0.1l0.4,0.2l0.7-0.3l0.3-0.5l0.9,0.1l1.9-0.4l1.4-0.5l1.8-1.1
		l0,0l0.1,0.1l0.1,0.5l-0.3,0.9l-0.2,0.6l0.7-0.3l0.4-0.9l0.1-0.6l0.4,0l0.2-0.7l0.2,0l1.3-0.6l2-0.5c0,0.2,0.1,0.4,0.1,0.4
		c0.1,0.2,1.3,4,1.5,4.3c0.1,0.3,1.4,2.5,1.4,2.5l1.1,0.4l1.8,1.1l1.9,0.3l1.4-1.1l1.1-0.7l0.5-0.3l-0.7-1.5l-1.1-2.8l-1-3.1
		l0.1-0.3l1.2,0.5l0.8-0.3l-0.4-1.6l2.2-1l1.4-0.1l0.2-1.2L605,445.1z M583.9,449.2l0.9-0.1l0.1-0.4l0.2,0l0.5-1.1l0.5-1.1l0.1-0.4
		l0.3-0.2l-0.1-0.6l3.2,1.8l1.6,1.5c0,0.1,0,0.2,0.1,0.3l-1-0.4l-1.4,0.2l-1.8,0.4l-1.6,0.3l-0.8,0.4l-0.2,0l-0.9-0.1l-0.4-0.1
		L583.9,449.2z M582.5,450.6l-1.3,0.3l-0.5,0.1l1.7-0.7c0,0,0.3,0.1,0.7,0.2L582.5,450.6z M580,454.3l-0.3-0.1v0l0-0.2l0.6,0.1
		L580,454.3z"/>
	<path d="M448,324.1c0,0-3.2-1.4-4.4-1.6c0,0,0.2-2-0.8-2.2c-1-0.2-1.9-0.3-2.2-0.3c-0.4,0-0.5,0.3-1.2,1.2c-0.7,1-0.7,1.5-0.7,1.9
		c0,0-2.8,1.2-3.1,1.6c0,0-7.2-7.2-15.3-3.7c0,0-1.7,1.1-0.2,1.1c1.5,0,0.1,0,0.1,0s0.5,0.5,1.2,0.5c0,0,0.4,0.1,0.6,0.3
		c0.1,0.2,0.8,0.4,1,0c0,0,0.5,0.3,0.8,0.2c0,0,1.1,0,1.8,0c0.6,0.1,0.7,0.1,1,0.2c0.3,0.2,1.8,0.7,2.3,0.9c0.5,0.1,0.9,0.4,1.4,0.4
		c0.5,0,1,0.6,1.3,0.5c0.3-0.1,0.5,0.5,0.8,0.4c0,0,0.5,0.6,0.7,0.6v0.4c0,0-2.1,2.4-2.4,3.2c-0.3,0.9-1.1,1.7-1.3,2.2
		c-0.2,0.5,0,0.8-0.2,1.4c-0.2,0.6-0.6,0.8-0.4,1.3c0.2,0.5,0.5,0.4,0.6,1c0.1,0.6,0.6,1.4,1.3,2c0.7,0.6,0.5,0.7,0.8,1
		c0.2,0.3,0.8,0.6,1.5,1.1c0.6,0.4,0.9,0.8,1.4,1.1c0.5,0.3,1.5,0.6,2,0.9s1,0.6,1.5,0.9c0.5,0.2,1.8,0.7,2.4,0.7
		c0,0-0.2,3.6-0.4,5.1c-0.1,1.5-0.5,3.3-0.3,4.9c0.2,1.6,0,2.2,0.4,2.9c0.4,0.7,1.1,1.4,1.2,0.8c0,0,0.2-0.2,0.3-0.8
		c0.1-0.6,0.1-0.2,0.3-0.8c0.2-0.6,0.1-0.7,0.7-1.4c0.6-0.7,1-0.8,1-1.9c0.1-1.1,0.1-0.7,0.5-1.5c0.4-0.8,0.8-1.5,0.7-2.4
		c-0.1-0.9,0.4-3.2-0.4-3.7c0,0,0.4-0.1,0.7,0c0.3,0.1,1.8,0.7,2.3,1c0.5,0.3,1.2,0.2,1.4,0.1c0,0,0.9,1,1.1-0.3
		c0,0,1.4,0.8,1.9-0.2l0.9-0.9c0,0,1.1,1.4,1.6,2c0.5,0.6,0.8,1.2,1.2,1.6c0.4,0.4,0.7,0.1,1.2,0.6c0.5,0.4,0.7,0.5,1.3,1.1
		c0.6,0.6,0.9,0.9,1.3,1.4c0.4,0.6,0.9,0.9,1.1,1.3c0.2,0.4,1,1.2,0.3-0.5c0,0-1.1-2.2-1.9-3.4c-0.8-1.2-1.4-2.5-2.2-3.4
		c-0.8-0.9-0.8-1.9-1.5-2c0,0,0.6-1,1-1.3c0.4-0.3,1.3,0.1,1.7-1.2c0.4-1.3,0.2-0.3,0.6-1c0.4-0.6,1-0.8,0.8-1.6
		c-0.2-0.8,0.2-0.7,0.3-1.1c0.1-0.4,0.1-0.1-0.2-0.9c-0.3-0.8-0.1-0.5-0.1-1.3c-0.1-0.8,0.3-0.5-0.4-1.2c-0.7-0.6,0.2-0.9-0.8-1.4
		c-1-0.5-1.8-1.6-2.4-2.2c-0.5-0.6-0.2-0.4-1.1-1.2c-0.8-0.8-1.9-1.9-2.6-2.1c0,0,1.2,0,2,0.2c0.8,0.3,2,0.4,2.4,0.5
		c0.4,0.1,0.7,0.1,1.2,0.1c0.5,0,0.6,0.2,1.2,0.5c0.6,0.2,0.6-0.2,1,0.2c0.4,0.4,1.1,0.7,1.7,0.9c0.6,0.2,1,0.3,0.9,0.1
		c-0.1-0.2,1.4,0.4,1.2,0.1c0,0,1.1,1,0.3-0.3c0,0-1.1-3.2-9.2-5.2c0,0-3-0.5-3.6-0.4c-0.6,0.1-1.7,0.2-2.2,0.2
		C448.7,323.8,448.4,323.8,448,324.1z"/>
	<path d="M536.4,324.8c0,0,0.3-0.7-0.2-1.1c0,0,0.1-0.7-0.2-0.8c0,0,0.2-0.6-0.2-0.9c0,0,0-0.7-0.6-1.1c0,0,0.6-0.5-0.3-1.1
		c0,0,0.1-0.9-0.8-1.3c0,0,0.6-0.9-0.7-1.4l-0.3-0.4c0,0,0.4-1.1-0.7-1.6c0,0,0.4-1.5-0.9-1.7c0,0,0.5-1.3-1.1-1.6c0,0,0.5-1-1-1.3
		c0,0,0.6-1.3-1.4-1.5c0,0,0.4-1.1-1-1.2c0,0-0.4-1.5-2-1.3c0,0,0.5-1.3-1.2-1.3c0,0-0.3-0.7-0.7-0.7c0,0-0.4-0.5-1.1-0.5
		c0,0-0.1-0.9-1-0.6c0,0-0.7-0.9-1.5-0.5c0,0-0.5-0.7-1.1-0.3c0,0-0.6-0.8-1.3-0.5c0,0-0.5-0.8-1.5-0.3c0,0-0.5-1.2-1.6-0.6
		c0,0-0.4-0.7-1.3-0.4c0,0-0.6-0.8-1.3-0.3c0,0-0.7-0.5-1.3-0.1c0,0-0.9-0.7-1.4-0.3c-0.5,0.4-0.1,0-0.1,0s-0.5-0.6-1.3-0.2
		c0,0-0.8-0.5-1.5-0.1c0,0-0.4-0.7-1.3-0.3c-0.9,0.4,0.1-0.3-0.4-0.3c-0.5,0-0.4,0.1-0.7,0c-0.2-0.1-0.5-0.2-0.7-0.1
		c-0.3,0.1-0.4-0.2-0.7-0.1c-0.3,0.1-0.2-0.3-1-0.1c-0.7,0.2-0.2-0.4-0.8-0.1c-0.7,0.2-0.5-0.3-1.1-0.2c-0.6,0.1-0.3-0.4-1.1-0.2
		c-0.7,0.2-0.2-0.5-1.1-0.3c-0.9,0.2-2.3-0.3-4.2-0.5c-2-0.2-2.6,0.2-4.9,0.2c-2.3,0.1-2.3,0-2.5,0.1c-0.2,0.1-0.5,0.1-0.7,0
		c-0.2-0.1-0.3,0-0.8,0.2c-0.4,0.2-0.7,0.1-1.3,0.2c-0.6,0.1-1.4-0.2-1.7,0.3c-0.3,0.5-0.9-0.5-1.2,0.3c-0.3,0.8-0.8-0.2-1.1,0.1
		c-0.4,0.3-0.4-0.3-0.9,0c-0.5,0.3-0.9-0.4-1.3-0.2c-0.4,0.2-0.8-0.7-1.1-0.8c-0.3-0.1-0.5-0.4-0.9-0.7c-0.4-0.3-0.6-0.5-1-0.8
		c-0.3-0.2-0.3-0.3-0.6-0.4c-0.3-0.1-0.4-0.5-0.8-0.6c-0.4-0.1-0.3,0.2-0.9,0c-0.6-0.2-0.8-0.5-1.2-0.6c-0.4-0.1-2.8,0-3.5,0.1
		c0,0-1.6-1.7-3.1,0.1c0,0-0.7,0.6-1.3,0.7c-0.6,0.1-1.1,0.4-1.8,0.5c-0.7,0.1-2.4,0.4-2.9,0.3c0,0-2-0.5-2.3,1.2
		c0,0-0.1,0.3,0.3,0.5c0,0,0,0.9,0.2,0.5c0,0,0.3,0.2,0.3,0c0,0,0.3,0.5,0.5-0.1l0.2,0.1c0,0,0.3,1,0.5,0l0.7-0.1c0,0,0,0.5,0.3,0.1
		l0.2-0.1c0,0,0.2,1,0.4,0.1l0.3,0.1c0,0,0,0.9,0.4,0.2c0,0,0.7,0.3,0.1,0.5l-0.3,0c0,0-0.3-0.5-0.5-0.1l-0.4,0.1
		c0,0-0.2-0.6-0.3-0.1h-0.7c0,0-0.2-0.5-0.4-0.1c-0.2,0.4,0,0.1,0,0.1s-1,0.4-0.8,0.8c0,0,0.5,0.6,1.2,0.9c0.7,0.3,3.6,0.8,4.7,0.9
		c1.2,0.1,2.8,0.3,3.4,0.4c0.6,0.1,1.4,0.3,1.9,0.5c0.5,0.2,2,0.8,2.3,1c0.3,0.2,1.1,0.3,1.3,0.3c0,0,2.4,1.7,2.6,2
		c0,0-0.9,0.3-1.3,0.3c-0.3,0-0.5,0-0.7,0.2c-0.1,0.2,0,0.1,0,0.1s0.5,0.1,0.5,0.3c0,0.2,0,0.1,0,0.1s-1,0.2-1.3,0.2
		c-0.4,0.1-0.7,0.3-0.8,0.6c-0.1,0.3,0.2,0.1,0.2,0.1c0.1-0.1,0.4-0.1,0.6-0.1s0.7,0.3,1,0.2c0.4-0.1,0.7-0.1,0.7-0.1
		s-0.5,0.4-1,0.5c-0.4,0.1-0.6,0.2-0.7,0.6c-0.1,0.5,0,0.9,0.3,0.5c0,0,0.1-0.4,0.4-0.3c0.3,0.1,0.8-0.2,1.2-0.2
		c0.4-0.1,0.7-0.3,0.9-0.3c0,0,0.1,1.3,0.5,1.5c0,0,0.3,0,0.2-0.3l-0.1-0.5c0,0,1.7-0.8,1.6-1.3c0,0,2.8,1.3,4.8,1.4
		c0,0,1.5,1,2,1.1c0.5,0.1,0.8,0.1,0.3,0.5c-0.6,0.4-2.1,3.1-2.4,3.6c-0.3,0.4-0.5,0.5-0.9,0.4c-0.4-0.1-1.4,0.1-1.7,0.8
		c-0.3,0.7,0,0.5,0.3,0.2c0,0,0.9-0.1,1.2-0.1c0,0-1.5,0.8-1.1,1.8c0,0,0.2,0.1,0.3-0.2c0.1-0.3,0.1,0,0.1,0s0.3-0.3,0.6-0.3
		c0.3-0.1,1.3-1,1.6-0.9c0.3,0.1,0.1,0.1,0.1,0.1s-0.1,2,0.1,2.2c0,0,0.5,1.5,0.4,0.1c0,0,0.3-0.2,0.3-0.6c0-0.4,0.2-1.5,0.4-1.6
		c0,0,0.3,0.2,0.7,0.5c0.3,0.3,0.9,1,1.2,1.1c0.3,0.1,0.1,0.1,0.1,0.1s0.6,0.6,0.3,0c0,0-0.6-1.2-0.8-1.4c0,0,0.4,0.1,0.8,0.1
		c0.3,0,0.3-0.1,0.4,0c0.2,0.1,0.8,0.1,0.3-0.2c0,0-0.5-0.2-1.1-0.4c-0.6-0.2-1-0.5-1.1-0.7c-0.1-0.2-0.1-0.2-0.1-0.2
		s0.4-0.5,0.7-0.6c0.3-0.2,1-0.7,1.3-0.9c0.2-0.2,1-0.6,1.2-0.8c0.2-0.2,1.8-2.6,1.2-3.3c0,0,6,1.3,10.8-1.1c0,0,0.3,0,0.5,0.2
		c0.2,0.2,2.3,1.9,3.4,2.1c1.1,0.2-0.1,0.1-0.1,0.1s-0.8,0.2-0.8,0.8c0,0-1.1,0.4-0.6,1.8c0,0,0-0.7,0.5-0.7c0,0,0.6-0.2,0.9,0
		c0.3,0.2,0.5,0.4,0.3,0.6c0,0-1,1-0.5,1.6c0,0,1.1,1.4,0.7,0.5l-0.2-0.6c0,0,0.2,0,0.3-0.3c0,0,0.6-0.7,0.9-0.3
		c0,0,0.2,0.3,0.3,0.7c0,0.3,0.2,0.8,0.3,0.9c0.1,0.1,1.6,1.3,0.8,0.2c0,0-0.4-0.6-0.3-1c0.1-0.4,0.3-0.9,0.5-1.1
		c0.2-0.2,0.9-0.5,1-0.8c0.2-0.3,0.4-0.7,0.5-0.9c0.1-0.2,0.8-1.3,0.1-2.3c-0.7-1-1.7-1.7-2.2-2c-0.5-0.3-1.5-0.8-1.5-0.8l0.1,0
		c0,0,1.1-0.4,1.3-0.7c0,0,0.4,0,0.7,0.1c0.3,0.1,0.8,0.2,1.3,0.1c0.5-0.1,1.1-0.3,1.9-0.2c0.8,0.1,2.7,0.1,4.3,0.3
		c1.7,0.2,3.8,0.1,4.8,0.6c0.9,0.5,2.2,0.4,3.8,1.5c1.6,1.1,2.4,1.2,4.7,2.9c2.2,1.7,3.5,2.9,4.4,4.2c0.9,1.3,3.1,4.3,3.7,5.2
		C534.9,322.8,536.1,324.8,536.4,324.8z"/>
	<g>
		<path d="M388.5,129.6c0,0,0.1,0.5,0.5,0.2c0,0,0.8-0.7,1.1-0.7c0.1,0,0.1,0,0.1,0c0,0.1,0.1,0.5,0.3,0.5c0.3,0,1.3-0.5,1.4-0.4
			c0.1,0,0.2,0.2,0.2,0.2l0,0.3l0.3-0.3c0,0,1,0.1,1.3,0.1c0.3,0,0.4,0.3,0.4,0.3l0.2-0.1c0,0-0.1,0.1,0.1,0.4
			c0.2,0.3,0.3-0.5,1-0.6c0,0,5.3-1.5,6.9-3.5c1.7-1.9,4.9-6,4.8-7.2c-0.1-1.3,0.2-0.6,0.4-0.3c0.2,0.3,0.5,0.6,0.5,0.3
			c0-0.3,0-0.6,0.1-0.3c0.1,0.3,0.2,0.4,0.2,0.2c0-0.1,0.1-0.2,0.2,0.1c0.1,0.3,0.2,0.4,0.2,0.1c0-0.2,0.2,0,0.2,0.2s0.3,0,0.3,0
			s0.2,0.1,0.3,0.2c0.1,0.1,0.3,0,0.3,0s0.1,0.3,0.2,0.4c0,0.1,0.1-0.2,0.1-0.3c0-0.1,0.1-0.3,0.2,0.3c0.1,0.6,0.2,0,0.3,0.3
			c0.1,0.6,0.2,0.3,0.2,0.2c0-0.1,0.1-0.5,0.2,0.3c0.1,0.7,0.2,0.8,0.3,0.4c0.1-0.4,0.1-0.6,0.1,0.1c0,0.7-0.4,1.2,0,0.7
			c0.4-0.5,0.4-1,0.4-0.3s0,0.9,0.2,0.5c0.2-0.4,0.3-0.6,0.3-0.2c0,0.4,0.1,0.4,0.1,0.5c0,0.1,0.1,0.1,0.1,0.1c0,0,0,0,0.1,0.1
			c0.3,0.3,0.3,0.3,0.4,0.4c0.1,0,0.2,0.2,0.1-0.1c0-0.3,0-0.4,0-0.1c0.1,0.3,0.3,2.9,0.1,3.4c-0.2,0.5-0.3,2.1-0.3,2.7
			c-0.1,0.5-0.1,1.2-0.7,1.5c-0.6,0.3-0.7,0.3-1.3,0.3c-0.7,0.1-1.6,0.1-1.7,0.4c-0.1,0.3-0.2,0.4,0.1,0.4c0.3,0,0.3,0,0.3,0
			s0.1,0.2,0.7,0.2c0.6,0,2.8,0.4,3.4,0.3c0.6-0.2,1.8-0.7,2.2-1.5c0.4-0.7,1.1-2.3,1.3-3c0.2-0.7,0.9-5.6,0.7-6.1
			c-0.2-0.5,0.1-0.7,0.2-0.6c0.1,0.1,0.4-0.1,0.2-0.3c-0.2-0.2-0.1-0.3,0-0.2c0.1,0.1,0.3,0,0.1-0.3c-0.2-0.3-0.3-0.6-0.1-0.3
			c0.2,0.3,0.3-0.1,0.4,0c0.2,0.2,0.2,0.2,0.2-0.1c0.1-0.3,0.1-0.5,0.2-0.3c0,0,0,0.1,0,0.1c0-0.1,0-0.2,0.1-0.4
			c0.2-0.4,0.4-0.5,0.5-0.2c0.1,0.3,0.1-0.1,0.1-0.3c0-0.2,0.1,0,0.2,0.2c0.1,0.2,0.3-0.1,0.3-0.3c-0.1-0.2,0.1,0,0.1,0.2
			c0,0.2,0.2,0.1,0.3-0.2c0.1-0.3,0.2-0.5,0.3-0.1c0.1,0.4,0.2,0.2,0.2,0c0-0.2,0.1-0.5,0.1-0.2c0,0.2,0.2,0.1,0.3,0
			c0,0.1,0,0.1,0,0.2c0,0.2,0.4-0.1,0.3-0.3c-0.1-0.1,0.1-0.2,0.1,0.1c0,0.3,0.1,0.6,0,1c-0.1,0.4-0.2,2.3-0.2,2.8
			c-0.1,0.5-0.9,2-0.7,3c0.2,1-0.1,0.8,0.1,1.9c0.1,1.1,0.3,2.5,0,3.1c-0.4,0.6,0.2,0.7-0.6,0.9c-0.8,0.2-1.7,0-2.3,0.2
			c-0.6,0.2-0.5,0.4-0.9,0.4c-0.4,0-1,0.2-1.3,0.5c-0.3,0.3-0.3,0.7-0.2,0.7c0.1,0,0.5,0.1,1.1,0c0.5-0.1,1-0.1,1.6-0.1
			c0.6,0,3.7,0.3,4.6,0c0.9-0.3,1-0.5,1.3-0.4c0.2,0.1,0.5,0.1,0.5,0.1s0.1,0.7,0-0.4c-0.1-1.1,0.1-2.6,0.2-3.3
			c0.1-0.7,0.5-1.1,0.8-1.8c0.3-0.7,0.5-1.5,0.3-2c-0.1-0.5,0.5-2.9,0.2-3.3c-0.3-0.5-0.1-0.5,0.2-0.3c0.3,0.2,0.8,0.3,0.5,0.1
			c-0.2-0.2-0.3-0.3-0.1-0.1c0.2,0.2,0.4,0.1,0.6,0.3c0.3,0.3,0.4,0.5,1,1.1c0.5,0.6,3,3.2,3.4,3.6c0.5,0.4,2.6,2.3,3.4,2.7
			c0.8,0.4,1.5,0.9,1.9,1.2c0.5,0.3,0.3-0.1,0.1-0.2c-0.1-0.1,0.3-0.1,0.4,0.1c0.2,0.2,0.4,0.5,0.3,0.3c-0.1-0.2,0.3-0.3,0.5,0
			c0.2,0.3,0.3,0.2,0.5,0.9c0.1,0.7,0,1.3-0.3,2.1c-0.3,0.8-0.4,1.1-1.1,1.4c-0.7,0.3-0.7-0.1-1,0.4c-0.3,0.5-0.2,0.3-0.4,0.4
			c-0.3,0.1-1.7,0.4-1.4,0.8c0.3,0.4,0.3,0.3,0.5,0.1c0,0-0.5,0.4,0.1,0.4c0,0,0.7,0.3,1.1,0.1c0,0,0.3,0.3,0.9,0.1
			c0.7-0.2,2-0.5,2.1-0.7c0.2-0.2,0.4,0.3,0.7,0c0.3-0.3,0.2,0,0.6-0.8c0.4-0.8-0.1,0,0-0.5c0.1-0.5-0.2,0.1,0.4-0.7
			c0.6-0.8,1-1.8,1-2.6c0-0.8,0.2-2-0.1-2.6c-0.3-0.6-0.1-0.1-0.9-1.1c-0.8-1-1.3-1.6-2.3-2.5c-0.9-0.8-2-2.6-3.8-2.8
			c-1.8-0.2-0.7-0.1-0.7-0.4c0-0.3-0.5-0.8-0.2-1.7c0.3-0.9,0-0.6,0.4-0.6c0.5-0.1,1,0.1,0.7-0.1s-0.9-0.2-0.3-0.2
			c0.7-0.1,0.7-0.1,0.5-0.3c-0.2-0.2-0.6,0-0.2-0.2c0.4-0.2,0.8-0.1,0.5-0.5c-0.3-0.3-0.6-0.4-0.2-0.5c0.4-0.1,0.7-0.1,0.3-0.5
			c-0.4-0.3-1-0.4-0.4-0.5c0.6-0.1,0.7-0.1,0.5-0.3c-0.2-0.2-0.3-0.3,0-0.3c0.3,0,0.3,0.1,0.1-0.1c-0.2-0.2,0.5,0.3,0.2-0.3
			c-0.3-0.6,0.5-0.5,0.2-0.6c-0.3-0.1-0.8-0.5-0.6-0.5c0.2,0,0.4,0.1,0.2,0c-0.2-0.1-0.5-0.4-0.1-0.5c0.4-0.1,0.3-0.2,0.1-0.5
			c-0.2-0.3-0.3-0.9-0.3-0.9c-0.1-0.1,0.3-0.5,0.3-0.5s0.5-0.6,1.1,0.3c0.6,0.9,0.9,1.1,1.8,1.3c0.9,0.2,2.5,0.6,2.8,1
			c0.3,0.3,1.4,1.3,1.9,2.7c0.5,1.4,0.7,1.2,0.2,1.8c0,0,0.6-0.3,0.7-0.7c0-0.1,0-0.1,0-0.2c-0.2-0.5,1.2,1.5,0.7,2.4
			c0,0,0.5,0,0.5-0.5c0,0,0.4,2,0.1,3c0,0,0.6,0.6,0.6-0.4c0,0,0.7,1.5,0.7,2.1c0,0.6,0,1.5-0.3,2.1c-0.1,0.1-0.1,0.2-0.1,0.3
			c0,0-0.6-1-1.5-0.9c-0.9,0-2,0.3-2.3,1c-0.3,0.6-0.5,1.4-0.1,2.3c0.4,0.9,1.6,1.6,2.1,1.5c0,0-0.4,0.5-1,0.3c0,0,0.6,0.6,1.3,0.5
			c0,0,0.1,0,0.1,0c0.7-0.1,1.6,0,1.7-0.7c0,0,0.2,0.2-0.1,0.7c-0.4,0.5,0,0.1,0,0.1s1-0.6,1.1-1.3c0,0,0.2,0.3,0,0.5
			c-0.1,0.2,0.5-0.4,0.5-1.1c0-0.7,1-1.4,1-1.7c0,0,0.2-0.4,0.1,0.2c-0.1,0.6,0.3-0.9,0.1-1.7c0,0-0.1-0.3-0.1-0.5
			c0.1-0.2,0-0.6,0.1-0.7c0,0,0.4-0.3,0.5,0.3c0.1,0.5,0-0.2,0-0.2s0.1-0.7-0.1-1.6c-0.2-0.9,0.3-2-0.2-3.4
			c-0.5-1.4-0.8-3.3-1.2-4.2c-0.4-0.9-1.5-3-2.6-4c-1.1-1-2.5-2.8-3.1-3.2c-0.5-0.4-1.2-0.8-0.6-0.6c0.6,0.1,0.2-0.7-0.8-0.7
			s-1.1,0-1.8-0.2c-0.7-0.2-2.4-0.4-3.4-1.2c-1-0.7-0.8-1.3-2.9-1.5c-2-0.3-7.2-2.1-11-1.3c-3.8,0.8-5.5,1.2-6.6,1.3
			c-1.1,0.1-1.9,0.3-2.5,0.5c0,0-0.7-0.3-0.2-0.5c0,0-0.3-0.5-0.7,0.1c0,0-0.2-0.3-0.1-0.4c0,0-0.5-0.1-0.7,0.6c0,0-0.6-0.6-0.2-0.8
			c0,0-2,0.7-2.1,1.7c-0.1,1-2.5-0.3-3.7,1.1c0,0-2.3-0.4-3.2-0.7c-0.9-0.3-2.4-0.2-3.4,0.5c-0.9,0.7-1,1.4-1.7,1.7
			c-0.6,0.4-1.9,2.4-1.1,3.4c0.9,1,0.7,0.6,0.8,0.9c0.1,0.3,0.3,0.2,0.6,0.3c0,0-0.1,1.5-0.2,1.9c-0.1,0.4-0.3,0.8,0,0.8
			c0.3,0,0.1,0,0.1,0s1.1,1.3,1.8,1.3c0,0,0.6,0.5,0.9,0.4c0,0,0.1,0,0.1,0c0.3-0.2-0.9,2.8-1.6,3.5c-0.7,0.7-1.6,2.1-2.4,2.6
			c-0.7,0.5-2.7,2.2-3.3,2.4c-0.6,0.2-1-0.1-2.2,0.2c-1.1,0.3-1.3,0.2-1.7,0.5c-0.4,0.3-1.3,1-1.2,1.3
			C388.4,128.6,388,129.7,388.5,129.6z M446.3,128.9c0,0-0.1,0.6-1.1,0.3c0,0-1.7-1.2,0.1-1.5C445.3,127.7,446.5,127.8,446.3,128.9z
			 M446.8,127.2C446.8,127.2,446.8,127.2,446.8,127.2C446.8,127.2,446.8,127.2,446.8,127.2z M446.8,127.3
			C446.8,127.3,446.8,127.3,446.8,127.3L446.8,127.3z"/>
		<path d="M397.1,131.9C397.1,131.9,397.1,131.9,397.1,131.9L397.1,131.9z"/>
	</g>
	<path d="M485.9,270.5c0.5,0.4,2.9,2.9,4.5,3c0,0,0.3,0,0-0.2c0,0-1.7-1.2-2.2-1.7c-0.5-0.6-1.4-1.5-1.4-1.5s2-1.6,2.2-1.9
		c0,0,0,1.2,0.1,1.3c0,0.1,0.1,0,0.2,0c-0.1,0-0.1,0.1-0.1,0.3c0.1,0.2,0.4,1.2,0.6,1.3l0.1,0c0,0-0.1,0.2,0.1,0.1
		c0,0,0.2,0.5,0.4,0.6c0,0,1,0.6,1.5,0.5c0,0,0.3,0,0.3-0.1c0,0,0.8-0.1,0.5-0.5c0,0,0.5,0.2,0-0.4c0,0,0.2,0,0.2,0
		c0,0,0.3,0.2,0.1-0.1c0,0-0.1-0.3-0.2-0.4c-0.2-0.1-0.2-0.3,0-0.2l0.2,0.1c0,0,0.2,0,0-0.2c-0.2-0.3-0.2-0.3-0.3-0.4
		c-0.1-0.1-0.3-0.2,0-0.1c0.3,0.1,0.5,0.1,0.2-0.1c-0.2-0.2-0.3-0.6-0.3-0.6s0.3-0.2,0.4-0.3c0,0,0.1,0.4,0.2,0.3
		c0.1,0,0.6-0.1,0.7-0.2c0.1-0.1,0.1-0.1,0.1-0.2c0-0.1,0.1-0.2,0.1-0.3c0-0.1,0-0.2,0.2,0c0.2,0.1,0.3,0.1,0.3,0.1s0.5,1.9,1.7,2.2
		c0,0,0.4,0.8,1.7,0.3c0,0,0.1-0.1,0.4,0.1c0,0,1,0.2,1.3,0c0,0,0.2,0.2,0.9,0.4c0.7,0.2,3,0.7,4.4,0.4c1.4-0.2,2.5-0.6,2.5-0.6
		s1,0.1,1.2-0.1c0,0,0.2,0.1,0.4,0.2c0.2,0.1,0.7,0.6,1.4,0.1c0.7-0.5,0.5,0.4,1.8-0.7c0,0,0.6-0.3,0.2,0.1c0,0-0.7,0.3,0.1,0.2
		c0,0,0,0.3-0.2,0.4c0,0,0,0,0,0c-0.1,0-0.9-0.1-0.8,0c0,0,0.4,0.3,0,0.2c0,0-0.9-0.3-1.8,0.5c0,0-0.5,0.4,0.1,1.2
		c0.5,0.8,0.7,0.5,0.9,0.6c0.1,0.1,0.2,0.2,0.3,0.2c0.1,0,0.5,0.2,0.6,0.2c0.1,0.1,0.3,0,0.4,0.1c0.1,0,0.2,0.1,0.3,0
		c0.1,0,0.3-0.1,0.5-0.1c0.3,0,0.6,0,1-0.1c0.3-0.1,0.3-0.1,0.5-0.1c0.1,0,0.9-0.1,1.1-0.8c0.1-0.6,0.2-0.4,0.2-0.5
		c0-0.1,0-0.4,0.2-0.4c0.2,0,0.3,0,0.4,0.1c0.1,0,0.3,0.1,0.1-0.3c0,0-0.3-1.4-1.4-1.6c0,0,0.1-0.2,0.2-0.2c0.1-0.1,0.4-0.3,0-0.2
		c0,0-0.5,0.2-0.5,0.1c0,0,0.1-0.2,0.1-0.3c0-0.1,0.1-0.2,0.1-0.3c0-0.1,0.1-0.1,0.2-0.1c0.1,0,1.3-0.1,1.8-0.2
		c0.5-0.1,0.6-0.4,1.1-0.1c0.5,0.3,0.8,0.7,1.1,0.9c0.3,0.2,3.4,1.9,4,2c0,0-0.8,1.2-1.1,1.7c-0.3,0.4-1.2,1.4-1.4,1.7
		c-0.2,0.2-0.4,0.5-0.4,0.5s-0.4,0.2,0.2,0.1c0,0,1.9-1,3.1-2.8c1.2-1.8,1-1.4,0.8-1.6c-0.1-0.1,0-0.2,0-0.3c0-0.1-0.1-0.2-0.3-0.5
		c-0.2-0.2-1.6-1.1-2.1-1.3c-0.5-0.2-1.2-0.5-1.2-0.5s0.2-0.2-0.3-0.4c-0.6-0.2-1.1-0.5-1.4-0.6c-0.3-0.1-0.7-0.2-1-0.1
		c-0.2,0.1-0.4,0.1-0.6,0c-0.1-0.1,0-0.2-0.3-0.2c-0.3,0-0.1-0.2-0.5-0.2c-0.4,0-0.3,0-0.7-0.1c-0.3,0-0.3,0-0.9,0
		c-0.5,0-1.8,0-2.6,0.3c-0.8,0.3-1.4,0.7-1.7,0.8c-0.3,0.1-0.6,0.1-0.6,0c0-0.1,0,0,0,0s0.3-0.2,0-0.3c0,0-0.7-0.6,0.2-0.7
		c0,0,0.2,0.1,0.5,0c0.2-0.2,1.9-0.9,2.4-1c0.5-0.1,2.1-0.9,2.4-1c0.3-0.1,0.8-0.1,0.8-0.3c0-0.2,0.1-0.3,0.4-0.3
		c0.3,0,1.2-0.7,1.4-0.9s0.2-0.2,0.1-0.3c0-0.1,0,0,0.1-0.3c0.1-0.3,0.3-1,0.4-1.4c0-0.4,0.1-0.9,0.1-1.2c-0.1-0.3,0.1-1-0.6-1
		c-0.3,0-0.6-0.1-0.9-0.1c0-0.4,0-0.9-0.1-1.1c0-0.4,0.2-0.9-0.1-1c-0.3-0.1,0,0,0,0s0-0.3-0.1-0.6c-0.1-0.3-0.2-0.5-0.4-0.7
		c-0.2-0.2-1-0.5-1.6-0.5c-0.6,0-2,0-2.6,0.2c-0.6,0.2-1.4,0.3-1.8,0.6c0,0,0,0,0,0c-0.1,0-0.2,0-0.3,0c-0.4,0-1-0.5-1.5-0.6
		c-0.4-0.1-2.7-0.7-3.6,0.2c0,0-0.7,0.7-0.2,0.7c0,0,0.5-0.4,0.6-0.3c0.2,0.1,0,0,0,0s0.2-0.1,0.3,0c0.1,0.1,0.2,0,0.3,0
		c0.1,0,0.3,0,0.3,0.1c0.1,0.1,0.2-0.1,0.4,0c0.2,0.1,0.3,0.2,0.4,0.3c0.1,0.1,0.4,0.1,0.6,0.1c0.2,0,0.1,0.1,0.3,0.2
		c0.2,0,0.4,0.1,0.5,0.2c0,0-0.1,0.1-0.3,0.1c-0.2,0-0.3-0.2-0.5-0.1c-0.3,0.1-0.2,0.1-0.3,0.1c-0.1,0-0.1-0.3-0.4-0.1
		c-0.2,0.1-0.3,0.2-0.3,0.2c-0.1,0-0.3-0.2-0.5-0.1c-0.2,0.1-0.2,0.2-0.3,0.1c-0.1,0-0.3-0.1-0.4-0.1c-0.1,0,0-0.2-0.2-0.2
		c-0.2,0.1-0.2,0-0.1,0.2c0.1,0.2,0.1,0.3,0,0.3c-0.1,0-0.2,0-0.2,0s-0.4-0.3-0.7,0.3c-0.3,0.6-0.4,0.3-0.5,0
		c-0.1-0.3-0.5-0.8-0.9-0.2c-0.4,0.6-0.6,0.1-0.7,0c-0.1-0.2-0.4-0.5-0.8,0c-0.4,0.6-0.3,0.3-0.5,0.1c-0.1-0.2-0.4-0.4-0.9-0.1
		c-0.5,0.3-0.6,0.3-0.8,0.3c-0.2,0-0.3,0.3-0.5,0.4c-0.2,0.2-0.2,0.1-0.3,0c0-0.1-0.3-0.3-0.6,0.1c-0.3,0.4-0.4,0.5-0.4,0.7
		c0,0.2-0.2,0.3-0.3,0.2c-0.1-0.1-0.3-0.3-0.4,0c-0.1,0.3-0.1,0.8-0.2,0.9c-0.1,0.2-0.3,0.3-0.4,0.2c-0.1-0.1-0.2-0.3-0.2-0.4
		c0-0.1-0.2-0.2-0.3,0.2c-0.1,0.3,0,0.8-0.1,0.8c-0.1,0-0.1-0.2-0.5-0.2c-0.4-0.1-0.9,0.1-0.7-0.2c0.2-0.2,0.9-1.1,1.1-1.6
		c0.1-0.5,0.1-0.5,0.2-0.7c0.1-0.2,0.9-1.3,1.3-1.5c0.4-0.2,3.1-1.8,3.3-2.1c0.2-0.3,0.3-0.4-0.2-0.2c-0.5,0.2-0.4-0.1-0.7,0
		c-0.3,0.1-0.3,0-0.7,0.2c-0.4,0.2-0.4,0-0.6,0.2c-0.2,0.2-0.4,0.2-0.4,0.2s1.7-1.6,2.8-1.5c0,0,0.8,0,0.3-0.2c0,0-1-0.5-2.4,0.3
		c-1.4,0.8-2.4,1.5-2.4,1.5s-0.3-0.2-0.6,0.1c-0.1,0.1-0.2,0.2-0.3,0.3c0-0.1-0.1-0.2-0.3-0.1c-0.4,0-1,0.1-1,0.1s2.2-0.8,2.3-0.9
		c0.2-0.1,0.2,0,0.2,0c0.1,0,0.2-0.1-0.1-0.2c-0.3-0.1-1.4-0.1-2.1,0.1c-0.7,0.2-2.2,0.7-2.8,1c-0.6,0.4-0.5,0.5-0.6,0.5
		c-0.1,0-0.2,0.3-0.2,0.3s-0.9,0.3-1.1,0.8c-0.2,0.5-0.4,1.6-0.3,2.1c0.1,0.6,0,1.5,0,1.7c0,0.2,0.1,0.2,0,0.4c-0.1,0.2-0.2,0,0,0.3
		c0.2,0.3,0.9,1.5,1.2,1.7c0.3,0.2,0.3,0.2,0.3,0.4c0,0.2,0.3,0.2,0.5,0.4c0.2,0.1,0.9,0.4,0.8,0.5c-0.2,0.2-0.3,0-0.4,0
		c-0.1,0-0.1,0-0.3,0c-0.1,0-0.2-0.1-0.3-0.1c-0.1,0.1-0.3,0.3-0.7,0.3c-0.4,0-0.9,0-1.4,0.5c-0.5,0.5-0.8,0.8-0.9,0.9
		c-0.1,0.1,0.1,0.2,0,0.2c-0.1,0.1-1.9,1.5-2.2,2.1c-0.3,0.5-0.4,0.5-0.4,0.7c0,0.2,0,0.2,0,0.4
		C485.5,270.1,485.5,270.1,485.9,270.5z M515.7,260.3c0,0.2-0.2,0-0.3-0.3c-0.1-0.3-0.3-0.6-0.5-0.6c-0.2-0.1-0.1,0.1-0.3-0.1
		c-0.2-0.2-0.2-0.3-0.4-0.5c-0.2-0.2-0.1-0.3-0.4-0.2c-0.3,0-0.3,0.2-0.3,0c-0.1-0.1-0.1-0.3-0.3-0.4c-0.2-0.1-0.4-0.3-0.7-0.4
		c-0.3-0.1-0.5-0.1-0.7-0.3c-0.1-0.1-0.2-0.2-0.4-0.3c0.6,0,1.4-0.1,1.6-0.1c0.3,0,1.6,0.1,1.9,0.1c0.4,0,0.6-0.1,0.6,0.3
		C515.6,258,515.7,260.1,515.7,260.3z M510.5,266.6c0,0,0.4-0.4,0.4-0.5c0-0.1,0.1-0.2,0.3-0.2c0.2,0,1.2-0.4,1.7-0.7
		c0.5-0.3,1.9-1,2.3-1.3c0.3-0.3,0.8-0.7,0.9-0.9c0.1-0.2,0.8-1,1.2-1.6c0,0.1,0,0.2,0,0.2c-0.1,0.3-0.5,2.1-0.5,2.4
		c0,0-0.6,0.5-0.8,0.5c-0.1,0-0.1-0.1-0.2-0.1c-0.2,0-0.9,0.5-1.7,0.8c-0.8,0.4-1.5,0.8-1.9,1C511.6,266.4,510.6,266.6,510.5,266.6z
		 M509.5,259.6c0,0,2.9,1.3,3.2,1.7l0,0.1c0,0-0.4,0.1-0.6-0.1c-0.2-0.2-0.2-0.2-0.2,0c0,0.2-0.1,0.3-0.2,0.4c-0.1,0-0.1,0-0.2,0.1
		c-0.1,0-0.1-0.3-0.1-0.4c-0.1-0.1-0.2-0.5-0.2-0.3c0,0.2-0.1,0.5-0.3,0.4c-0.2-0.1-0.3-0.1-0.3-0.1c0-0.1-0.1-0.8-0.2-0.9
		c-0.1-0.1-0.2-0.4-0.3-0.2c-0.2,0.2-0.3,0.2-0.4,0.1C509.6,260,509.5,259.6,509.5,259.6z M492.4,259.1c-0.1,0.2-0.3,0.6-0.3,0.6
		s0.2-2.1,0.1-2.5c0,0,2-0.6,2.9-1c-0.5,0.4-1.1,0.9-1.3,1.1c-0.3,0.3-0.8,0.5-1,0.9C492.6,258.7,492.5,258.9,492.4,259.1z"/>
	<polygon class="st6" points="299.1,134.8 299.1,134.8 298.7,135.1 296.7,137 295,137.4 292.1,137.1 290.7,136.6 290.5,135.9 
		290.5,135.8 290.5,135.8 291.1,134.6 291.8,133.1 291.4,132.5 289.3,132.5 287.5,132 287.2,130.8 286,124.6 285.6,123.7 
		285.9,123.6 287.3,124 289.5,122.9 290,122.5 290,122.5 291.3,121.4 291.3,121 290.2,121 290.1,121 285.3,121.4 284,122.2 
		280.1,120.5 275.8,117.2 271,113.6 268.3,112.1 264.1,111.5 260.5,112.1 256.6,113.3 251.7,114.3 244.5,114.8 234.6,113.5 
		228.6,111.5 227.2,111.6 220.1,114.3 214.2,114.3 212.5,115.5 206.7,123.4 206.4,124.6 206.4,124.6 206.3,124.9 206.3,124.9 
		205.7,127.4 205.7,134.4 207.4,138.2 207.4,138.7 208.3,141.5 208,144.1 206.7,148.1 206.7,149.8 207.9,150.4 207.9,150.4 
		208.2,150.6 209.1,152.4 209.1,152.4 209.5,153.4 209.2,155.8 209.5,156.5 210.5,156.6 210.5,156.6 216.1,157 216.1,157 
		217.6,157.2 217.7,157.1 217.7,157.1 218.7,156.4 218.8,155.8 218.2,154.8 216.8,154.2 214.9,153 214.5,151.4 215.4,147.7 
		215.6,146.5 215.6,146.5 216.7,148.6 217,152.1 217.2,153.3 218.5,153.8 220.3,154.5 221.2,155.4 221.7,157.9 222.7,158.4 
		225.5,158.9 230.6,159.2 231.6,158.5 231.6,158.4 231.6,157.5 230.1,155.7 230.1,155.7 230.1,155.7 227.4,154.6 227.4,154.6 
		226.7,154.3 225.2,151.3 223.4,146 223.2,144.9 223.2,143.8 225.7,141.4 226.3,139.6 227.3,139.8 235,144 239.6,145.9 249.2,145.8 
		256.4,145.3 259.1,143.1 259.9,143 259.9,143 260.5,142.9 260.6,143 260.6,143 260.7,143.1 260.8,143.4 260.8,143.4 261.7,144.9 
		262.5,146 262,150.5 262.1,152.8 262.6,154 262.6,154 262.7,154.4 262.1,155.6 262.1,155.6 262,155.9 262,156.4 262,156.9 
		264.5,158.2 268.1,158.4 271.2,158 271.2,157.7 271.2,156.2 271.2,156.2 270.9,156 274.1,155.9 274,155 273.3,153.9 272,153.2 
		271.3,150.5 271.5,148 272.3,143.9 273.2,140 273,139.3 273,139.1 274,138.8 275.2,139.2 275.2,139.2 275.2,139.2 275.9,139 
		276.2,138 276.4,138 276.8,138 279.4,140.3 281.6,140.6 282.2,140.7 282.9,141.7 284.3,144.4 287.7,147.1 289,147.1 290.6,146.6 
		290.6,146.6 292.5,145.9 293.3,144.5 293.8,143.8 292.8,142.3 292.8,141.3 292.9,141.2 292.9,141.2 292.9,141.2 293.3,141 
		293.3,141 294.4,140.4 296.9,139.8 298.2,137.5 299.3,135.3 299.3,134.7 	"/>
	<polygon class="st6" points="192.4,409.6 191.6,406.8 191.1,405.5 190.5,405.3 190.4,405.1 190.2,402.2 190.7,397.8 191.1,393.4 
		191,388 190.3,384.9 190,384.1 190,383.3 186.8,380.9 183.7,380 179.7,377.9 174.6,374.5 172.6,373.4 171.3,370.8 170.2,367.3 
		168.9,366.7 168.3,365.9 166.9,364.7 165.3,362.3 163.2,356.1 161.4,349.9 158.9,342.6 158,339.6 157.3,338.8 158.5,337.8 
		158.8,336.3 158.3,336 157.1,336.5 155.9,337.4 154.6,336.5 154.5,335.8 155.5,334 155.9,334.1 156.3,333.5 155.3,332.7 154,332.7 
		154,333.1 154.2,333.5 153.6,334.8 153,335.7 152.7,335.8 152.6,333.5 152.6,333.5 152.6,333.3 153.1,333 153,332.6 151,332.7 
		150.7,333 151.2,333.4 151.2,333.7 151.2,334.4 151.2,336.2 150.1,336.1 149.4,336.7 148.5,338.1 147.1,338.6 145.1,339.7 
		143,341.3 142.2,342.4 142.7,343.6 142.7,343.9 142.7,343.9 142.8,344 142.9,344.5 143.7,344.4 146.8,344 148.3,344.1 150.5,344.1 
		151.5,343.8 153.1,345.3 154.4,351.6 154.9,358.8 155.2,360 155.8,362 155.8,362 156.6,365.1 158.6,371.9 158.7,378.7 158.1,382.9 
		159,387.5 159.8,388.6 160.1,392.2 160.5,396 162,399.9 162.4,403.2 162.5,405 162.4,406.3 162.3,407.1 162.8,408.2 163.2,409.3 
		163.5,412.9 163.5,419.5 163.6,420.3 162.8,421.3 162.3,422.8 162.1,424.6 162.4,424.9 163.4,424.9 163.3,424.9 163.2,426.1 
		164.8,426.5 167,426.2 167.9,425.8 167.9,425.2 167.8,424.9 167.8,424.9 167.4,423.7 167.8,423.5 167.8,423.5 168.4,423.2 
		168.9,422.2 168.2,420 167.6,413.4 167.4,409.1 168,408.2 168,407.8 168,407.8 167.7,405.9 168.5,399.1 169.5,396 169.9,396.3 
		169.9,396.3 171.8,397.7 177.5,399.1 178.2,398.8 178.9,403.1 180.5,407.6 181.3,410 180.9,411.9 179.1,419.5 178.5,422.5 
		177.8,423.3 177.1,425 177.7,425.4 179.6,425.4 180.6,425.2 180.6,424.4 180.6,423.9 181,423.1 181.4,422.6 180.9,421.3 
		181.2,418.7 182.8,414.1 184.3,410.8 184.7,409.6 184.8,410.9 185.7,413 185.4,417.6 184.8,422.7 184.4,423.7 183.5,425.2 
		183.5,425.2 183.5,425.2 183,427 184.8,427.3 186.9,427.5 187.4,426.7 187,424.8 187.9,424.2 187.9,422 187.8,418.6 188.1,414.1 
		188.2,413.9 188.2,413.9 188.9,410.8 187.9,408.2 188,401.6 189.8,395.3 190.2,391 190.5,393 190.1,396.4 189.7,400.4 189.6,403.6 
		190.1,405.5 189.8,406.1 190.2,408 190.7,410.2 191.5,412.6 191.5,415.6 191.2,417.1 192.1,416 192.6,412.2 	"/>
	<path d="M370.6,303c0,0,3.9-0.9,4.6-5.6c0,0,0.3-3.9,0.1-4.9c-0.2-1,0.3-5,0.3-5l0-3.7c0,0,1.2,0.7,1.8,0.9c0,0,2.8,0.6,3.4,0.1
		c0,0-0.3,0-1.3-0.3c0,0-0.7-0.2-1-0.4c0,0-2.4-1-2.4-2.1c0,0-0.2-2.8-0.2-3.6c0-0.8-0.7-5.3-1.2-6.2c-0.5-0.9-3-7.3-4.2-8.4
		c-1.2-1.1-2.8-3.5-5.8-3.3c-3,0.2-3.8-0.2-4.4-0.2c-0.5,0-3.5-0.4-6.6,2.4c0,0-2.8,1.3-4.3,1.8c-1.5,0.5-4.7,1-6.7,0.9
		c-2-0.1-5.5-0.5-9.2,1.7c-3.7,2.2-7,7.3-7.6,8.6c-0.5,1.4-1,5.9-0.8,7.9c0.2,2-0.6,5.8-0.5,7.5c0.1,1.6-0.7,5.3-1,6
		c-0.3,0.7-0.6,3.9-1.1,4.6c-0.5,0.7,0.1,1.1-0.4,1.6c-0.5,0.5-0.7,2.8,0.4,2.8h5.1c0,0,2.1-0.4,0.8-1.5c0,0-1.2-0.8-1.2-3.3
		c0-2.5,1.2-5.7,1.2-5.7s2.4-3.4,3.5-3.7c0,0,1.7,1.5,3,1.5c0,0,0.5,2.4,0.8,3.2c0,0,0.5,3.2,0.2,3.9c-0.4,0.7-0.2,1.7-0.2,2.1
		s-0.4,2.5,0.9,2.5l4.5,0.1c0,0,2.4-0.7,0.6-2c0,0-1.3-0.4-1.6-4.1c-0.4-3.7,0.2-6.8,0.7-7.6c0,0,8.6-2.1,10.6-4.4
		c0,0,0.9,1.8,1.8,2.8c0,0,0.9,4.3,0.7,5.5c-0.2,1.3,0,3.1,0,3.7c0,0.6,0.7,1.6,0.4,2.5c-0.4,0.8-1.6,3-0.9,3.5c0,0,5.3,1,6.3-0.2
		c0,0,0.2-1.2-0.7-1.6c0,0-0.8-0.1-0.8-1.3c0-1.2,0.5-6.8,0.5-6.8s0.9,1,1.9,1.7c1,0.7,2.4,2.1,2.2,3c-0.2,0.9-0.5,2.3-0.8,2.6
		c-0.4,0.4-0.3,1.5,1,1.4c0,0,4.3-0.5,4.5-1c0,0,0.5-1-0.3-1.5c0,0-1.6-1.9-1.7-3.1c-0.1-1.2-1-3.1-1.6-3.8
		c-0.6-0.7-2.7-3.5-3.4-5.8c-0.6-2.4-1.3-4.4,0.4-8.9c0,0,1.4-0.5,1.1-0.9c0,0,1.6,0.2,1.5-0.8c0,0,0.7,0,0.9,0.5
		c0,0,1.3,0.8,0.8-1.7c0,0,0-0.2,0.6-0.2c0.6,0.1,2,0.1,2.5,0.5c0.5,0.5,0.4,0.5,0.6,0.8c0.2,0.3,0.6,0.4,0.9,0.5
		c0,0,0.4,1.2,0.7,1.5c0.3,0.3,0.2,1.4,0.3,2.4c0.1,1-0.2,1.7,0.2,2.6c0.3,0.9,0.2,1.3,0.4,2c0.2,0.6,0.5,3,0.5,3.6
		c0.1,0.6,0.4,2.4,0.5,2.9c0.1,0.6,0,1.4,0.1,2.2c0.1,0.8,0.2,1.3,0,2.2c-0.2,0.9-0.4,1.9-0.8,2.2c-0.5,0.3-1.1,0.3-1.4,0.2
		c0,0-0.1,0.1,0,0.2c0,0,1,1.3,0.1,2.1C370.4,302.7,370.3,303,370.6,303z"/>
	<polygon class="st6" points="671.7,206.1 671.7,206.1 671.6,205.5 669.2,203.9 668.4,203.2 668.1,202.6 666.2,201.8 665,201 
		665.3,199.5 665,199.3 664,200.1 664,198.8 663.6,198.5 662.8,199.5 662.6,200.4 662.5,200.3 660,202 657.9,205.1 655.4,210.2 
		653.7,211.1 653.2,211.1 653.2,211.1 653,211.2 650.7,211.4 650.7,211.4 650.6,211.4 650.6,211.4 649.8,211.5 647.8,212.1 
		647.8,212.1 647.3,212.2 647,212.3 647,212.3 646.9,212.4 646.5,212.4 646.5,212.4 645.8,212.4 645.8,212.4 645.6,212.4 
		645.4,212.4 645.4,212.4 644.8,212.4 644.8,212.4 644,212.5 644,212.5 641,212.6 640.5,212.6 640.5,212.6 639.9,212.6 639.9,212.6 
		639.7,212.6 639.5,212.6 639.5,212.6 638.8,212.6 634.8,212.7 630.8,212.4 627.4,212.8 624.7,214 623.1,218.3 621.9,223.4 
		620.9,226.7 620.7,227.4 620.7,227.4 620.7,227.6 619.6,229.3 617.8,230 617.8,230 617.3,230.2 617.3,230.1 617.3,230.1 
		615.6,229.7 615.6,229.7 615.4,229.7 614.7,229.1 614.7,229.1 614,228.5 614,228.3 614,228.3 613.9,226.5 613.8,225.8 613.1,225.6 
		613.1,225.6 613.1,225.6 612.4,226.1 612.6,227.9 613.3,230.2 615.1,231.4 617.5,231.7 620.5,231.2 621.9,229.3 622.8,227.4 
		622.9,227 622.9,227 623.4,225.4 623.4,225.4 623.6,224.6 623.7,224.1 624.1,223.5 624.9,226.3 624.9,229.1 624.7,231.5 
		623.3,233.3 623.5,234.7 623.9,235.2 623.9,235.2 624.8,236.3 626,240.1 627.2,240.6 627.6,241.8 630.6,242.5 631.6,242.2 
		631.6,242.2 631.8,242.1 631.9,241.7 632,241.7 632,241.7 632.4,241.6 632.1,240.4 631.3,239.6 629.2,239.2 628.5,237.9 
		628.5,237.9 628.4,237.5 627.6,235 628.5,233.4 628.9,233.1 629,233.4 630,234.3 631.4,237.2 631.6,239 632.1,239.7 632.1,240.4 
		633.2,241 635.7,241.1 636.1,240.9 636.1,240.9 636.5,240.6 637,240.6 636.7,239.2 635.8,238.8 634.6,238.4 633.1,234.8 
		633.4,233.7 634.9,231.8 636.6,229.2 637,226.3 637.1,226.3 638.9,226.5 644.1,227.9 649.6,227.9 654.2,227.1 655,227 655.7,229.3 
		655.9,235.1 655.9,238 655.7,238.7 656.8,239.4 656.8,240.2 657,240.9 658.5,241.1 658.8,241.1 658.8,241.2 659.6,242 662,242.1 
		662,242.1 662,242.1 662.4,241.7 663.4,241.8 664.3,241.5 664.2,240.4 663.4,239.9 662,239.2 661.3,236.6 661.4,230.5 662.3,226.6 
		664.1,221.7 664.6,217.6 664.4,216.1 665,212.8 666.2,209.3 667.2,209.2 668.9,210 669.9,209.9 670.6,209.2 670.7,208.6 
		670.7,208.6 670.7,208.5 670.7,208.4 671.3,207 671.3,207 671.4,206.8 671.8,206.3 	"/>
	<path class="st6" d="M284,471l0.9,2l0,0l0.1,0.2l0,0.9l3,0.3l0.4,0.1l0,0l1.4,0.3l0,0l2.8,0.6l3.2,0.3l3,0.1l2.2,0.7l0.9,0.3
		l0.8,5.2l0.5,4.4l-0.6,3.8l-0.4,0.9l0,0l0,0.1l-1.4,0.3l0,0l-1.6,0.4l-0.4,1.5l3.1,0.3l4.7-0.9l0.9-2l0.8-1l0.1,0.4l-0.4,1.3l0,0
		l-0.1,0.4l-1.3,0.8l-1.3,1l0,0.9l0.2,0c0,0,0,0,0,0l1.4-0.1l3.3-0.1l4.7-0.5l0.2-1l-0.5-0.8l0.9-0.8l0.9-1.5l0.3-1.7l0.8-3.6l6.9,1
		l1.3,0l0.8,0.5l0-0.5l1.5,0l0.4,0.2l0.8,0.1l-0.2-0.4l0.5,0l1,0.3l0-0.4l0.9-0.2l0.4,0.1l0.2,4.6l-1.6,0.6l0,0l-1,0.4l-0.8,2
		l2.3-0.1l4.7,0.1l1.8-0.2l0.4-0.1l-0.5,1.1l2,0.1l3.1-0.4l3.9,0.2l3.3-0.6l0.6-0.7l-0.3-0.7l0,0l-0.4-0.9l-0.2-7.7l-0.1-3.5l1-4.3
		l-1.1-4.6l2.1,1.1l0.1-1.7l-0.7-2.8l-1.5-1.9L347,464l-1,0l-0.5-0.6l-4.3-2.5l-5.2-2.4l-4.3-0.2l-5.8,1.3l-4.2,1.5l-4.2,0.8
		l-3.8-0.7l-3.1-0.6l-1.9,0l-3.8,1l-6.7,2.7l-3.7,1l-0.2-0.4l-0.8,0.4l-0.3,0.3l-2.2,0.5l-1.1,1l0,0l0,0l-1.2,1.6l-2.9,1.1l-1.2,0.4
		l0,0l-0.7,0.3L284,471z M341.3,490.2l-1.3,0.5l-0.3,0.1l-0.3-2l-0.2-3.9l0.7-1.6l0.3,0.4l0.9,2.7l0.3,3.5l0,0L341.3,490.2z"/>
	<polygon class="st6" points="485.8,512.4 486.7,512.1 487.5,512 487.3,511.8 486.9,510.9 486.9,510.6 486.9,510.6 487,509.8 
		488.4,508.1 489,507.4 489,507.4 489.1,507.2 491,505.2 492.1,504.2 492.9,504.1 495.3,503.9 497,503.5 498.8,502.3 501.1,501.6 
		502.6,501.5 503.1,501.4 503.6,500.6 504.6,500.5 505.3,500.7 505.6,501.3 508.5,501.7 509.7,502.4 509.7,502.5 509.7,502.5 
		509.9,503.1 509.5,503.7 508.7,504.1 508.6,504.7 507.4,506.1 506.3,507 508.1,507.9 509.1,508.8 509,509.2 508.5,508.9 507,508.1 
		506.6,508.3 507,509.1 507.3,510 506.8,510.1 506.2,509.1 505.9,508.5 505.3,508.8 504.6,508.7 504.6,508.6 504.1,509.3 503.3,510 
		503.2,510.4 504.5,511.2 505.9,512.6 506.3,513.1 506.7,512.8 507.1,511.9 508,511.5 508.2,511.7 507.7,511.9 507.3,512.6 
		507.1,513.4 506.9,513.9 508,513.2 508.7,512.5 509.4,511.4 509.8,511.3 510.1,511.7 509.8,511.9 509.1,513.2 508.5,514 
		509.9,513.5 510.6,513.5 510.8,513.7 510.2,514.3 509.1,514.6 508.2,515.3 507.4,515.6 505.9,515.7 504.9,515.3 503.6,514.8 
		502.2,514 500.5,512.9 500,512.4 500,512.4 499.8,512.1 498.9,512.6 495.9,513.1 496.5,514.4 496.5,514.4 496.8,514.9 496.5,515.6 
		498.1,515.9 498.5,516.2 498.4,516.4 498.1,516.2 497,516.1 496.1,515.9 495.7,516.1 496.3,516.3 497.9,516.6 499.7,517.3 
		500.9,517.9 500.9,518.1 501.2,518.2 502.5,518.9 503.5,519.6 503.3,519.8 502.4,519.4 500.9,518.9 498.5,518.2 496.7,517.8 
		497.4,518.1 498.8,518.5 498.8,518.5 498.8,518.5 499.2,519.3 498.8,519.5 498.1,518.9 495.6,518.5 491.4,517.5 489.4,516.8 
		487.8,515.6 486,513.8 485.5,513.4 	"/>
	<path class="st6" d="M669.5,408.5l1.5-0.9l2.3-0.8l1.2-0.9l0.6-1l0.4-1.4l0.7-1.3l0.9-0.8l0.1,0.3l-0.8,0.9c0,0-0.2,1.2-0.2,1.3
		c0,0.1,0.1,1.2,0.1,1.2l-0.2,1.7l-0.8,0.9l-2,1l-1.1,0.5l-0.3,0.2l0.2,0.8l0.7,0.5l0.5,0.1l0,0l0.5,0.1l2.8-0.5l2.5-0.6l2.2-0.3
		l1.8,0.3l1.1,0.5c0,0,0,0,0,0l0.7,0.3l1,1l0.2,1.4l-0.3,1.7l1.3,0.1l1.4,0.7l1.5,0.3l-0.1-0.8l-0.1-0.1v0l-1-1.6v0l-0.6-0.9
		l-2.3-4.3l-1.1-3.2l0.1-4.3l0.8-2.6l1.2-1.2l1.7-1l0.7-0.2l0.5-0.5l1.3-0.5l2.6-0.5l2.1-0.6l0.8,0.3l0,0l0.8,0.3l0.9,0.4l0.3,0.7
		l-0.2,0.6l-0.3-0.1l0.3,0.2l0.8,0.5l1,0.9l0.8,1l0.5,0.9l-0.1,0.1l-0.6-1l-0.4-0.5l-0.2,0l0.2,0.4l0.5,1.4l-0.1,0.1l-0.4-1.1
		l-0.6-1.1l-0.7-0.8l-0.8-0.5l-0.3-0.1l-0.1,0.5l-0.5,0.6l-1.3,0.4l0.6,2.1l-0.1,3.1l-0.8,5.3l-0.9,4l-0.4,1.4l0.6,3.3l-0.5,2.8
		l-1.3,1.3l-2.8,0.3l-2.7-0.7l-1.6-0.9l-0.9-0.5l-1.1,0.2l-3.5,1.9l-2.6,0.7l-2.8-0.6l-1.7-1.4l-0.9-2.3l0-1.7l1-1.4l1.6-0.9
		l-1.4-0.3l-2-0.4l-1.3-0.5l-0.9-1.2l-0.4-1.3L669.5,408.5z"/>
	<path class="st6" d="M678.4,491.4l-2.8-1.4l-1.2,0l-0.6-2.1l0-0.2l0,0l0.1-0.5h0l0.2-1.1v-0.5v-0.5v-1.8V483l-0.6-2.7l-0.2-0.7
		l-0.1-0.5l0,0l-1.4-5.1l-2-2.8l-1.9-1.7l0,0l0,0l-2.3-2l-2.5-0.4l-0.2,0l0,0l-1.7-0.3h-0.9h-0.5h-0.3h-0.7h-2.6h-0.6l-2,0.2
		l-0.9,0.5l0,0L652,468l0,0l-0.2,0.1l-1.2,0.6l-0.6,0.3l0,0l-1.2,0.6l0.2-1.4l-0.3-3.8l-0.9-1.5l-0.8-0.4l0,0l-0.1,0l-1.9,0.5
		l-0.8,1.7l-1.2,1.4l-1.4,1.2l-0.5,1.2l-0.3,0.5l0,0l-0.1,0.1l-0.7,0.3l-0.4,0.8h0l-0.1,0.1l-0.8,0.5l-1.4,0.7l-1.6,0.8l-0.3,0.8
		l0,0l0,0.1l0.3,0.8h0l0.2,0.5l0,0l0,0l1.7,1.4l3.2,1.4l2.7,1.4l1.1,0.3l1-0.5l0.1-0.1l2.4,1l0.2,0.2l-0.8,0.2l-1.7,0.8l-1.7,1.2
		l-0.1-0.1l-1.4,0.2l-1.3,0.2l-0.6,0.9l0,0l0,0l0.1,0.3l-0.8,0.3l-2.1,0.2l-2.2-0.2l-0.7,2.7l0.2,0l0,0l3.5,0.5h2.7l1.8-0.4l1.6,0.6
		l0,0h0l-0.7,1.1l-1.3,1.6l0.7,0.2l1.6-1.2l1.4-1.2l2.1,0.4l1.5,0.5v0.1l0.5,0.6l0.6,0.2L651,489l0,0l0.6,0.3l0.4,0.7l0.5,0.2
		l-0.1-0.5l0.7,0.3l3.9,1.4l1.4,0.4l-0.1,1.3l0.6,0.2l1-1.1l0.4,0.1l3.9,0.3l3.3,0.4l0.8-0.1l0.9,3.1l0.1,3.2l-0.8,1.5l-1.7,1.2
		l-1.8-0.2l-1.3-0.6l-0.5-1.9l0.2-2.2l1.3-0.5l1.3,0.2l1.2,1.2l0.2,1.2l-0.8,1.1l-0.9,0.2l-0.6-0.7l-0.3-0.9l0.4-0.4l0.4,0.1
		l-0.2,0.5l0.7,0.8l0.5-0.2l0.3-0.7l-0.8-1.2l-1.3-0.2l-0.8,0.6v1.8l0.5,1.3l1.3,0.5l1.5-0.2l1.4-1.3l0.4-1.8l-0.6-1.9l-1.8-2.2
		h-2.5l-3.2,1.3l-0.9,4.2l0.9,2.5l3,2.1l3,0.7l2.3-0.6l3.3-2.8l0.2-0.3l0,0l1.8-2l0.8-2.4v-0.3V496v-0.8v-0.5l0,0h0l-0.2-0.8
		l-0.1-0.3h0l-0.3-1.6l2.8,0.9l0.2-0.4l0,0L678.4,491.4z M645.2,483.7l0.1-0.2l-0.1-0.2h2l2.6-0.7l1.1-0.8l0.5,0.4l-0.1,1.2l0.2,1.5
		l-0.8,0.7l-0.2,0.3l-4.6-1.7L645.2,483.7z M653.2,487l0.7-0.3l0.1-0.7l0,0l0-0.1l0.8-1.6l0.1-0.4l1.9,0.7l3.1,0.5l-0.2,0.5
		l-0.6,1.5l-2.3,0.6l0,0.3l-3.2-1L653.2,487z M661,489.6l0-0.7l1.6-1.8l0.9-1.7l0.1,0l0.5,0.3l0.2,0.9l1.1,0.8l0.9,0.3l0.7,0.9
		l0.3,1l-2.5,0.3l-3.5-0.2L661,489.6z"/>
	<path class="st6" d="M662.3,330.2l-3.5-2.1l-1.4,0l-0.4,0.3l-0.1,0.2l-5-4.6l-2.6-6l-1.8-6l0,0l-0.6-1.9l-3.3-4.5l-2.6-2.2
		l-4.2-2.1l-1.7-0.2l-5.1,0.5l-5.3,0.1l-9.2-0.5l0,0l0,0l-1.4-0.7l-1.2-1.4l-1.3-0.9l-2.2-2.2l-3.4-3l-3.2-3.5l-1.8-0.8l0,0
		l-0.3-0.1l-3.2,0.4l-5.1,1.6l-0.6,1.1l-0.4,1.3l0.7,0.9l-1,1l-1.3,1.2l-0.3,0.5l-3.3,3l0,0.4l0.6,0.8l0.5,0.9l0.5,0.3
		c0,0-0.1,0-0.1,0l0.2,0.2l0.2,0l0.1,0.3l0.6,1.2l0.7,0l1.6-0.7l0,0l0.3-0.1l0,0l0.6-0.3l1.1,1.4l0,1.3l0.2,4l0,0.1l0,0l-0.2,0.9
		l0.5,0.3l0.8-0.4l0.7,1.5l0.2,1.1l0.7,0.4l0.6,0.3l-0.3,0.7l-0.1,0.9l0.3-0.3l0.4,0l0,1l0.3,0.9l0.3-0.2l0.7,0l0.4,1.3l1.8,3.1
		l1,0.9l1,1.7l0.1,4.1l0.1,5l-0.5,1.1l-1.5,0.9l-1.5,1.6l0,0.6l0.9,0.1l0,0l0.2,0l0.2,0.4l4.2,0l1.6-0.5l0.1-1.1l2.3,0l1.2-0.7
		l0.2-1.8l0.8-0.7l0.1-1.8l-0.5-1.2l-0.1-4.4l0.7-2.7l2.6,0l3,0.5l1.6-0.2l0.7-1.1l1.7-0.2l3.5-1l3.7-1.6l3-1l3,0.7l1.1,0.9l0,0
		l0.1,0.1l1.4,3.8l1.1,3.6l2.6,3.5l0,1.1l-3.7,3.5l-1.1,0l-0.7-0.2l-0.9,0.6l-0.5,0.2l-0.2,0.2h0l-0.5,0.6l0,0l-0.2,0.3l-0.2,0.6
		l2.4,0.5l2,0.1l2.7-0.7l2.9-3l3.1-3.4l-0.8-2.2l-0.1-1.9l1.3,1.8l0.8,2.5l-1.6,3.1l-1,0.3l-1,0l-1,0.2l-0.7,0.9l-0.3,1.2l1.9,0.4
		l3.1,0l1.8-0.9l1.5-4.4l1.7-1.4l0.3-1.2l-0.6-1.2l-1.9-3.3l-2.2-6.9l0-3.3l-0.2-2.3l1.7,5.1l0.9,2.5v0l1.3,3.6l3.5,3.4l2.6,2.1
		l-0.1,0.2l1.3,1.9l1.6,0.5l2.1-0.3l1.9-0.1L662.3,330.2z"/>
	<polygon class="st6" points="258.5,247.3 257.4,245.6 257.3,243.5 257,241 256.3,239.9 255.7,240.2 254.7,235.1 254.9,227.6 
		254.4,222.2 254.4,222 254.4,222 254.1,221 254,220.9 254,220.9 253.6,219.7 253.6,219.7 253.4,218.9 253.4,218.9 252.8,216.8 
		247.5,212.3 246.8,212 246.8,212 243.3,210.4 237.7,211.3 236,211.4 236,211.4 234.3,211.4 234.3,211.4 232.7,211.5 232.7,211.5 
		231.9,211.5 231.9,211.5 226.8,211.6 223.4,211.1 223.4,211.1 222.7,211 222.7,211 221.6,210.8 221.6,210.8 220.7,210.7 
		219.4,210.5 219.4,210.5 219.1,210.4 218.8,210.3 219.6,209.1 219.2,208.9 219.2,208.9 218.4,208.4 218.4,208.4 218,208.2 
		217.7,207.9 217.7,207.9 216.5,206.8 216.5,206.8 216.1,206.5 215,205.5 215,205.5 214.3,204.9 214.3,204.9 213.8,204.4 
		212.9,203.8 212.9,203.8 212.5,203.5 212.5,203.5 211.2,202.7 209.2,201.3 209.2,201.3 208.1,200.6 207.6,200.2 207.6,200.2 
		206.5,199.4 206.5,199.4 205.6,198.7 203.7,197.3 203.1,197.2 203.1,197.2 202.9,197.2 200.5,196.7 200,196.6 200,196.6 
		199.4,196.5 199,196.4 199,196.4 198,196.3 196.5,196.1 196.5,196.1 195.9,196 193.8,195.7 192.9,196 192.6,196.1 192.6,196.1 
		191.2,196.6 191.2,196.6 191.1,196.7 189.4,197.3 186.1,199.5 186.1,199.5 185.6,199.9 185.6,199.9 185.1,200.2 185.9,200.7 
		187.1,201.7 186.7,202.3 185.8,204.3 185.2,205.4 184.4,206.8 181.4,211.2 181.3,212.8 181.4,212.9 181.4,212.9 182.9,214.5 
		183.8,215 184.4,215.8 185.1,215.6 186.3,215 186.7,214.3 187.7,213.4 188,213.3 188,213.3 188.1,213.2 189.4,212.8 189.7,212.7 
		189.7,212.7 189.8,212.7 190.3,212.5 190.3,212.5 191.3,212.1 191.3,212.1 192.1,211.8 192.2,211.7 192.2,211.7 193,210.8 
		193,210.8 193.2,210.6 193.5,210.2 193.5,210.2 193.9,209.8 194,210 194,210 194,210 194.7,211.5 194.7,211.5 194.7,211.6 
		195.3,212.8 196.2,214.4 196.2,214.4 197.1,216 197.1,216 198.5,218.4 198.8,218.8 198.8,218.8 201.3,222 201.3,222 201.5,222.3 
		205.1,224.1 206.4,227.3 206.4,227.3 206.9,228.6 208.1,230.3 208.4,230.5 208.9,233.4 209.6,237.4 209.3,239.4 210,241.6 
		210.7,242.3 211.3,246.8 211.5,250.2 211.4,251.6 209.9,253 209.3,253.7 209.1,254.6 210.6,255.2 211.7,255 210.7,256.1 
		210.7,257.5 212.1,257.6 214.6,256.8 214.7,255.3 214.8,255.3 214.8,255.3 215.5,254.1 216.3,253.5 215.7,250.7 215.5,242.6 
		215.9,241.8 215.9,239.5 215.9,239 215.9,237.6 215.9,237.2 215.9,236.4 216.1,234.9 216.1,234.9 216.1,234.8 216.2,234.5 
		216.2,234.5 216.5,232.3 216.6,232.1 216.6,232.1 216.7,231.9 216.8,231.7 217,231.3 218.4,231.1 219.3,231.6 219.5,231.6 
		219.5,231.6 221.1,232.4 221.1,232.4 221.6,232.7 222.8,233.2 228.4,234 229,233.9 229,233.9 230.6,233.8 230.6,233.8 232.5,233.7 
		232.5,233.7 233.4,233.6 233.4,233.6 234.8,233.5 235.7,233.5 235.7,233.5 236.7,233.4 236.9,233.3 238.5,235.6 241.1,238.3 
		242.7,239.5 244.2,241.2 244.6,244.3 243.2,249.8 242.7,252 240.6,252.9 239.7,254.7 239.6,255.3 241.6,255.5 243.5,255.3 
		244.2,253.7 244.2,253.2 245.4,252.6 245.8,250.9 246,247.2 246.7,244.7 247,245.3 247,250.5 247,250.5 247,250.6 245.6,254.4 
		245.1,255.2 243.9,256 243.4,257.7 245.2,258.3 247.4,257.6 247.8,256.6 248.2,255.5 249.2,255 249.6,252 251.2,244.5 251.4,243.3 
		250.8,242.2 250.2,240.8 250.2,240.8 250.2,240.6 249.6,239 249.6,238.7 249.6,238.4 249.6,238.3 249.6,238.3 249.7,234.8 
		251.7,231.8 252.9,228.8 252.9,228.8 253.5,227.4 253.5,231.9 254.2,236.3 255.1,240.5 254.9,240.6 254.5,242.3 255.5,245.3 
		256.9,247.3 258.6,248.3 259.4,248 	"/>
	<path class="st6" d="M573.8,522.5l-0.9-0.4l-0.8-0.8l-0.5-0.4l0.1-0.1l-0.4-0.9l-0.8-1l0.1-0.5l-1.1-1.2l-1.1-1.6h-0.4h-0.1v-0.2
		l-1.4-0.8l-1.8-1.1l-1.2-1l0-0.5l-1.3-0.4l-0.8,0.4l2.1-3.1l1-2.3l-0.2-0.3l0,0l-0.3-0.5l0.5,0.1l1.6-0.8l1-1.5l0.5-1.3l-0.9-1.3
		l0.1,0l0.4-0.8l0.2-1.7l-0.1-2l-0.5-1.6l-0.3-1.1l-0.6-0.3l0.2-0.4l-0.3-2.1l-0.6-1.5l-0.8-1.3l-0.8-0.7l0,0l0,0l-0.6-0.2l-0.3,0.1
		l0-0.4l-0.5-1.5l-1.6-2l-2-1l-2.2-0.5l-0.6,0.1v0l-0.5,0.1l-0.3,0.2l0-0.2l-0.8-0.4l-2.6-0.2c0,0-1.6,0.7-1.8,0.7
		c-0.2,0.1-1.9,1.1-1.9,1.1l-0.8,0.8l0,1.2l0.2,0.3l-0.4,0.2l0,0l-0.4,0.2l-0.2,1.6l0.5,1.8l1.2,1l1.3,0.3l0.9,0.5l0.1,1.1l-0.6,0.9
		l-1.6,0.7l0.5,0.3l1.5-0.5l1.2-0.7l0.5-1.6l0-1.5l-0.6-1.7l-0.2-0.2l0,0l-0.2-0.3l1.3-0.4l1.3-0.5l-0.1,0.2l0.3,1.1l1.2,1.1
		l2.2,1.3l1.7,0.3l-0.1,0.1l-0.2,1.1l0.6,1.1l1.3,1.2l1.4,1l-0.3,0.8l0.5,1.2l1.5,3.1l-0.4,0.2v0l-0.4,0.2l-0.3,1.2l0.2,1.9l0.2,0.5
		l-1-0.2l-2.3,0.8l-3.1,0.6l-3.8,1.1l-2,0.3l-1.1,0.2l0,0l-0.3,0.1l0,0l-2.9,0.4l0,0l-0.2,0l-3.1,0.5l-1.4,0.4l-0.1-0.3l-0.6-0.4
		l-0.2,0.1l-0.2-0.7c0,0-1-0.2-1.2-0.2c-0.2,0-2.4,0-2.4,0l-3.3,0.5l-0.1-0.1l-1.3-0.2l-2.3,0.4l-1.7,0.8l-2.8,1.4l-2.3,1l0,0.5
		l1.3-0.6l1.6-0.5l2.1-0.5l1.6-0.5l0.4,0.5l-1,0.4l-2.8,0.8l-2.7,0.6l0.6,0.3l2.5-0.3l2.5-0.4l2.1-0.5l0.2,0.1l2.1-0.5l0.3-0.6
		l0.1,0.1l1.7,0.2l0.1,0l-0.4,0.3l0.1,0.5l-1,0.5v0.2l-0.7,0.3l0,0.9l0.5,0.9l0.5-0.3l0.1,0.2l0.7,1l-1.1,0.8l0.3,1.1l0.8,0.7
		l0.8-0.5l0.2,0.4l1.6,0.2l2.2,0.1l1.4,0l-0.4,1.2l-0.3,0.9l0,0l-0.4,1.1l0,0.2l-0.7-0.1l-0.1,0.5l-1-0.2l-2.4-0.1l-2.3,0.7
		l-3.1,0.8l-2.4,0.4l-0.4,0.7l1.8-0.5l2.8-0.4l2,0l0.6,0.8l-0.6,0l-2.4,0l-1.8,0.2h-2.3l0.3,0.5l2,0.1l2.2,0.3l2.3,0.2l1.8-0.1
		l0.2,0.2h2.1l1.1-0.5l0.8-1l0-0.4l0.4,0.2l0.4-0.3l-0.1-0.7l0.8-0.3c0,0,1.5-2.8,1.6-3c0-0.1,0.1-0.7,0.2-1.4l0.8,0.3l2.5,0.4
		l1.8,0l-0.2,0.5l-0.5,1.6l0.2,1.2l0.3,0.2l-1.2,1.7l-1.1,1.4l0,0.5l0.2,0.1l-0.1,2.5h0.6l0.3-1l0.1-1.1l0.5,0l0.8-1.2l0.9-2.7h0.4
		c0,0,0.6-1,0.7-1.1c0.1-0.2,0.2-1.5,0.1-1.7c0-0.1-0.1-0.6-0.1-1.1l0.2,0l1.6-0.1l1.4-0.5l1.8-1.1l0,0l1.4-0.6l0.2,1.1l0.5,2.3
		l0.6,1.5l0.8,0.9l0.3,0.1l-0.1,0l-0.8,1.8l-0.5,1.2l0.1,0.1l-0.4,0.4l-1.1,0.8l-0.6,0.3l0.3,0.3l1.3-0.3l1-1l0-0.1l0.4-0.1l0.9-0.9
		l0.8-1.7l-0.1-1l0.1-0.6l-0.7-1.2l-1.2-2.4l-0.7-1.8l-0.1-0.4l0.3-0.2l0.4-0.5l3.2-0.8l0.3-0.2l0.4,0.7l2.4,2.3l1.2,0.4l0.4-0.3
		l0.3,0.7l1,1.8l1.1,0.9l0.1-0.2l0.4,1.3l0.5,0.4l0.1-0.1l0.1,0.3l0.8,0.9l1.2,0.2c0,0,0.6,0.5,0.8,0.3L573.8,522.5z"/>
	<path class="st6" d="M480.8,426.6l1.8,0.4l1.5-0.2l1-0.1l0.4,0.2l-0.1-0.9l-0.4-1.6L484,423l-1.6-1.2l-1.2-0.3l0-0.1l-0.7-0.9
		l-0.3-0.1l-2.3-1l-1.7-0.1l-2,0.8l-1.9,3.3l-0.3,1.6l-0.1,1.9l-1.5,1.9l-0.5,1.2l-0.2,0.6l-4.1,3.6l-1.4,2.3l-0.3,0.6l-3.9,2.8
		c0.1,0.3,1.9-0.2,2.6-0.3c0.1,0,0.2-0.1,0.2-0.1l-3.1,2.6l-1.4,1.8l-0.6,0.9l-2.3,2.1l0.8,1.4l1.1,0.8l3.3-2l3.1-0.8l1.7,0.2l1,0.5
		l0.6,0.8v0l0.4,0.5l1.4,0.8l0.2-0.1l1.8,1.7l0.2,0.6l0.6,1l2.6,1.2l0,0.1l0.5,0.2l0.4,0.1l-0.4-0.4l0.6-0.1l2.3-0.5l0.1,0l0.3,0.1
		l0.4,0.1l0.1,0.1l-0.2-0.3l-0.3-0.1l0.3-0.1l0,0l0.3-0.1l-0.5-0.9l-0.5-0.6l0,0l0-0.1l0.1,0l0.4,0.1l-0.2-0.2l-0.4,0l-0.1-0.1
		l-1.8,0l-0.2-0.4l3.8,0.1l0.9,0.2l0.2,0.2l0.5,0.2l0-0.3l-0.2-0.2l0.1-0.2l0,0l0.7-1.2l0-0.2l0.3,0l0.3,0.1l-0.1-0.3l-0.6-0.1
		l0-0.1l-2.4-0.4l-2.5,0.1l-2.1,0.1l-0.8-1.6l1.9-0.8l5-3.3l3.1-3.1l0.7-1.4l0.1-0.2l0.4-2.7c0,0-0.2-1.9-0.2-2.1
		c0-0.2-1.2-2.5-1.2-2.5l-1.2-1.1l-0.8-0.4l-0.7-2.1l0,0L480.8,426.6z M474.7,450.2l0.4,0.2l0.3,0.2l-0.8,0l-2.3,0l-0.8-0.5
		l-1.3-1.7l0.6-0.6l1.3-0.6l0.6,2l0.4,0.7L474.7,450.2z"/>
	<path d="M556.7,398.2c0,0,1.8-3.1-0.2-5.6c-2-2.4-3.1-3.1-4.7-3.9c-1.5-0.8-4.7-2.6-7.8-2.9c-3.1-0.2-4.4,0.2-4.4,0.2
		s-0.6-1.3-2.1-1.1c-1.6,0.2-4.1,1.6-4.6,2c-0.5,0.4-3.3,3.4-3.9,4.1c-0.6,0.7-1.4,1.3-2.6,1.9c-1.2,0.6-2.9,0.8-3.6,1.3
		c-0.7,0.5-3,2.1-3.8,2.9c-0.8,0.8-1.6,1.4-2.1,1.7c-0.5,0.4-7.3,4.8-8.4,6.9c0,0,0.2,0,0.4,0.1c0.2,0.1,0.3,0,0.4-0.1
		c0.2-0.1,0.5-0.4,0.5-0.4s-0.1,0.3-0.3,0.5c0,0,0.4-0.5,0.7-0.4c0,0-2.7,1.7-2.7,2.6c0,0,0.2,0.1,0.3,0c0,0,0.6,0,1-0.4
		c0,0-1,1.3-0.1,0.9l1.8-1c0,0-0.2,0.4-0.3,0.5c-0.1,0.1-3.6,3-1.2,2.1c0,0-1.2,2.6-1.5,3.1c-0.4,0.4-1.6,2.3-1.7,2.7
		c-0.1,0.4-2.6,3.8-3,4.1c0,0-0.8,0.9,0,0.3l1.1-1.1l-1.1,2c0,0,0,0.2,0,0.3c0,0,0.2-0.2,0.3-0.1c0.1,0,0.1,0,0.2-0.1
		c0.1-0.1,0.1,0,0.2,0c0.2,0,0.2,0,0.3,0c0.1,0,0.2,0,0.2,0s-0.1,0.2-0.2,0.4c-0.1,0.2-0.1,0.2-0.1,0.3c0,0.1,0.1-0.3,0.2-0.3
		c0.1,0,0.2,0,0.3,0c0.1-0.1,0.1-0.2,0.1-0.2s0.1,0.1,0,0.1c0,0.1,0,0.1,0,0.1s0.6-0.3,0.8-0.8c0,0-0.1,0,0.2-0.1
		c0.2-0.1,0.3-0.1,0.5-0.5c0.2-0.4,0.4-0.8,0.5-0.9c0.1-0.1,0,0.1,0.2-0.2c0.2-0.3,1-1.5,1.2-2.2c0.2-0.6,0.8-1.6,1.5-2.5
		c0.6-0.8,1.5-2.3,1.6-2.6c0.1-0.3,1-1.3,1.7-1.4c0.7-0.1,1.5-0.5,1.5-0.5s-0.8,0.9-1.1,1c0,0,0.1,0.2,0.4,0c0,0,2.4-1,2.5-1.1
		l0,0.2c0,0,0.2-0.4,0.4-0.4c0.1,0,0.1,0.4-0.2,0.6c0,0,0.6-0.8,1-0.9c0.4-0.1,0.6-0.5,0.6-0.2c0,0.2-0.2,0.8-0.8,1.1l0.7-0.3
		l-0.6,0.7l0.7-0.8l-0.5,1.1l0.6-0.9l0,0.8c0,0,0.1-1,0.3-1c0,0,0,0.4,0.1,0.6c0,0,0,1.6,0.5,2l-0.1-0.3l0.3,0.1l0-0.3v-0.1
		c0,0,0.7,1.2,2,0.4c0,0,1.5-0.1,2.2,0.5c0,0,0,0.1,0,0.2c0,0-0.8,0.6-0.9,0.8c-0.1,0.2,0,0.3,0,0.3s-0.2,0.6-0.2,0.8
		c0,0-0.1,0.6-0.1,0.8c0,0.2,0,1.7,1.3,1.1c0,0-0.6,0-0.7-0.4c-0.1-0.4,0-0.3,0-0.5c0-0.2,0.1-0.6,0.1-0.8c0-0.1,0-0.4,0.1-0.5
		c0.1-0.1,0-0.3,0.1-0.3c0.1-0.1,0.1-0.2,0.2-0.3c0.1-0.1,0.2-0.2,0.2-0.3c0.1,0,0.1,0,0.1,0s0.3,0.4,0.5,0.4c0,0-0.4-0.3-0.3-0.6
		c0,0,0.2,0.1,0.3,0c0.1-0.1,0.3-0.3,0.3-0.3s0.1,0.1,0.3,0c0.2-0.1,0.8,0.3,1.1,0.8c0.3,0.5,0.4,0.9,0.5,1.5
		c0.1,0.6,0.3,0.8,0.3,1.2c0,0.4,0,0.5,0,0.5s-0.3,0.7-0.7,0.4c0,0,0.7,0.9,1.3-0.3c0,0,0.1-0.8,0.1-1c-0.1-0.2-0.2-1.1-0.3-1.2
		c-0.1-0.1-0.1-0.2-0.1-0.4c0-0.2,0-0.4-0.2-0.6c-0.1-0.2-0.3-0.4-0.4-0.6c-0.1-0.2-0.3-0.4-0.4-0.6c-0.1-0.2-0.5-0.6-0.7-0.7
		c-0.2-0.1-0.1,0-0.2,0c-0.1,0-0.5-0.3-0.7-0.3c-0.2,0-0.4-0.2-0.6-0.2c-0.3,0-0.2-0.2-0.4-0.2c-0.2,0-0.4-0.1-0.5-0.1
		c-0.1,0-0.3-0.1-0.4-0.2c-0.1,0,0.2,0,0.2-0.4c0-0.4,0.1,0.1,0.3-0.3c0,0,0.3,0.2,0.3,0.5c-0.1,0.3,0,0.1,0,0.1s0.3-0.3,0.2-0.6
		c0,0-0.1,0.3,0.2,0.5c0,0-0.1-0.3-0.1-0.7c0,0,0.4-0.5,0.4-0.1c0,0.4-0.1,0.8-0.1,0.9c0,0,1.3-0.6,1.1-0.8l3-0.1
		c0,0-0.3,0.5-0.4,0.7c0,0-0.7,0.2-0.8,0.5c-0.1,0.3,0,0.1,0,0.1s-1,0.9,0.1,1.4c0,0-0.6-0.9,0-1c0,0,0.1,0.2,0.3,0.2
		c0.2,0,0.1,0,0.1,0s-0.1,1.5,0.4,1.7c0,0,1.1,0.7,1.4,0.1c0,0-0.5,0.1-0.8-0.2c0,0,0-0.7-0.2-0.7c0,0,0.1-0.3-0.1-0.5
		c0,0,0.1-1,0.1-1.1c0,0,0.3-0.7,0.6-0.9c0.3-0.1,0-0.1,0-0.1s0.3-0.2,0.7,0.2c0.4,0.4,0.7,0.7,0.8,0.7c0.1,0,0.2,0.4,0.2,0.5
		c0,0.1,0.1,2,0.5,2.3c0,0-0.3,1-0.9,0.7c0,0,0.8,0.8,1.3-0.6c0,0,0.4-0.6,0.2-0.8c-0.1-0.2,0.1-0.5,0-0.7c-0.1-0.3-0.6-1.6-0.7-1.8
		c-0.2-0.3-0.2-0.4-0.7-0.6c-0.5-0.2-0.6-0.5-0.8-0.7c-0.1-0.3-0.2-0.2-0.3-0.2c-0.1,0,0-0.1-0.2-0.1c-0.2,0-1.9,0-2.3,0
		c-0.3,0-1.6,0-1.6,0s-0.1-0.1-0.1-0.3c0.1-0.2,1-1.3,2.8-2c1.8-0.7,2-0.4,3-1.2c1.1-0.8,3-2.3,3.7-2.9c0.6-0.7,1.7-1.2,2.2-2.4
		c0.6-1.2,0.8-2.1,1.1-3.1c0.3-1,1.2-2.2,1.9-2.8c0.7-0.6,1.5-1.3,1.5-1.3s1.3,0.7,2.1,0.6c0,0,2.2,0.4,3.2,0.5c0,0,6.8,1,8.7,2.3
		C554.6,396.4,557,397.7,556.7,398.2z"/>
	<polygon class="st6" points="581,114.4 581,114.4 580.9,113.8 580.3,113 580.3,112.4 580.1,112.1 578.7,111.6 576.4,111.2 
		575.1,110.4 572.8,109.1 570.1,108.5 569.8,108.7 569.4,108.1 568.4,108.1 567.9,108.8 568.6,109.4 567.4,110 564.5,114.6 
		562.8,118.3 559.1,121.1 555.9,122.5 552.5,122.5 551.2,120.5 549.4,118.1 548.9,117.9 548.9,117.9 547.6,117.2 544.8,116.5 
		542.9,114.8 541.8,112.4 539.8,110 536.1,108.6 533,108 530.8,109 529.6,111.1 527.2,112.7 525.1,114.2 524.3,115.9 523.9,116.6 
		522.5,117.4 519.5,118.3 518.3,118.9 517.3,120.8 517.1,121 515.5,122.7 515.3,123 513.5,123.8 512.5,126.1 511.7,131.1 511.5,136 
		511.4,139.3 511,139.3 510.5,141.1 510.2,144.1 510.7,146.4 511.2,146.5 511.3,145.7 511.5,144.1 512.1,142.1 512.6,139.9 
		512.2,139.4 512.1,139.4 512.4,132 512.8,128.4 513.4,125.7 513.7,125.6 513,130.6 513.4,137.7 513.6,142.3 513,145 512.9,145.8 
		513.8,147.1 514.9,149.9 515.8,152.9 515.4,154.2 515.8,154.8 515.8,154.8 515.8,154.9 516.8,155.4 516.6,156.5 517.3,157.5 
		519,157.9 520.3,157.9 520.9,157.9 520.9,157.9 521.5,157.8 521.7,157.2 520.9,156 519,155.4 519.1,154.7 519.1,153.7 518.4,152.9 
		517,148.9 517,148.9 516.8,148.6 516.5,147.3 516.8,144.7 517.4,142 519.1,139.8 519.2,139.3 520.2,141.2 520.7,143.8 519.9,146.9 
		519.7,147.7 520.2,148.5 521,151.1 520.8,152.8 521.9,153.2 522.3,154.1 522.2,155.2 523,156.3 525.6,156.9 526.1,156.4 
		527.4,156.5 527.6,156.1 526.7,154.9 525.1,154.1 524.7,153.5 523.8,152.7 523.1,150.1 523.1,147.2 523.7,142.9 525.4,139 
		525.8,135.4 529.4,136.7 536.2,136.8 541.8,135.8 543,135.4 543,135.4 543.1,135.4 543.7,136.4 544.4,140.8 543.9,143.2 
		543.6,145.2 544.6,146.5 544.3,152.8 543.7,154.9 543.5,156.5 542.9,157.8 543.6,159 545.4,159.8 548.2,159.9 548.6,159.9 
		548.7,159.3 548.9,159.2 548.9,159.2 549.3,158.8 549.1,158 550.1,158.2 550.3,157.9 550.9,157.7 550.9,157 550.1,156.2 
		548.4,155.1 548.4,154.3 548,153.4 547.9,150.1 548.7,145.1 549.7,143.2 549.7,141.8 549.9,138 550.2,135.8 551,134.7 553,132 
		553.6,131.8 558,130.5 561.9,128.6 566.3,125.1 569.5,120.3 571.1,116.6 571.8,116.7 574.3,116 576.8,115.2 577.6,115.8 578.8,116 
		579.7,115.6 579.8,115.4 579.8,115.4 580,114.9 580,114.9 580.1,114.9 581,114.5 	"/>
	<g>
		<g>
			<path class="st6" d="M377.5,402.5c-8.2,0-14.8,6.6-14.8,14.8c0,5.9,3.4,10.9,8.4,13.3l0.5-8.9c0,0-0.9-0.3-1.1-0.4
				c-1.8-0.8-3.2-3.2-3.2-6.3c0-3.4,2.6-6.3,5.2-6.3c0,0,0,0,0,0c0,0,0,0,0,0c2.5,0,5.2,2.9,5.2,6.3c0,3.1-1.3,5.5-3.2,6.3
				c0,0-1.1,0.4-1.1,0.4l0.5,9.9c1.1,0.3,2.3,0.4,3.5,0.4c1.6,0,3.2-0.3,4.7-0.8l0.5-8.8c-1.2-0.3-2.2-1-2.9-2
				c-0.8-1.2,0.6-11.8,0.6-11.8h0.9v9.9h0.9v-9.9h1v9.9h0.9v-9.9h1v9.9h0.9v-9.9h0.7c0,0,1.4,10.6,0.6,11.8c-0.6,1-1.7,1.7-2.8,2
				c0,0,0,0,0,0l0.4,7.6c4.4-2.6,7.4-7.3,7.4-12.8C392.2,409.1,385.6,402.5,377.5,402.5z"/>
			<path class="st6" d="M369.5,413.5c0.1-0.2,0.1-0.4,0.1-0.4c0-0.1,0-0.2-0.1-0.2c-0.1,0-0.2,0-0.2,0.1c0,0-0.1,0.2-0.2,0.4
				c-0.1,0.2-0.3,0.5-0.4,0.9c-0.1,0.4-0.2,0.8-0.3,1.4c0,0.3,0,0.5,0,0.8c0,0.3,0.1,0.5,0.2,0.8c0.3,0.8,0.5,1.6,1.3,2.4
				c0.3,0.3,0.5,0.4,0.7,0.6l0.1,0c0,0,0.1,0.1,0.1,0.1c0.2,0.1,0.3,0.1,0.3,0.1c0.1,0,0.2,0,0.2-0.1c0-0.1,0-0.2-0.1-0.2
				c0,0-0.1-0.1-0.2-0.2c-0.1-0.1-0.2-0.2-0.3-0.4c-0.1-0.1-0.2-0.2-0.2-0.3c-0.4-0.6-0.6-1.4-0.9-2.3c-0.1-0.2-0.1-0.4-0.1-0.6
				c0-0.2,0-0.5,0-0.7c0-0.5,0-0.9,0.1-1.3C369.4,414,369.4,413.7,369.5,413.5z"/>
			<path class="st6" d="M377.5,399.8c-9.7,0-17.5,7.9-17.5,17.5c0,9.7,7.9,17.5,17.5,17.5c9.7,0,17.5-7.9,17.5-17.5
				C395,407.6,387.1,399.8,377.5,399.8z M377.5,433.5c-8.9,0-16.2-7.3-16.2-16.2c0-8.9,7.3-16.2,16.2-16.2c8.9,0,16.2,7.3,16.2,16.2
				C393.7,426.2,386.4,433.5,377.5,433.5z"/>
		</g>
	</g>
</g>
<g id="Layer_4">
	<g>
		<g>
			<path class="st7" d="M420.3,517.4c-1.5-16.7,4.3-32.8,6.6-49.1c1.3-9,1.1-17.9,0.7-26.9c-0.4-7.8-0.8-15.9,0.7-23.6
				c1.2-6,3.3-12.1,7.4-16.7c4.2-4.8,9.7-7.1,15.8-8.3c12.7-2.5,27-0.6,38.4-8c5.2-3.4,9-8.3,12.3-13.5c1.5-2.5,2.9-5.1,4.4-7.6
				c0.7-1.1,1.3-2.2,2-3.3c0.8-1.2,1.5-2.2,2-2.9c1.8-2.1,3-3.3,5-4.5c1.2-0.6,1.2-0.7,2.8-1.1c1.5-0.4,3-0.3,4.5-0.2
				c7.6,0.7,14.9,4.2,22.5,1.4c6.6-2.5,10.9-8,13.4-14.4c2.6-6.9,2.2-14.5,0.5-21.6c-1.9-7.9-5.3-15.4-6.9-23.4
				c-1.6-7.7-1.7-15.9-0.2-23.6c5.7-30.1,33.2-48.4,48.2-73.5c15.7-26.1,21-58.1,14.9-87.9c-2.9-13.9-8.3-27.9-18.1-38.4
				c-10.1-10.9-24.5-16.1-39.2-14.9c-15,1.3-29.3,7.7-41.5,16.3c-12.1,8.5-22.7,19-31.5,30.9c-8.4,11.5-14.9,24.8-17.8,38.9
				c-2.9,13.8-3.3,30.2,3.9,42.7c4,6.9,10.2,11.4,17.6,14.1c7,2.5,14.4,3.2,21.6,4.8c7.4,1.6,14.7,3.7,21.4,7.4
				c6.3,3.5,12,8.5,16.6,14c4,4.8,6.8,10.5,6,16.8c-0.4,2.7,2.6,5,5,5c3,0,4.6-2.3,5-5c2-14.9-11.1-27.8-22-35.9
				c-6.2-4.6-13.6-7.7-21-9.8c-7.2-2.1-14.6-3.1-21.9-4.6c-6.6-1.4-13.3-3.4-17.7-8.8c-3.8-4.7-5.5-11.1-6.1-17
				c-1.2-13.2,1.6-26.7,7.1-38.8c5.8-12.7,14.2-24,24.2-33.7c10-9.7,21.6-18.2,34.7-23.1c12.2-4.6,26.4-6.4,38.4,0
				c11.6,6.2,18.7,18.3,22.7,30.5c8.9,27,6.2,57.8-6.3,83.2c-6.4,13.1-15.6,24-25.1,34.9c-9.5,11-18.9,22.2-24.6,35.7
				c-6.4,15.3-7.2,32.6-2.5,48.5c2.2,7.4,5.6,14.7,6.3,22.5c0.5,5.4-0.5,11.2-3.7,15.2c-1.7,2.2-3.4,3.4-5.8,4
				c-3.2,0.8-6.6-0.1-9.8-0.8c-7.1-1.6-14.2-2.5-20.8,1.2c-10.1,5.6-13.6,17.7-20.2,26.5c-0.9,1.2-3.1,3.5-4.8,4.8
				c-2.5,1.8-5,2.8-7.8,3.6c-6,1.7-12.1,1.9-18.3,2.5c-6.9,0.6-13.7,1.6-20.1,4.4c-6.2,2.8-11.3,7.6-14.8,13.4
				c-8.2,13.4-7.6,29.5-6.9,44.6c0.4,8.3,0.4,16.6-1,24.9c-1.3,8.1-3.4,16.1-4.8,24.2c-1.4,8-2.4,16.2-1.7,24.3c0.2,2.7,2.1,5,5,5
				C417.8,522.4,420.6,520.1,420.3,517.4L420.3,517.4z"/>
		</g>
	</g>
	<g>
		<g>
			<path class="st7" d="M494,92.6c-14.2-13.3-34.3-7.4-51.2-9.9c-10.4-1.6-19.8-6.9-30.1-8.9c-9.6-1.9-19.3-1.7-28.9,0.1
				c-19,3.7-36.4,14.1-49.8,27.9c-14.2,14.6-24.2,32.5-32.1,51.1c-4,9.6-8,19.6-10.4,29.7c-2.7,11-2.5,21.9,0.7,32.7
				c2.9,9.8,7.5,19.1,10.1,29.1c2.6,10,2.5,20.5,0.4,30.6c-4.3,21-14.7,40.7-25.2,59.2c-10.5,18.5-22.4,36.2-35.7,52.8
				c-6.3,7.9-13,15.5-18.2,24.2c-5.3,8.9-8.6,18.9-8.5,29.4c0.2,21.6,12.3,40.5,26.8,55.5c3.6,3.7,7.3,7.2,11.1,10.7
				c2,1.8,5.1,2,7.1,0c1.8-1.8,2-5.2,0-7.1c-14.4-13.1-28.6-28-33.5-47.5c-2.3-9.3-2-18.9,1.5-27.8c3.3-8.6,9.2-16.1,14.9-23.1
				c13.2-16.3,25.6-33,36.5-50.9c11-18,21.3-36.9,28.3-56.9c3.5-10,6-20.5,6.3-31.2c0.4-10.4-1.8-20.4-5.3-30.1
				c-3.4-9.3-7.7-18.6-9.2-28.5c-1.5-10.5,1.5-20.8,4.9-30.6c12-34.4,31.2-71.2,67-85.5c8.3-3.3,17-5.3,25.9-5.5
				c9.6-0.2,18.2,2.3,27.2,5.5c4.8,1.7,9.7,3.5,14.8,4.3c4.5,0.8,9.1,1,13.6,1.1c8.3,0.1,17-0.7,24.8,1.5c3.5,1,6.4,2.4,9,4.9
				C491.6,104.1,498.7,97.1,494,92.6L494,92.6z"/>
		</g>
	</g>
	<g>
		<g>
			<path class="st7" d="M253,507c6.4,6.9,14.9,11.8,23.4,15.6c9.6,4.3,19.8,7.5,30.3,8.7c4.4,0.5,8.8,0.4,13.2-0.4
				c5.9-1.1,11.8-3.3,17.5-5.2c6.1-2.1,12.2-4.3,18.5-6c3.1-0.9,6.2-1.6,9.4-2.1c0.8-0.1,1.6-0.3,2.4-0.4c-0.2,0-1,0.1,0,0
				c0.4-0.1,0.9-0.1,1.3-0.1c1.7-0.2,3.3-0.3,5-0.3c3.7-0.1,7.3-0.1,11-0.5c4.2-0.5,7.9-1.5,11.7-3.2c2.9-1.3,5.7-2.9,8.6-4.3
				c1.2-0.6-1,0.3,0.2-0.1c0.4-0.1,0.7-0.3,1.1-0.4c0.8-0.3,1.6-0.5,2.4-0.7c0.3-0.1,0.6-0.2,0.9-0.2c-1.4,0,0,0,0.3,0
				c0.3,0,0.6,0,0.9,0c0.3,0,0.5,0,0.8,0.1c-0.7-0.1-0.8-0.1-0.2,0c2.6,0.5,5.5-0.7,6.2-3.5c0.6-2.5-0.7-5.6-3.5-6.2
				c-3.4-0.7-6.8-0.5-10.1,0.6c-2.9,1-5.7,2.4-8.4,3.8c-1.2,0.6-2.4,1.2-3.6,1.8c-0.3,0.2-0.7,0.4-1.1,0.5c1-0.3,0.3-0.1,0.1,0
				c-0.8,0.3-1.6,0.6-2.4,0.8c-0.8,0.2-1.6,0.4-2.4,0.6c-0.4,0.1-0.7,0.1-1.1,0.2c-1.5,0.3,1-0.1-0.5,0.1c-1.7,0.2-3.3,0.3-5,0.4
				c-6.7,0.2-13.2,0.5-19.8,1.8c-6.3,1.3-12.5,3.3-18.6,5.3c-6.2,2.1-12.3,4.3-18.5,6.1c-2.3,0.7-4.7,1.3-7.1,1.7
				c1.8-0.3,0.2,0-0.3,0c-0.5,0-0.9,0.1-1.4,0.1c-1.1,0.1-2.2,0.1-3.3,0c-1.1,0-2.1-0.1-3.2-0.2c-0.5,0-1-0.1-1.5-0.2
				c-0.2,0-0.4,0-0.6-0.1c-0.2,0-0.4-0.1-0.6-0.1c0.8,0.1,0.9,0.1,0.4,0c-2.3-0.4-4.6-0.8-6.8-1.3c-4.9-1.2-9.7-2.7-14.3-4.6
				c-0.3-0.1-0.5-0.2-0.8-0.3c-1.2-0.5,0.7,0.3-0.3-0.1c-0.6-0.3-1.3-0.6-1.9-0.9c-1.3-0.6-2.5-1.2-3.8-1.8
				c-2.4-1.2-4.8-2.5-7.1-3.9c-1.1-0.7-2.2-1.4-3.2-2.1c-0.5-0.4-1-0.7-1.5-1.1c-0.2-0.1-0.3-0.2-0.5-0.4c-0.7-0.5,0.9,0.7-0.2-0.1
				c-1.7-1.4-3.4-2.9-4.9-4.5c-1.8-1.9-5.3-1.9-7.1,0C251.2,502,251.1,505,253,507L253,507z"/>
		</g>
	</g>
	<g>
		<g>
			<path class="st7" d="M548.6,349.6c9.3,11.6,19.3,23.4,32.3,31c7,4.1,14.6,6.5,22.6,7.2c8.7,0.7,17.5-0.9,25.9-2.9
				c14.1-3.4,27.7-9.2,39.9-16.8c12.4-7.7,23.6-17.3,33-28.5c10.1-12,19.1-26.1,23.2-41.3c2.3-8.7,2.6-17.5,0.5-26.3
				c-1.9-8.3-5.6-16.1-9.1-23.7c-0.8-1.8-1.7-3.7-2.5-5.5c-0.2-0.4-0.4-0.9-0.6-1.3c-0.1-0.3-0.3-0.6-0.4-0.9c0,0.1,0.3,0.6,0,0.1
				c-0.4-1-0.8-2-1.2-3c-1.6-4.1-2.9-8.2-4-12.4c-1.1-4.2-2-8.5-2.6-12.8c0,0-0.1-0.8,0-0.4c0.1,0.5,0-0.3,0-0.4
				c-0.1-0.6-0.1-1.2-0.2-1.8c-0.1-1.1-0.2-2.2-0.3-3.3c-0.2-2.3-0.3-4.6-0.3-6.8c-0.4-17.4,2.5-35.4-2.7-52.4
				c-2.2-7.2-5.7-14-10.6-19.6c-5.2-5.9-12-9.7-19.5-11.7c-4.1-1.1-8.3-1.8-12.3-3.1c-0.5-0.2-0.9-0.3-1.4-0.5
				c0.7,0.3-0.6-0.3-0.8-0.4c-0.9-0.4-1.9-0.9-2.8-1.4c-1.8-1-3.5-2-5.2-3.1c-3.8-2.3-7.8-4.4-12.1-5.6c-4.3-1.2-8.8-1.7-13.2-1.9
				c-4.1-0.2-8.3,0-12.4,0.2c-2.6,0.1-5.1,2.2-5,5c0.1,2.6,2.2,5.1,5,5c4.1-0.2,8.3-0.3,12.4-0.2c1,0,2,0.1,3,0.2
				c0.5,0,1,0.1,1.5,0.1c0.1,0,1.7,0.2,0.6,0.1c2.1,0.3,4.2,0.7,6.2,1.4c0.9,0.3,1.9,0.6,2.8,1c-0.9-0.4,0.6,0.3,0.6,0.3
				c0.4,0.2,0.9,0.4,1.3,0.6c1.9,1,3.6,2,5.4,3.1c3.7,2.2,7.4,4.4,11.5,5.8c3.9,1.4,8,2.1,12.1,3.1c1.9,0.5,3.8,1.1,5.7,1.8
				c-1-0.4,0.2,0.1,0.4,0.2c0.4,0.2,0.7,0.3,1.1,0.5c0.8,0.4,1.6,0.9,2.4,1.4c0.7,0.4,1.3,0.9,1.9,1.4c-1-0.7,0.1,0.1,0.2,0.2
				c0.3,0.3,0.6,0.5,0.9,0.8c1.2,1.1,2.3,2.2,3.3,3.4c0.3,0.3,0.5,0.6,0.8,0.9c-0.8-0.9,0.1,0.1,0.2,0.2c0.5,0.6,0.9,1.3,1.4,2
				c0.9,1.5,1.8,3,2.6,4.5c0.4,0.7,0.7,1.5,1,2.2c0.6,1.2-0.4-1,0.1,0.3c0.1,0.4,0.3,0.8,0.4,1.1c0.6,1.7,1.2,3.3,1.6,5
				c0.4,1.6,0.8,3.2,1.1,4.8c0.2,0.8,0.3,1.6,0.4,2.4c0,0.1,0.2,1.5,0.1,0.4c0.1,0.7,0.2,1.4,0.2,2.2c0.9,9,0.4,18.1,0.2,27.1
				c-0.3,9-0.1,17.8,1.2,26.7c1.2,8.5,3.4,16.8,6.4,24.8c1.5,4,3.3,8,5.1,11.9c0.8,1.8,1.6,3.5,2.4,5.3c0.4,0.9,0.8,1.8,1.2,2.6
				c0.2,0.4,0.4,0.9,0.6,1.3c0.1,0.3,0.3,0.6,0.4,0.9c-0.2-0.5-0.2-0.4,0.1,0.1c1.5,3.7,2.9,7.4,3.9,11.2c0.5,1.8,0.8,3.7,1.1,5.5
				c-0.2-1.1,0.1,0.4,0.1,0.5c0.1,0.5,0.1,0.9,0.1,1.4c0.1,1.1,0.1,2.3,0.1,3.4c0,1,0,2-0.1,3c0,0.5-0.1,1-0.1,1.5
				c0-0.1-0.2,1.5-0.1,0.8c0.1-0.7-0.1,0.9-0.1,0.8c-0.1,0.5-0.2,1-0.3,1.5c-0.2,1.1-0.5,2.3-0.8,3.4c-0.5,1.9-1.1,3.8-1.8,5.7
				c-0.3,0.9-0.7,1.9-1.1,2.8c-0.6,1.5,0.4-0.8-0.3,0.7c-0.3,0.6-0.5,1.2-0.8,1.8c-3.1,6.6-6.8,12.9-11,18.9c-1,1.4-2,2.7-3,4
				c0.7-0.9-0.1,0.2-0.2,0.3c-0.3,0.3-0.5,0.7-0.8,1c-0.6,0.8-1.2,1.5-1.9,2.3c-2.2,2.7-4.6,5.2-7,7.7c-2.4,2.5-5,4.9-7.6,7.1
				c-1.2,1-2.3,2-3.5,3c-0.7,0.5-1.3,1-2,1.6c0.9-0.7-0.2,0.1-0.3,0.2c-0.4,0.3-0.9,0.7-1.3,1c-5.6,4.1-11.5,7.9-17.7,11.1
				c-3.1,1.6-6.2,3.1-9.4,4.5c1.1-0.5-0.2,0.1-0.3,0.1c-0.4,0.2-0.8,0.3-1.2,0.5c-0.8,0.3-1.6,0.6-2.3,0.9c-1.7,0.6-3.4,1.2-5.1,1.8
				c-6.9,2.3-14,4-21.2,5.1c-1.7,0.2,0.5-0.1-0.5,0.1c-0.4,0.1-0.9,0.1-1.3,0.1c-1,0.1-2.1,0.2-3.2,0.3c-2.3,0.1-4.6,0.2-6.8,0
				c-0.5,0-1-0.1-1.6-0.1c0,0-1.7-0.2-0.8-0.1c-0.9-0.1-1.8-0.3-2.7-0.5c-1.8-0.4-3.5-0.9-5.3-1.4c-0.8-0.3-1.6-0.6-2.3-0.9
				c-1.3-0.5,0.9,0.4-0.3-0.1c-0.4-0.2-0.8-0.3-1.1-0.5c-1.6-0.8-3.2-1.6-4.8-2.6c-1.4-0.9-2.9-1.8-4.2-2.8c-0.7-0.5-1.4-1-2-1.5
				c0.9,0.7-0.2-0.2-0.3-0.3c-0.4-0.4-0.9-0.7-1.3-1.1c-5.6-4.7-10.5-10-15.2-15.5c-2.2-2.6-4.4-5.3-6.6-8c-1.6-2-5.4-1.8-7.1,0
				C546.6,344.7,546.9,347.5,548.6,349.6L548.6,349.6z"/>
		</g>
	</g>
	<g>
		<g>
			<path class="st7" d="M418.4,508.1c0.5,0,1,0,1.5,0c0.3,0,0.5,0,0.8,0.1c-0.7-0.1-0.8-0.1-0.2,0c0.9,0.2,1.7,0.4,2.6,0.7
				c0.4,0.1,0.7,0.3,1.1,0.4c0.5,0.2,0.5,0.2-0.1-0.1c0.2,0.1,0.5,0.2,0.7,0.3c0.8,0.4,1.7,0.8,2.5,1.2c2,1,4.1,2,6.2,2.8
				c2.2,0.8,4.4,1.2,6.7,1.5c4.6,0.5,9.3,0.3,13.9,0.2c5-0.1,9.9-0.5,14.8-1.4c2.6-0.5,4.3-3.8,3.5-6.2c-0.9-2.8-3.4-4-6.2-3.5
				c-0.6,0.1-1.3,0.2-1.9,0.3c-0.6,0.1-0.6,0.1-0.1,0c-0.2,0-0.5,0.1-0.7,0.1c-1.1,0.1-2.2,0.2-3.4,0.3c-2.3,0.2-4.7,0.3-7,0.3
				c-4.4,0.1-9.1,0.4-13.4-0.2c1,0.1-0.6-0.1-0.8-0.2c-0.5-0.1-0.9-0.2-1.4-0.4c-0.4-0.1-0.9-0.3-1.3-0.4c-0.2-0.1-1.6-0.6-0.4-0.2
				c-1.7-0.6-3.3-1.6-5-2.4c-3.9-1.9-8-3.5-12.4-3.2c-2.6,0.2-5.1,2.2-5,5C413.5,505.7,415.6,508.3,418.4,508.1L418.4,508.1z"/>
		</g>
	</g>
	<g>
		<g>
			<path class="st7" d="M695.4,376.2c2.2-10.2,3.3-20.6,3-31c-0.1-2.6-2.3-5.1-5-5c-2.7,0.1-5.1,2.2-5,5c0.1,4.9,0,9.8-0.5,14.7
				c-0.3,2.8-0.4,4.1-0.8,6.3c-0.4,2.5-0.9,4.9-1.4,7.3c-0.6,2.5,0.8,5.5,3.5,6.2C691.8,380.3,694.8,378.9,695.4,376.2L695.4,376.2z
				"/>
		</g>
	</g>
	<g>
		<g>
			<path class="st7" d="M445.4,386.7c0-1.7,0.1-3.3,0.3-5c-0.1,0.4-0.1,0.9-0.2,1.3c0.4-2.9,1.2-5.6,2.3-8.3
				c-0.2,0.4-0.3,0.8-0.5,1.2c0.1-0.3,0.3-0.6,0.4-1c0.6-1.3,0.9-2.5,0.5-3.9c-0.3-1.2-1.2-2.4-2.3-3c-1.2-0.6-2.6-0.9-3.9-0.5
				c-1.2,0.4-2.5,1.1-3,2.3c-2.4,5.3-3.7,10.9-3.7,16.7c0,2.6,2.3,5.1,5,5C443.1,391.6,445.4,389.5,445.4,386.7L445.4,386.7z"/>
		</g>
	</g>
	<g>
		<g>
			<path class="st7" d="M514.9,210.7c0-0.4,0.1-0.9,0.1-1.3C514.9,209.9,514.9,210.3,514.9,210.7c0.4-2.8,1.1-5.5,2.2-8.1
				c-0.2,0.4-0.3,0.8-0.5,1.2c0.1-0.2,0.2-0.5,0.3-0.7c0.4-0.6,0.6-1.2,0.6-1.9c0.1-0.7,0.1-1.3-0.1-2c-0.3-1.2-1.2-2.4-2.3-3
				c-1.2-0.6-2.6-0.9-3.9-0.5c-1.2,0.4-2.5,1.1-3,2.3c-0.9,2-1.7,4-2.3,6.2c-0.6,2.1-0.9,4.3-1.1,6.5c-0.1,1.2,0.6,2.7,1.5,3.5
				c0.9,0.9,2.3,1.5,3.5,1.5c1.3-0.1,2.6-0.5,3.5-1.5c0.3-0.3,0.5-0.7,0.8-1C514.6,212.5,514.9,211.6,514.9,210.7L514.9,210.7z"/>
		</g>
	</g>
	<g>
		<path class="st2" d="M361.5,135.3c-4.2,1.9-8.2,4.5-11.6,7.7c-2,1.8-3.8,3.9-4.7,6.4c-0.9,2.5-0.5,5.6,1.5,7.4
			c3.4,3.1,8.7,0.9,12.9-0.9c5.2-2.1,10.8-3.4,16.3-2.3c3,0.6,5.9,1.8,9,2.1c3.1,0.2,6.6-0.9,7.8-3.7c1.1-2.5,0-5.4-1.8-7.4
			c-1.9-1.9-4.4-3.1-6.8-4.2C376.3,137,369.9,134.7,361.5,135.3"/>
		<g>
			<path class="st2" d="M360.2,133.1c-4.2,1.9-8,4.4-11.5,7.5c-3.2,2.8-6.2,6.3-6.5,10.8c-0.3,4.1,2.2,8.2,6.3,9.1
				c4.1,1,8.1-0.8,11.8-2.3c4.2-1.7,8.7-2.8,13.2-2.5c4.5,0.4,8.6,2.8,13.2,2.3c3.9-0.4,7.9-2.7,8.6-6.9c0.7-4.5-2.1-8.4-5.7-10.7
				c-2-1.3-4.4-2.2-6.6-3.2c-2.3-1-4.6-1.9-7-2.7c-4.8-1.5-9.7-2.2-14.7-1.9c-1.3,0.1-2.5,1.1-2.5,2.5c0,1.3,1.1,2.6,2.5,2.5
				c7.5-0.5,14.4,1.7,21.2,4.7c2.8,1.2,6.3,2.6,7.5,5.6c1.1,2.7-0.8,4.5-3.4,4.9c-3.5,0.6-7.1-1.4-10.6-2c-4.1-0.7-8.3-0.4-12.3,0.6
				c-3.6,0.9-6.9,2.7-10.4,3.7c-2.4,0.6-5.5,0.7-6.2-2.2c-0.9-3.5,2.2-6.6,4.6-8.7c3.2-2.9,6.9-5.2,10.8-7c1.2-0.6,1.5-2.3,0.9-3.4
				C362.9,132.7,361.4,132.5,360.2,133.1L360.2,133.1z"/>
		</g>
	</g>
	<g>
		<path class="st2" d="M646.7,256.4c-2.9,1.8-6.6,1.9-9.9,1c-3.3-0.8-6.4-2.5-9.5-3.9c-5.6-2.6-11.4-4.7-17.3-6.3
			c-4.4-1.2-9.2-2-13.5-0.4c-4.4,1.6-7.7,5.6-8.4,10.2c-0.3,2-0.1,4.2,0.8,6c1.5,3.3,4.9,5.2,8,7c7.8,4.4,15.6,8.8,23.3,13.2
			c2.7,1.5,5.5,3.1,8.5,3.7c4.1,0.8,8.5-0.2,12.6,0.9c3.2,0.9,6,3.1,7.6,6c1.6,3,2,6.7,4.1,9.4c0.9,1.2,2.2,2.2,3.2,3.4
			c1.1,1.3,1.9,3,3.3,4.1c3.1,2.5,7.8,1,10.9-1.4c7-5.5,9.8-15.8,6.4-24c-2-4.8-5.7-8.8-7.6-13.7c-1.1-2.9-1.5-6-2.4-8.9
			c-0.9-3-2.4-5.9-5-7.5c-3.2-1.9-7.2-1.4-10.9-0.9C649.4,254.5,647.3,254.9,646.7,256.4"/>
		<g>
			<path class="st2" d="M645.5,254.2c-3.7,2.1-8.1,1-11.8-0.5c-4.3-1.8-8.5-4-12.9-5.7c-4.4-1.7-9-3.2-13.7-4
				c-4.6-0.9-9.6-0.9-13.8,1.5c-7.6,4.4-10.7,15.3-4.2,22c3.1,3.2,7.5,5.1,11.3,7.3c4.5,2.5,8.9,5,13.4,7.6c4.2,2.4,8.4,5.2,13,6.5
				c4.5,1.3,9.3,0,13.8,1.2c3.6,1,5.9,3.8,7.1,7.2c0.7,2,1.3,4.1,2.4,5.9c1.1,2,2.9,3.3,4.3,5.1c1.4,1.7,2.3,3.6,4.2,4.8
				c1.7,1.1,3.9,1.5,5.9,1.2c4.1-0.5,7.8-2.9,10.4-6c5-5.9,7-14.2,4.9-21.8c-1.2-4.2-3.8-7.7-6-11.4c-1.1-1.8-2.1-3.6-2.7-5.6
				c-0.7-2.3-1.1-4.7-1.7-7c-1.1-4.1-3.3-8.3-7.3-10.1c-4-1.8-8.8-1.4-13-0.5c-1.8,0.4-3.8,1.3-4.6,3.1c-0.6,1.2-0.4,2.7,0.9,3.4
				c1.1,0.6,2.9,0.3,3.4-0.9c0.1-0.3,0.3-0.4,0.8-0.6c0.8-0.3,1.7-0.4,2.5-0.5c1.8-0.2,3.7-0.5,5.5-0.2c3.7,0.5,5.6,3.3,6.7,6.6
				c1.3,4.2,1.8,8.4,3.9,12.4c1.9,3.6,4.5,6.7,6.1,10.4c2.6,5.9,1.5,12.9-2.1,18c-1.8,2.6-4.5,4.9-7.6,5.6c-1.4,0.3-2.8,0.1-3.8-0.8
				c-1.4-1.3-2.2-3.1-3.5-4.5c-1.4-1.4-2.7-2.6-3.4-4.5c-0.7-1.6-1.1-3.4-1.8-5c-1.5-3.6-4-6.6-7.5-8.3c-4-1.9-8.3-1.5-12.6-1.6
				c-4.3-0.2-7.8-2.2-11.5-4.3c-8-4.5-16.1-8.8-23.9-13.5c-3-1.8-5.9-4.1-6-7.9c-0.1-3.2,1.6-6.3,4.1-8.3c3.1-2.4,7.2-2.5,10.9-1.9
				c4.3,0.8,8.5,2.1,12.6,3.6c4,1.5,7.9,3.3,11.8,5.1c3.8,1.8,7.9,3.3,12.2,2.9c2.1-0.2,4.1-0.8,5.9-1.8
				C650.8,256.9,648.3,252.6,645.5,254.2L645.5,254.2z"/>
		</g>
	</g>
	<g>
		<g>
			<g>
				<path class="st6" d="M325.2,330.9c-3.7,0-3.8,0-6.8,0c-1.6,0-3,1.3-3,3l0,9.3c0,0.7,0.6,1.3,1.3,1.3c0,0,0,0,0,0
					c0.7,0,1.3-0.6,1.3-1.3l0-9.3c0,0,0,0,0,0c0-0.1,0.1-0.2,0.3-0.2s0.3,0.1,0.3,0.3l0,21.3c0,0.8,0.7,1.5,1.5,1.5s1.5-0.7,1.5-1.5
					V343h0.7v12.2c0,0.8,0.7,1.5,1.5,1.5s1.5-0.7,1.5-1.5c0-20.1,0-8.6,0-21.3c0-0.1,0.1-0.3,0.3-0.3c0.1,0,0.3,0.1,0.3,0.2
					c0,0,0,0,0,0l0,9.3c0,0.7,0.6,1.3,1.3,1.3c0,0,0,0,0,0c0.7,0,1.3-0.6,1.3-1.3l0-9.3c0,0,0,0,0,0
					C328.2,332.2,326.8,330.9,325.2,330.9z"/>
			</g>
		</g>
		<g>
			<g>
				<circle class="st6" cx="321.7" cy="327.4" r="2.6"/>
			</g>
		</g>
		<g>
			<g>
				<path class="st6" d="M349.7,341.2c0-0.1-2.3-6.7-2.7-7.7c-0.6-1.7-1.6-2.6-2.9-2.6c-1.9,0-2.5,0-4.4,0c-1.3,0-2.3,0.9-2.9,2.6
					c-0.4,1.1-2.7,7.6-2.7,7.7c-0.2,0.7,0.1,1.4,0.8,1.6c0.7,0.2,1.4-0.1,1.6-0.8c0.1-0.2,1.5-4.1,2.2-6.3c-0.1,0.7,0.2-0.7-1.8,9.4
					c-0.1,0.4,0.3,0.8,0.7,0.8c0.3,0,0.6,0,1,0v9.1c0,0.8,0.7,1.5,1.5,1.5s1.5-0.7,1.5-1.5V346c0.2,0,0.4,0,0.7,0v9.1
					c0,0.8,0.7,1.5,1.5,1.5c0.8,0,1.5-0.7,1.5-1.5V346c0.4,0,0.7,0,1,0c0.4,0,0.8-0.4,0.7-0.8c-1.9-10-1.7-8.8-1.8-9.4
					c0.8,2.2,2.1,6.1,2.2,6.3c0.2,0.7,1,1,1.6,0.8C349.6,342.6,349.9,341.9,349.7,341.2z"/>
			</g>
		</g>
		<g>
			<g>
				<circle class="st6" cx="341.9" cy="327.5" r="2.6"/>
			</g>
		</g>
		<g>
			<g>
				<path class="st6" d="M331.4,326.5c-0.5,0-1,0.4-1,1v26.6c0,0.5,0.4,1,1,1c0.5,0,1-0.4,1-1v-26.6
					C332.4,326.9,332,326.5,331.4,326.5z"/>
			</g>
		</g>
	</g>
	<g>
		<g>
			<g>
				<path class="st6" d="M730.5,171.6c-3.7,0-3.8,0-6.8,0c-1.6,0-3,1.3-3,3l0,9.3c0,0.7,0.6,1.3,1.3,1.3c0,0,0,0,0,0
					c0.7,0,1.3-0.6,1.3-1.3l0-9.3c0,0,0,0,0,0c0-0.1,0.1-0.2,0.3-0.2c0.1,0,0.3,0.1,0.3,0.3l0,21.3c0,0.8,0.7,1.5,1.5,1.5
					s1.5-0.7,1.5-1.5v-12.2h0.7v12.2c0,0.8,0.7,1.5,1.5,1.5s1.5-0.7,1.5-1.5c0-20.1,0-8.6,0-21.3c0-0.1,0.1-0.3,0.3-0.3
					c0.1,0,0.3,0.1,0.3,0.2c0,0,0,0,0,0l0,9.3c0,0.7,0.6,1.3,1.3,1.3c0,0,0,0,0,0c0.7,0,1.3-0.6,1.3-1.3l0-9.3c0,0,0,0,0,0
					C733.5,172.9,732.1,171.6,730.5,171.6z"/>
			</g>
		</g>
		<g>
			<g>
				<circle class="st6" cx="727" cy="168.1" r="2.6"/>
			</g>
		</g>
		<g>
			<g>
				<path class="st6" d="M755,181.9c0-0.1-2.3-6.7-2.7-7.7c-0.6-1.7-1.6-2.6-2.9-2.6c-1.9,0-2.5,0-4.4,0c-1.3,0-2.3,0.9-2.9,2.6
					c-0.4,1.1-2.7,7.6-2.7,7.7c-0.2,0.7,0.1,1.4,0.8,1.6c0.7,0.2,1.4-0.1,1.6-0.8c0.1-0.2,1.5-4.1,2.2-6.3c-0.1,0.7,0.2-0.7-1.8,9.4
					c-0.1,0.4,0.3,0.8,0.7,0.8c0.3,0,0.6,0,1,0v9.1c0,0.8,0.7,1.5,1.5,1.5c0.8,0,1.5-0.7,1.5-1.5v-9.1c0.2,0,0.4,0,0.7,0v9.1
					c0,0.8,0.7,1.5,1.5,1.5c0.8,0,1.5-0.7,1.5-1.5v-9.1c0.4,0,0.7,0,1,0c0.4,0,0.8-0.4,0.7-0.8c-1.9-10-1.7-8.8-1.8-9.4
					c0.8,2.2,2.1,6.1,2.2,6.3c0.2,0.7,1,1,1.6,0.8C754.9,183.3,755.2,182.6,755,181.9z"/>
			</g>
		</g>
		<g>
			<g>
				<circle class="st6" cx="747.2" cy="168.2" r="2.6"/>
			</g>
		</g>
		<g>
			<g>
				<path class="st6" d="M736.7,167.2c-0.5,0-1,0.4-1,1v26.6c0,0.5,0.4,1,1,1c0.5,0,1-0.4,1-1v-26.6
					C737.7,167.6,737.3,167.2,736.7,167.2z"/>
			</g>
		</g>
	</g>
</g>
</svg>
